OFF
192 380 0
0.0928165019 10.6669445038 7.8279809952
-2.9612834454 5.4148726463 7.8279809952
3.1469261646 5.4148726463 7.8279809952
-9.0367641449 5.3959755898 7.8279809952
-4.9278535843 5.1456866264 7.8279809952
-6.0153942108 0.1250068396 7.8279809952
-9.0367641449 -5.1459612846 7.8279809952
-4.9278535843 -4.8956723213 7.8279809952
-2.9612834454 -5.1648583412 7.8279809952
0.0928165019 -10.4169301987 7.8279809952
3.1469261646 -5.1648583412 7.8279809952
9.2224054337 -5.1459612846 7.8279809952
5.1134958267 -4.8956723213 7.8279809952
6.2010354996 0.1250068396 7.8279809952
9.2224054337 5.3959755898 7.8279809952
5.1134958267 5.1456866264 7.8279809952
0.0928165019 10.6669445038 0.0000000000
-2.9612834454 5.4148726463 0.0000000000
3.1469261646 5.4148726463 0.0000000000
-9.0367641449 5.3959755898 0.0000000000
-4.9278535843 5.1456866264 0.0000000000
-6.0153942108 0.1250068396 0.0000000000
-9.0367641449 -5.1459612846 0.0000000000
-4.9278535843 -4.8956723213 0.0000000000
-2.9612834454 -5.1648583412 0.0000000000
0.0928165019 -10.4169301987 0.0000000000
3.1469261646 -5.1648583412 0.0000000000
9.2224054337 -5.1459612846 0.0000000000
5.1134958267 -4.8956723213 0.0000000000
6.2010354996 0.1250068396 0.0000000000
9.2224054337 5.3959755898 0.0000000000
5.1134958267 5.1456866264 0.0000000000
2.0928165913 0.1250068396 27.5481891632
2.0521862507 0.5261189342 27.5481891632
-1.7587641478 -0.6310511231 27.5481891632
1.9444056749 0.8810648322 27.5481891632
-1.8681133986 0.5183708072 27.5481891632
1.7633868456 1.2246478796 27.5481891632
1.5142356157 1.5319868326 27.5481891632
1.2150355577 1.7804929018 27.5481891632
0.8754855394 1.9655047655 27.5481891632
0.4861861765 2.0859420300 27.5481891632
0.0928165019 2.1250069141 27.5481891632
-1.0068138838 1.7955738306 27.5481891632
-0.3082931936 2.0843718052 27.5481891632
-0.6632336378 1.9765945673 27.5481891632
-1.3141535521 1.5464178324 27.5481891632
-1.5626639128 1.2472227812 27.5481891632
-1.7476738691 0.9076737761 27.5481891632
-1.9071835279 0.1250068396 27.5481891632
-1.8665436506 -0.2761042714 27.5481891632
-1.5777434111 -0.9746331573 27.5481891632
0.0928165019 -1.8749927282 27.5481891632
-1.3285940886 -1.2819721699 27.5481891632
-1.0293940306 -1.5304782391 27.5481891632
-0.6898440123 -1.7154908180 27.5481891632
-0.3005436361 -1.8359273672 27.5481891632
0.4939357340 -1.8343572617 27.5481891632
2.0537559986 -0.2683570981 27.5481891632
0.8488761187 -1.7265802622 27.5481891632
1.1924563646 -1.5455590487 27.5481891632
1.4997969866 -1.2964031696 27.5481891632
1.7483054399 -0.9972081780 27.5481891632
1.9333163500 -0.6576591134 27.5481891632
2.4821369648 0.6141359210 17.6880893707
2.5316860676 0.1250068396 17.6880893707
2.7511169910 0.1250068396 12.7580299377
2.6971065998 0.6581439376 12.7580299377
2.2671558857 0.5701269507 22.6181392670
2.3122570515 0.1250068396 22.6181392670
2.3507072926 1.0469678640 17.6880893707
2.5538570881 1.1299198866 12.7580299377
2.1475555897 0.9640168548 22.6181392670
2.1299660206 1.4659427404 17.6880893707
2.3132469654 1.5865908861 12.7580299377
1.9466754198 1.3452948332 22.6181392670
1.8261367083 1.8407217264 17.6880893707
1.9820853472 1.9950896502 12.7580299377
1.6701861620 1.6863547564 22.6181392670
1.4612857103 2.1437580585 17.6880893707
1.5844069719 2.3253910542 12.7580299377
1.3381663561 1.9621258974 22.6181392670
1.0472270250 2.3693678379 17.6880893707
1.1330958605 2.5712997913 12.7580299377
0.9613562822 2.1674368382 22.6181392670
0.5725070238 2.5162317753 17.6880893707
0.6156569719 2.7313778400 12.7580299377
0.5293456316 2.3010866642 22.6181392670
0.0928165019 2.5638697147 17.6880893707
0.0928165019 2.7833011150 12.7580299377
0.0928165019 2.3444387913 22.6181392670
-0.3963039815 2.5143177509 17.6880893707
-0.4403141439 2.7292907238 12.7580299377
-0.3522938192 2.2993447781 22.6181392670
-0.8291434050 2.3828909397 17.6880893707
-0.9120939970 2.5860388279 12.7580299377
-0.7461832762 2.1797430515 22.6181392670
-1.2481135130 2.1621477604 17.6880893707
-1.3687638044 2.3454349041 12.7580299377
-1.1274641752 1.9788609743 22.6181392670
-1.6228941679 1.8583198786 17.6880893707
-1.7772635221 2.0142710209 12.7580299377
-1.4685238600 1.7023688555 22.6181392670
-1.9259337187 1.4934717417 17.6880893707
-2.1075637341 1.6165968180 12.7580299377
-1.7442940474 1.3703478575 22.6181392670
-2.1515433788 1.0794156790 17.6880893707
-2.3534734249 1.1652857065 12.7580299377
-1.9496039152 0.9935447574 22.6181392670
-2.2984035015 0.6046878695 17.6880893707
-2.5135533810 0.6478459239 12.7580299377
-2.0832536221 0.5615298152 22.6181392670
-2.3460433483 0.1250068396 17.6880893707
-2.5654733181 0.1250068396 12.7580299377
-2.1266133785 0.1250068396 22.6181392670
-2.2964932919 -0.3641211390 17.6880893707
-2.5114638805 -0.4081291556 12.7580299377
-2.0815131664 -0.3201131225 22.6181392670
-2.1650636196 -0.7969531417 17.6880893707
-2.3682134151 -0.8799051642 12.7580299377
-1.9619139433 -0.7140021920 22.6181392670
-1.9443234205 -1.2159281969 17.6880893707
-2.1276032925 -1.3365762234 12.7580299377
-1.7610338926 -1.0952801704 22.6181392670
-1.6404932737 -1.5907075405 17.6880893707
-1.7964438200 -1.7450752258 12.7580299377
-1.4845436811 -1.4363398552 22.6181392670
-1.2756441832 -1.8937436342 17.6880893707
-1.3987635374 -2.0753762722 12.7580299377
-1.1525238752 -1.7121108770 22.6181392670
-0.8615835905 -2.1193537712 17.6880893707
-0.9474533796 -2.3212852478 12.7580299377
-0.7757138014 -1.9174221754 22.6181392670
-0.3868645132 -2.2662179470 17.6880893707
-0.4300144613 -2.4813630581 12.7580299377
-0.3437031209 -2.0510725975 22.6181392670
0.0928165019 -2.3138554096 17.6880893707
0.0928165019 -2.5332865715 12.7580299377
0.0928165019 -2.0944240093 22.6181392670
0.5819464922 -2.2643032074 17.6880893707
0.6259566545 -2.4792761803 12.7580299377
0.5379363298 -2.0493302345 22.6181392670
1.0147868395 -2.1328763962 17.6880893707
1.0977355242 -2.3360247612 12.7580299377
0.9318267107 -1.9297283888 22.6181392670
1.4337569475 -1.9121334553 17.6880893707
1.5544062853 -2.0954208374 12.7580299377
1.3131057024 -1.7288463116 22.6181392670
1.8085356951 -1.6083058119 17.6880893707
1.9629069567 -1.7642568350 12.7580299377
1.6541663408 -1.4523546696 22.6181392670
2.1115772724 -1.2434582710 17.6880893707
2.2932064533 -1.3665822744 12.7580299377
1.9299365282 -1.1203331947 22.6181392670
2.3371860981 -0.8294011950 17.6880893707
2.5391170979 -0.9152721763 12.7580299377
2.1352455616 -0.7435302138 22.6181392670
2.4840462208 -0.3546732068 17.6880893707
2.6991856098 -0.3978311419 12.7580299377
2.2688972950 -0.3115151525 22.6181392670
2.9705460072 0.1250068396 7.8279809952
2.9225056171 0.6486467719 7.8279809952
2.7684967518 1.1842826605 7.8279809952
2.5014660358 1.6997267008 7.8279809952
2.1276772022 2.1598670483 7.8279809952
1.6675368547 2.5336511135 7.8279809952
1.1520968676 2.8006827831 7.8279809952
0.6164561510 2.9546897411 7.8279809952
0.0928165019 3.0027329922 7.8279809952
-0.4308136404 2.9546897411 7.8279809952
-0.9664534330 2.8006827831 7.8279809952
-1.4818934202 2.5336511135 7.8279809952
-1.9420336485 2.1598670483 7.8279809952
-2.3158233166 1.6997267008 7.8279809952
-2.5828540325 1.1842826605 7.8279809952
-2.7368638515 0.6486467719 7.8279809952
-2.7849032879 0.1250068396 7.8279809952
-2.7368638515 -0.3986321092 7.8279809952
-2.5828540325 -0.9342681766 7.8279809952
-2.3158233166 -1.4497120380 7.8279809952
-1.9420336485 -1.9098517895 7.8279809952
-1.4818934202 -2.2836358547 7.8279809952
-0.9664534330 -2.5506680012 7.8279809952
-0.4308136404 -2.7046754360 7.8279809952
0.0928165019 -2.7527179718 7.8279809952
0.6164561510 -2.7046754360 7.8279809952
1.1520968676 -2.5506680012 7.8279809952
1.6675368547 -2.2836358547 7.8279809952
2.1276772022 -1.9098517895 7.8279809952
2.5014660358 -1.4497120380 7.8279809952
2.7684967518 -0.9342681766 7.8279809952
2.9225056171 -0.3986321092 7.8279809952
3 0 1 2
3 3 4 1
3 5 4 3
3 6 7 5
3 8 7 6
3 9 10 8
3 11 12 10
3 13 12 11
3 14 15 13
3 2 15 14
3 7 10 12
3 12 13 15
3 15 1 4
3 4 5 7
3 1 15 2
3 8 10 7
3 16 17 0
3 0 17 1
3 16 18 17
3 19 17 20
3 21 19 20
3 22 21 23
3 24 22 23
3 25 24 26
3 27 26 28
3 29 27 28
3 30 29 31
3 18 30 31
3 20 23 21
3 23 28 26
3 28 31 29
3 31 20 18
3 17 18 20
3 24 23 26
3 1 17 3
3 19 3 17
3 3 19 5
3 21 5 19
3 5 21 6
3 22 6 21
3 6 22 8
3 24 8 22
3 8 24 9
3 25 9 24
3 9 25 10
3 26 10 25
3 10 26 11
3 27 11 26
3 11 27 13
3 29 13 27
3 13 29 14
3 30 14 29
3 14 30 2
3 18 2 30
3 2 18 0
3 0 18 16
3 32 33 34
3 33 35 36
3 35 37 38
3 38 39 35
3 39 40 41
3 41 42 43
3 42 44 45
3 45 43 42
3 43 46 35
3 46 47 48
3 48 36 46
3 36 49 50
3 50 34 36
3 34 51 52
3 51 53 52
3 53 54 55
3 55 56 53
3 56 52 53
3 52 57 58
3 57 59 58
3 59 60 61
3 61 62 63
3 63 58 59
3 58 32 34
3 34 33 36
3 36 35 46
3 35 39 43
3 39 41 43
3 34 52 58
3 59 61 63
3 64 65 66
3 64 66 67
3 68 69 65
3 68 65 64
3 70 64 67
3 70 67 71
3 72 68 64
3 72 64 70
3 73 70 71
3 73 71 74
3 75 72 70
3 75 70 73
3 76 73 74
3 76 74 77
3 78 75 73
3 78 73 76
3 79 76 77
3 79 77 80
3 81 78 76
3 81 76 79
3 82 79 80
3 82 80 83
3 84 81 79
3 84 79 82
3 85 82 83
3 85 83 86
3 87 84 82
3 87 82 85
3 88 85 86
3 88 86 89
3 90 87 85
3 90 85 88
3 91 88 89
3 91 89 92
3 93 90 88
3 93 88 91
3 94 91 92
3 94 92 95
3 96 93 91
3 96 91 94
3 97 94 95
3 97 95 98
3 99 96 94
3 99 94 97
3 100 97 98
3 100 98 101
3 102 99 97
3 102 97 100
3 103 100 101
3 103 101 104
3 105 102 100
3 105 100 103
3 106 103 104
3 106 104 107
3 108 105 103
3 108 103 106
3 109 106 107
3 109 107 110
3 111 108 106
3 111 106 109
3 112 109 110
3 112 110 113
3 114 111 109
3 114 109 112
3 115 112 113
3 115 113 116
3 117 114 112
3 117 112 115
3 118 115 116
3 118 116 119
3 120 117 115
3 120 115 118
3 121 118 119
3 121 119 122
3 123 120 118
3 123 118 121
3 124 121 122
3 124 122 125
3 126 123 121
3 126 121 124
3 127 124 125
3 127 125 128
3 129 126 124
3 129 124 127
3 130 127 128
3 130 128 131
3 132 129 127
3 132 127 130
3 133 130 131
3 133 131 134
3 135 132 130
3 135 130 133
3 136 133 134
3 136 134 137
3 138 135 133
3 138 133 136
3 139 136 137
3 139 137 140
3 141 138 136
3 141 136 139
3 142 139 140
3 142 140 143
3 144 141 139
3 144 139 142
3 145 142 143
3 145 143 146
3 147 144 142
3 147 142 145
3 148 145 146
3 148 146 149
3 150 147 145
3 150 145 148
3 151 148 149
3 151 149 152
3 153 150 148
3 153 148 151
3 154 151 152
3 154 152 155
3 156 153 151
3 156 151 154
3 157 154 155
3 157 155 158
3 159 156 154
3 159 154 157
3 65 157 158
3 65 158 66
3 69 159 157
3 69 157 65
3 32 58 159
3 58 63 156
3 63 62 153
3 62 61 150
3 61 60 147
3 60 59 144
3 59 57 141
3 57 52 138
3 52 56 135
3 56 55 132
3 55 54 129
3 54 53 126
3 53 51 123
3 51 34 123
3 34 50 117
3 50 49 114
3 49 36 111
3 36 48 108
3 48 47 105
3 47 46 102
3 46 43 99
3 43 45 99
3 45 44 93
3 44 42 90
3 42 41 87
3 41 40 84
3 40 39 81
3 39 38 78
3 38 37 78
3 37 35 72
3 35 33 68
3 33 32 69
3 160 161 66
3 161 162 67
3 162 163 71
3 163 164 77
3 164 165 80
3 165 166 83
3 166 167 86
3 167 168 89
3 168 169 89
3 169 170 92
3 170 171 95
3 171 172 101
3 172 173 104
3 173 174 107
3 174 175 110
3 175 176 113
3 176 177 113
3 177 178 116
3 178 179 119
3 179 180 125
3 180 181 128
3 181 182 131
3 182 183 134
3 183 184 137
3 184 185 137
3 185 186 140
3 186 187 143
3 187 188 149
3 188 189 152
3 189 190 155
3 190 191 158
3 191 160 66
3 69 32 159
3 67 66 161
3 69 68 33
3 71 67 162
3 68 72 35
3 74 71 163
3 72 75 37
3 77 74 163
3 75 78 37
3 80 77 164
3 78 81 39
3 83 80 165
3 81 84 40
3 86 83 166
3 84 87 41
3 89 86 167
3 87 90 42
3 92 89 169
3 90 93 44
3 95 92 170
3 93 96 45
3 98 95 171
3 96 99 45
3 101 98 171
3 99 102 46
3 104 101 172
3 102 105 47
3 107 104 173
3 105 108 48
3 110 107 174
3 108 111 36
3 113 110 175
3 111 114 49
3 116 113 177
3 114 117 50
3 119 116 178
3 117 120 34
3 122 119 179
3 120 123 34
3 125 122 179
3 123 126 53
3 128 125 180
3 126 129 54
3 131 128 181
3 129 132 55
3 134 131 182
3 132 135 56
3 137 134 183
3 135 138 52
3 140 137 185
3 138 141 57
3 143 140 186
3 141 144 59
3 146 143 187
3 144 147 60
3 149 146 187
3 147 150 61
3 152 149 188
3 150 153 62
3 155 152 189
3 153 156 63
3 158 155 190
3 156 159 58
3 66 158 191
3 160 15 161
3 161 15 162
3 162 15 163
3 163 15 164
3 164 15 165
3 165 15 166
3 166 15 167
3 167 15 168
3 168 4 169
3 169 4 170
3 170 4 171
3 171 4 172
3 172 4 173
3 173 4 174
3 174 4 175
3 175 4 176
3 176 7 177
3 177 7 178
3 178 7 179
3 179 7 180
3 180 7 181
3 181 7 182
3 182 7 183
3 183 7 184
3 184 12 185
3 185 12 186
3 186 12 187
3 187 12 188
3 188 12 189
3 189 12 190
3 190 12 191
3 191 12 160
3 12 184 7
3 15 160 12
3 4 168 15
3 7 176 4
3 23 20 31
3 28 23 31
