OFF
146 288 0
0.000000 0.000000 5.000000
0.000000 0.000000 -5.000000
5.500000 0.000000 -5.000000
2.309699 0.956709 -5.000000
3.889087 3.889087 -5.000000
0.956709 2.309699 -5.000000
0.000000 5.500000 -5.000000
-0.956709 2.309699 -5.000000
-3.889087 3.889087 -5.000000
-2.309699 0.956709 -5.000000
-5.500000 0.000000 -5.000000
-2.309699 -0.956709 -5.000000
-3.889087 -3.889087 -5.000000
-0.956709 -2.309699 -5.000000
-0.000000 -5.500000 -5.000000
0.956709 -2.309699 -5.000000
3.889087 -3.889087 -5.000000
2.309699 -0.956709 -5.000000
5.500000 0.000000 -3.750000
2.309699 0.956709 -3.750000
3.889087 3.889087 -3.750000
0.956709 2.309699 -3.750000
0.000000 5.500000 -3.750000
-0.956709 2.309699 -3.750000
-3.889087 3.889087 -3.750000
-2.309699 0.956709 -3.750000
-5.500000 0.000000 -3.750000
-2.309699 -0.956709 -3.750000
-3.889087 -3.889087 -3.750000
-0.956709 -2.309699 -3.750000
-0.000000 -5.500000 -3.750000
0.956709 -2.309699 -3.750000
3.889087 -3.889087 -3.750000
2.309699 -0.956709 -3.750000
5.500000 0.000000 -2.500000
2.309699 0.956709 -2.500000
3.889087 3.889087 -2.500000
0.956709 2.309699 -2.500000
0.000000 5.500000 -2.500000
-0.956709 2.309699 -2.500000
-3.889087 3.889087 -2.500000
-2.309699 0.956709 -2.500000
-5.500000 0.000000 -2.500000
-2.309699 -0.956709 -2.500000
-3.889087 -3.889087 -2.500000
-0.956709 -2.309699 -2.500000
-0.000000 -5.500000 -2.500000
0.956709 -2.309699 -2.500000
3.889087 -3.889087 -2.500000
2.309699 -0.956709 -2.500000
5.500000 0.000000 -1.250000
2.309699 0.956709 -1.250000
3.889087 3.889087 -1.250000
0.956709 2.309699 -1.250000
0.000000 5.500000 -1.250000
-0.956709 2.309699 -1.250000
-3.889087 3.889087 -1.250000
-2.309699 0.956709 -1.250000
-5.500000 0.000000 -1.250000
-2.309699 -0.956709 -1.250000
-3.889087 -3.889087 -1.250000
-0.956709 -2.309699 -1.250000
-0.000000 -5.500000 -1.250000
0.956709 -2.309699 -1.250000
3.889087 -3.889087 -1.250000
2.309699 -0.956709 -1.250000
5.500000 0.000000 0.000000
2.309699 0.956709 0.000000
3.889087 3.889087 0.000000
0.956709 2.309699 0.000000
0.000000 5.500000 0.000000
-0.956709 2.309699 0.000000
-3.889087 3.889087 0.000000
-2.309699 0.956709 0.000000
-5.500000 0.000000 0.000000
-2.309699 -0.956709 0.000000
-3.889087 -3.889087 0.000000
-0.956709 -2.309699 0.000000
-0.000000 -5.500000 0.000000
0.956709 -2.309699 0.000000
3.889087 -3.889087 0.000000
2.309699 -0.956709 0.000000
5.500000 0.000000 1.250000
2.309699 0.956709 1.250000
3.889087 3.889087 1.250000
0.956709 2.309699 1.250000
0.000000 5.500000 1.250000
-0.956709 2.309699 1.250000
-3.889087 3.889087 1.250000
-2.309699 0.956709 1.250000
-5.500000 0.000000 1.250000
-2.309699 -0.956709 1.250000
-3.889087 -3.889087 1.250000
-0.956709 -2.309699 1.250000
-0.000000 -5.500000 1.250000
0.956709 -2.309699 1.250000
3.889087 -3.889087 1.250000
2.309699 -0.956709 1.250000
5.500000 0.000000 2.500000
2.309699 0.956709 2.500000
3.889087 3.889087 2.500000
0.956709 2.309699 2.500000
0.000000 5.500000 2.500000
-0.956709 2.309699 2.500000
-3.889087 3.889087 2.500000
-2.309699 0.956709 2.500000
-5.500000 0.000000 2.500000
-2.309699 -0.956709 2.500000
-3.889087 -3.889087 2.500000
-0.956709 -2.309699 2.500000
-0.000000 -5.500000 2.500000
0.956709 -2.309699 2.500000
3.889087 -3.889087 2.500000
2.309699 -0.956709 2.500000
5.500000 0.000000 3.750000
2.309699 0.956709 3.750000
3.889087 3.889087 3.750000
0.956709 2.309699 3.750000
0.000000 5.500000 3.750000
-0.956709 2.309699 3.750000
-3.889087 3.889087 3.750000
-2.309699 0.956709 3.750000
-5.500000 0.000000 3.750000
-2.309699 -0.956709 3.750000
-3.889087 -3.889087 3.750000
-0.956709 -2.309699 3.750000
-0.000000 -5.500000 3.750000
0.956709 -2.309699 3.750000
3.889087 -3.889087 3.750000
2.309699 -0.956709 3.750000
5.500000 0.000000 5.000000
2.309699 0.956709 5.000000
3.889087 3.889087 5.000000
0.956709 2.309699 5.000000
0.000000 5.500000 5.000000
-0.956709 2.309699 5.000000
-3.889087 3.889087 5.000000
-2.309699 0.956709 5.000000
-5.500000 0.000000 5.000000
-2.309699 -0.956709 5.000000
-3.889087 -3.889087 5.000000
-0.956709 -2.309699 5.000000
-0.000000 -5.500000 5.000000
0.956709 -2.309699 5.000000
3.889087 -3.889087 5.000000
2.309699 -0.956709 5.000000
3 1 3 2
3 0 130 131
3 1 4 3
3 0 131 132
3 1 5 4
3 0 132 133
3 1 6 5
3 0 133 134
3 1 7 6
3 0 134 135
3 1 8 7
3 0 135 136
3 1 9 8
3 0 136 137
3 1 10 9
3 0 137 138
3 1 11 10
3 0 138 139
3 1 12 11
3 0 139 140
3 1 13 12
3 0 140 141
3 1 14 13
3 0 141 142
3 1 15 14
3 0 142 143
3 1 16 15
3 0 143 144
3 1 17 16
3 0 144 145
3 1 2 17
3 0 145 130
3 2 3 18
3 3 19 18
3 3 4 19
3 4 20 19
3 4 5 20
3 5 21 20
3 5 6 21
3 6 22 21
3 6 7 22
3 7 23 22
3 7 8 23
3 8 24 23
3 8 9 24
3 9 25 24
3 9 10 25
3 10 26 25
3 10 11 26
3 11 27 26
3 11 12 27
3 12 28 27
3 12 13 28
3 13 29 28
3 13 14 29
3 14 30 29
3 14 15 30
3 15 31 30
3 15 16 31
3 16 32 31
3 16 17 32
3 17 33 32
3 17 2 33
3 2 18 33
3 18 19 34
3 19 35 34
3 19 20 35
3 20 36 35
3 20 21 36
3 21 37 36
3 21 22 37
3 22 38 37
3 22 23 38
3 23 39 38
3 23 24 39
3 24 40 39
3 24 25 40
3 25 41 40
3 25 26 41
3 26 42 41
3 26 27 42
3 27 43 42
3 27 28 43
3 28 44 43
3 28 29 44
3 29 45 44
3 29 30 45
3 30 46 45
3 30 31 46
3 31 47 46
3 31 32 47
3 32 48 47
3 32 33 48
3 33 49 48
3 33 18 49
3 18 34 49
3 34 35 50
3 35 51 50
3 35 36 51
3 36 52 51
3 36 37 52
3 37 53 52
3 37 38 53
3 38 54 53
3 38 39 54
3 39 55 54
3 39 40 55
3 40 56 55
3 40 41 56
3 41 57 56
3 41 42 57
3 42 58 57
3 42 43 58
3 43 59 58
3 43 44 59
3 44 60 59
3 44 45 60
3 45 61 60
3 45 46 61
3 46 62 61
3 46 47 62
3 47 63 62
3 47 48 63
3 48 64 63
3 48 49 64
3 49 65 64
3 49 34 65
3 34 50 65
3 50 51 66
3 51 67 66
3 51 52 67
3 52 68 67
3 52 53 68
3 53 69 68
3 53 54 69
3 54 70 69
3 54 55 70
3 55 71 70
3 55 56 71
3 56 72 71
3 56 57 72
3 57 73 72
3 57 58 73
3 58 74 73
3 58 59 74
3 59 75 74
3 59 60 75
3 60 76 75
3 60 61 76
3 61 77 76
3 61 62 77
3 62 78 77
3 62 63 78
3 63 79 78
3 63 64 79
3 64 80 79
3 64 65 80
3 65 81 80
3 65 50 81
3 50 66 81
3 66 67 82
3 67 83 82
3 67 68 83
3 68 84 83
3 68 69 84
3 69 85 84
3 69 70 85
3 70 86 85
3 70 71 86
3 71 87 86
3 71 72 87
3 72 88 87
3 72 73 88
3 73 89 88
3 73 74 89
3 74 90 89
3 74 75 90
3 75 91 90
3 75 76 91
3 76 92 91
3 76 77 92
3 77 93 92
3 77 78 93
3 78 94 93
3 78 79 94
3 79 95 94
3 79 80 95
3 80 96 95
3 80 81 96
3 81 97 96
3 81 66 97
3 66 82 97
3 82 83 98
3 83 99 98
3 83 84 99
3 84 100 99
3 84 85 100
3 85 101 100
3 85 86 101
3 86 102 101
3 86 87 102
3 87 103 102
3 87 88 103
3 88 104 103
3 88 89 104
3 89 105 104
3 89 90 105
3 90 106 105
3 90 91 106
3 91 107 106
3 91 92 107
3 92 108 107
3 92 93 108
3 93 109 108
3 93 94 109
3 94 110 109
3 94 95 110
3 95 111 110
3 95 96 111
3 96 112 111
3 96 97 112
3 97 113 112
3 97 82 113
3 82 98 113
3 98 99 114
3 99 115 114
3 99 100 115
3 100 116 115
3 100 101 116
3 101 117 116
3 101 102 117
3 102 118 117
3 102 103 118
3 103 119 118
3 103 104 119
3 104 120 119
3 104 105 120
3 105 121 120
3 105 106 121
3 106 122 121
3 106 107 122
3 107 123 122
3 107 108 123
3 108 124 123
3 108 109 124
3 109 125 124
3 109 110 125
3 110 126 125
3 110 111 126
3 111 127 126
3 111 112 127
3 112 128 127
3 112 113 128
3 113 129 128
3 113 98 129
3 98 114 129
3 114 115 130
3 115 131 130
3 115 116 131
3 116 132 131
3 116 117 132
3 117 133 132
3 117 118 133
3 118 134 133
3 118 119 134
3 119 135 134
3 119 120 135
3 120 136 135
3 120 121 136
3 121 137 136
3 121 122 137
3 122 138 137
3 122 123 138
3 123 139 138
3 123 124 139
3 124 140 139
3 124 125 140
3 125 141 140
3 125 126 141
3 126 142 141
3 126 127 142
3 127 143 142
3 127 128 143
3 128 144 143
3 128 129 144
3 129 145 144
3 129 114 145
3 114 130 145
