OFF
42 80 0
0.000000 0.000000 5.000000
0.000000 0.000000 -5.000000
5.500000 0.000000 -5.000000
3.889087 3.889087 -5.000000
0.000000 5.500000 -5.000000
-3.889087 3.889087 -5.000000
-5.500000 0.000000 -5.000000
-3.889087 -3.889087 -5.000000
-0.000000 -5.500000 -5.000000
3.889087 -3.889087 -5.000000
5.500000 0.000000 -2.500000
3.889087 3.889087 -2.500000
0.000000 5.500000 -2.500000
-3.889087 3.889087 -2.500000
-5.500000 0.000000 -2.500000
-3.889087 -3.889087 -2.500000
-0.000000 -5.500000 -2.500000
3.889087 -3.889087 -2.500000
5.500000 0.000000 0.000000
3.889087 3.889087 0.000000
0.000000 5.500000 0.000000
-3.889087 3.889087 0.000000
-5.500000 0.000000 0.000000
-3.889087 -3.889087 0.000000
-0.000000 -5.500000 0.000000
3.889087 -3.889087 0.000000
5.500000 0.000000 2.500000
3.889087 3.889087 2.500000
0.000000 5.500000 2.500000
-3.889087 3.889087 2.500000
-5.500000 0.000000 2.500000
-3.889087 -3.889087 2.500000
-0.000000 -5.500000 2.500000
3.889087 -3.889087 2.500000
5.500000 0.000000 5.000000
3.889087 3.889087 5.000000
0.000000 5.500000 5.000000
-3.889087 3.889087 5.000000
-5.500000 0.000000 5.000000
-3.889087 -3.889087 5.000000
-0.000000 -5.500000 5.000000
3.889087 -3.889087 5.000000
3 1 3 2
3 0 34 35
3 1 4 3
3 0 35 36
3 1 5 4
3 0 36 37
3 1 6 5
3 0 37 38
3 1 7 6
3 0 38 39
3 1 8 7
3 0 39 40
3 1 9 8
3 0 40 41
3 1 2 9
3 0 41 34
3 2 3 10
3 3 11 10
3 3 4 11
3 4 12 11
3 4 5 12
3 5 13 12
3 5 6 13
3 6 14 13
3 6 7 14
3 7 15 14
3 7 8 15
3 8 16 15
3 8 9 16
3 9 17 16
3 9 2 17
3 2 10 17
3 10 11 18
3 11 19 18
3 11 12 19
3 12 20 19
3 12 13 20
3 13 21 20
3 13 14 21
3 14 22 21
3 14 15 22
3 15 23 22
3 15 16 23
3 16 24 23
3 16 17 24
3 17 25 24
3 17 10 25
3 10 18 25
3 18 19 26
3 19 27 26
3 19 20 27
3 20 28 27
3 20 21 28
3 21 29 28
3 21 22 29
3 22 30 29
3 22 23 30
3 23 31 30
3 23 24 31
3 24 32 31
3 24 25 32
3 25 33 32
3 25 18 33
3 18 26 33
3 26 27 34
3 27 35 34
3 27 28 35
3 28 36 35
3 28 29 36
3 29 37 36
3 29 30 37
3 30 38 37
3 30 31 38
3 31 39 38
3 31 32 39
3 32 40 39
3 32 33 40
3 33 41 40
3 33 26 41
3 26 34 41
