OFF
546 1088 0
0.000000 0.000000 5.000000
0.000000 0.000000 -5.000000
5.500000 0.000000 -5.000000
3.923141 0.780361 -5.000000
2.309699 0.956709 -5.000000
3.325878 2.222281 -5.000000
3.889087 3.889087 -5.000000
2.222281 3.325878 -5.000000
0.956709 2.309699 -5.000000
0.780361 3.923141 -5.000000
0.000000 5.500000 -5.000000
-0.780361 3.923141 -5.000000
-0.956709 2.309699 -5.000000
-2.222281 3.325878 -5.000000
-3.889087 3.889087 -5.000000
-3.325878 2.222281 -5.000000
-2.309699 0.956709 -5.000000
-3.923141 0.780361 -5.000000
-5.500000 0.000000 -5.000000
-3.923141 -0.780361 -5.000000
-2.309699 -0.956709 -5.000000
-3.325878 -2.222281 -5.000000
-3.889087 -3.889087 -5.000000
-2.222281 -3.325878 -5.000000
-0.956709 -2.309699 -5.000000
-0.780361 -3.923141 -5.000000
-0.000000 -5.500000 -5.000000
0.780361 -3.923141 -5.000000
0.956709 -2.309699 -5.000000
2.222281 -3.325878 -5.000000
3.889087 -3.889087 -5.000000
3.325878 -2.222281 -5.000000
2.309699 -0.956709 -5.000000
3.923141 -0.780361 -5.000000
5.500000 0.000000 -4.375000
3.923141 0.780361 -4.375000
2.309699 0.956709 -4.375000
3.325878 2.222281 -4.375000
3.889087 3.889087 -4.375000
2.222281 3.325878 -4.375000
0.956709 2.309699 -4.375000
0.780361 3.923141 -4.375000
0.000000 5.500000 -4.375000
-0.780361 3.923141 -4.375000
-0.956709 2.309699 -4.375000
-2.222281 3.325878 -4.375000
-3.889087 3.889087 -4.375000
-3.325878 2.222281 -4.375000
-2.309699 0.956709 -4.375000
-3.923141 0.780361 -4.375000
-5.500000 0.000000 -4.375000
-3.923141 -0.780361 -4.375000
-2.309699 -0.956709 -4.375000
-3.325878 -2.222281 -4.375000
-3.889087 -3.889087 -4.375000
-2.222281 -3.325878 -4.375000
-0.956709 -2.309699 -4.375000
-0.780361 -3.923141 -4.375000
-0.000000 -5.500000 -4.375000
0.780361 -3.923141 -4.375000
0.956709 -2.309699 -4.375000
2.222281 -3.325878 -4.375000
3.889087 -3.889087 -4.375000
3.325878 -2.222281 -4.375000
2.309699 -0.956709 -4.375000
3.923141 -0.780361 -4.375000
5.500000 0.000000 -3.750000
3.923141 0.780361 -3.750000
2.309699 0.956709 -3.750000
3.325878 2.222281 -3.750000
3.889087 3.889087 -3.750000
2.222281 3.325878 -3.750000
0.956709 2.309699 -3.750000
0.780361 3.923141 -3.750000
0.000000 5.500000 -3.750000
-0.780361 3.923141 -3.750000
-0.956709 2.309699 -3.750000
-2.222281 3.325878 -3.750000
-3.889087 3.889087 -3.750000
-3.325878 2.222281 -3.750000
-2.309699 0.956709 -3.750000
-3.923141 0.780361 -3.750000
-5.500000 0.000000 -3.750000
-3.923141 -0.780361 -3.750000
-2.309699 -0.956709 -3.750000
-3.325878 -2.222281 -3.750000
-3.889087 -3.889087 -3.750000
-2.222281 -3.325878 -3.750000
-0.956709 -2.309699 -3.750000
-0.780361 -3.923141 -3.750000
-0.000000 -5.500000 -3.750000
0.780361 -3.923141 -3.750000
0.956709 -2.309699 -3.750000
2.222281 -3.325878 -3.750000
3.889087 -3.889087 -3.750000
3.325878 -2.222281 -3.750000
2.309699 -0.956709 -3.750000
3.923141 -0.780361 -3.750000
5.500000 0.000000 -3.125000
3.923141 0.780361 -3.125000
2.309699 0.956709 -3.125000
3.325878 2.222281 -3.125000
3.889087 3.889087 -3.125000
2.222281 3.325878 -3.125000
0.956709 2.309699 -3.125000
0.780361 3.923141 -3.125000
0.000000 5.500000 -3.125000
-0.780361 3.923141 -3.125000
-0.956709 2.309699 -3.125000
-2.222281 3.325878 -3.125000
-3.889087 3.889087 -3.125000
-3.325878 2.222281 -3.125000
-2.309699 0.956709 -3.125000
-3.923141 0.780361 -3.125000
-5.500000 0.000000 -3.125000
-3.923141 -0.780361 -3.125000
-2.309699 -0.956709 -3.125000
-3.325878 -2.222281 -3.125000
-3.889087 -3.889087 -3.125000
-2.222281 -3.325878 -3.125000
-0.956709 -2.309699 -3.125000
-0.780361 -3.923141 -3.125000
-0.000000 -5.500000 -3.125000
0.780361 -3.923141 -3.125000
0.956709 -2.309699 -3.125000
2.222281 -3.325878 -3.125000
3.889087 -3.889087 -3.125000
3.325878 -2.222281 -3.125000
2.309699 -0.956709 -3.125000
3.923141 -0.780361 -3.125000
5.500000 0.000000 -2.500000
3.923141 0.780361 -2.500000
2.309699 0.956709 -2.500000
3.325878 2.222281 -2.500000
3.889087 3.889087 -2.500000
2.222281 3.325878 -2.500000
0.956709 2.309699 -2.500000
0.780361 3.923141 -2.500000
0.000000 5.500000 -2.500000
-0.780361 3.923141 -2.500000
-0.956709 2.309699 -2.500000
-2.222281 3.325878 -2.500000
-3.889087 3.889087 -2.500000
-3.325878 2.222281 -2.500000
-2.309699 0.956709 -2.500000
-3.923141 0.780361 -2.500000
-5.500000 0.000000 -2.500000
-3.923141 -0.780361 -2.500000
-2.309699 -0.956709 -2.500000
-3.325878 -2.222281 -2.500000
-3.889087 -3.889087 -2.500000
-2.222281 -3.325878 -2.500000
-0.956709 -2.309699 -2.500000
-0.780361 -3.923141 -2.500000
-0.000000 -5.500000 -2.500000
0.780361 -3.923141 -2.500000
0.956709 -2.309699 -2.500000
2.222281 -3.325878 -2.500000
3.889087 -3.889087 -2.500000
3.325878 -2.222281 -2.500000
2.309699 -0.956709 -2.500000
3.923141 -0.780361 -2.500000
5.500000 0.000000 -1.875000
3.923141 0.780361 -1.875000
2.309699 0.956709 -1.875000
3.325878 2.222281 -1.875000
3.889087 3.889087 -1.875000
2.222281 3.325878 -1.875000
0.956709 2.309699 -1.875000
0.780361 3.923141 -1.875000
0.000000 5.500000 -1.875000
-0.780361 3.923141 -1.875000
-0.956709 2.309699 -1.875000
-2.222281 3.325878 -1.875000
-3.889087 3.889087 -1.875000
-3.325878 2.222281 -1.875000
-2.309699 0.956709 -1.875000
-3.923141 0.780361 -1.875000
-5.500000 0.000000 -1.875000
-3.923141 -0.780361 -1.875000
-2.309699 -0.956709 -1.875000
-3.325878 -2.222281 -1.875000
-3.889087 -3.889087 -1.875000
-2.222281 -3.325878 -1.875000
-0.956709 -2.309699 -1.875000
-0.780361 -3.923141 -1.875000
-0.000000 -5.500000 -1.875000
0.780361 -3.923141 -1.875000
0.956709 -2.309699 -1.875000
2.222281 -3.325878 -1.875000
3.889087 -3.889087 -1.875000
3.325878 -2.222281 -1.875000
2.309699 -0.956709 -1.875000
3.923141 -0.780361 -1.875000
5.500000 0.000000 -1.250000
3.923141 0.780361 -1.250000
2.309699 0.956709 -1.250000
3.325878 2.222281 -1.250000
3.889087 3.889087 -1.250000
2.222281 3.325878 -1.250000
0.956709 2.309699 -1.250000
0.780361 3.923141 -1.250000
0.000000 5.500000 -1.250000
-0.780361 3.923141 -1.250000
-0.956709 2.309699 -1.250000
-2.222281 3.325878 -1.250000
-3.889087 3.889087 -1.250000
-3.325878 2.222281 -1.250000
-2.309699 0.956709 -1.250000
-3.923141 0.780361 -1.250000
-5.500000 0.000000 -1.250000
-3.923141 -0.780361 -1.250000
-2.309699 -0.956709 -1.250000
-3.325878 -2.222281 -1.250000
-3.889087 -3.889087 -1.250000
-2.222281 -3.325878 -1.250000
-0.956709 -2.309699 -1.250000
-0.780361 -3.923141 -1.250000
-0.000000 -5.500000 -1.250000
0.780361 -3.923141 -1.250000
0.956709 -2.309699 -1.250000
2.222281 -3.325878 -1.250000
3.889087 -3.889087 -1.250000
3.325878 -2.222281 -1.250000
2.309699 -0.956709 -1.250000
3.923141 -0.780361 -1.250000
5.500000 0.000000 -0.625000
3.923141 0.780361 -0.625000
2.309699 0.956709 -0.625000
3.325878 2.222281 -0.625000
3.889087 3.889087 -0.625000
2.222281 3.325878 -0.625000
0.956709 2.309699 -0.625000
0.780361 3.923141 -0.625000
0.000000 5.500000 -0.625000
-0.780361 3.923141 -0.625000
-0.956709 2.309699 -0.625000
-2.222281 3.325878 -0.625000
-3.889087 3.889087 -0.625000
-3.325878 2.222281 -0.625000
-2.309699 0.956709 -0.625000
-3.923141 0.780361 -0.625000
-5.500000 0.000000 -0.625000
-3.923141 -0.780361 -0.625000
-2.309699 -0.956709 -0.625000
-3.325878 -2.222281 -0.625000
-3.889087 -3.889087 -0.625000
-2.222281 -3.325878 -0.625000
-0.956709 -2.309699 -0.625000
-0.780361 -3.923141 -0.625000
-0.000000 -5.500000 -0.625000
0.780361 -3.923141 -0.625000
0.956709 -2.309699 -0.625000
2.222281 -3.325878 -0.625000
3.889087 -3.889087 -0.625000
3.325878 -2.222281 -0.625000
2.309699 -0.956709 -0.625000
3.923141 -0.780361 -0.625000
5.500000 0.000000 0.000000
3.923141 0.780361 0.000000
2.309699 0.956709 0.000000
3.325878 2.222281 0.000000
3.889087 3.889087 0.000000
2.222281 3.325878 0.000000
0.956709 2.309699 0.000000
0.780361 3.923141 0.000000
0.000000 5.500000 0.000000
-0.780361 3.923141 0.000000
-0.956709 2.309699 0.000000
-2.222281 3.325878 0.000000
-3.889087 3.889087 0.000000
-3.325878 2.222281 0.000000
-2.309699 0.956709 0.000000
-3.923141 0.780361 0.000000
-5.500000 0.000000 0.000000
-3.923141 -0.780361 0.000000
-2.309699 -0.956709 0.000000
-3.325878 -2.222281 0.000000
-3.889087 -3.889087 0.000000
-2.222281 -3.325878 0.000000
-0.956709 -2.309699 0.000000
-0.780361 -3.923141 0.000000
-0.000000 -5.500000 0.000000
0.780361 -3.923141 0.000000
0.956709 -2.309699 0.000000
2.222281 -3.325878 0.000000
3.889087 -3.889087 0.000000
3.325878 -2.222281 0.000000
2.309699 -0.956709 0.000000
3.923141 -0.780361 0.000000
5.500000 0.000000 0.625000
3.923141 0.780361 0.625000
2.309699 0.956709 0.625000
3.325878 2.222281 0.625000
3.889087 3.889087 0.625000
2.222281 3.325878 0.625000
0.956709 2.309699 0.625000
0.780361 3.923141 0.625000
0.000000 5.500000 0.625000
-0.780361 3.923141 0.625000
-0.956709 2.309699 0.625000
-2.222281 3.325878 0.625000
-3.889087 3.889087 0.625000
-3.325878 2.222281 0.625000
-2.309699 0.956709 0.625000
-3.923141 0.780361 0.625000
-5.500000 0.000000 0.625000
-3.923141 -0.780361 0.625000
-2.309699 -0.956709 0.625000
-3.325878 -2.222281 0.625000
-3.889087 -3.889087 0.625000
-2.222281 -3.325878 0.625000
-0.956709 -2.309699 0.625000
-0.780361 -3.923141 0.625000
-0.000000 -5.500000 0.625000
0.780361 -3.923141 0.625000
0.956709 -2.309699 0.625000
2.222281 -3.325878 0.625000
3.889087 -3.889087 0.625000
3.325878 -2.222281 0.625000
2.309699 -0.956709 0.625000
3.923141 -0.780361 0.625000
5.500000 0.000000 1.250000
3.923141 0.780361 1.250000
2.309699 0.956709 1.250000
3.325878 2.222281 1.250000
3.889087 3.889087 1.250000
2.222281 3.325878 1.250000
0.956709 2.309699 1.250000
0.780361 3.923141 1.250000
0.000000 5.500000 1.250000
-0.780361 3.923141 1.250000
-0.956709 2.309699 1.250000
-2.222281 3.325878 1.250000
-3.889087 3.889087 1.250000
-3.325878 2.222281 1.250000
-2.309699 0.956709 1.250000
-3.923141 0.780361 1.250000
-5.500000 0.000000 1.250000
-3.923141 -0.780361 1.250000
-2.309699 -0.956709 1.250000
-3.325878 -2.222281 1.250000
-3.889087 -3.889087 1.250000
-2.222281 -3.325878 1.250000
-0.956709 -2.309699 1.250000
-0.780361 -3.923141 1.250000
-0.000000 -5.500000 1.250000
0.780361 -3.923141 1.250000
0.956709 -2.309699 1.250000
2.222281 -3.325878 1.250000
3.889087 -3.889087 1.250000
3.325878 -2.222281 1.250000
2.309699 -0.956709 1.250000
3.923141 -0.780361 1.250000
5.500000 0.000000 1.875000
3.923141 0.780361 1.875000
2.309699 0.956709 1.875000
3.325878 2.222281 1.875000
3.889087 3.889087 1.875000
2.222281 3.325878 1.875000
0.956709 2.309699 1.875000
0.780361 3.923141 1.875000
0.000000 5.500000 1.875000
-0.780361 3.923141 1.875000
-0.956709 2.309699 1.875000
-2.222281 3.325878 1.875000
-3.889087 3.889087 1.875000
-3.325878 2.222281 1.875000
-2.309699 0.956709 1.875000
-3.923141 0.780361 1.875000
-5.500000 0.000000 1.875000
-3.923141 -0.780361 1.875000
-2.309699 -0.956709 1.875000
-3.325878 -2.222281 1.875000
-3.889087 -3.889087 1.875000
-2.222281 -3.325878 1.875000
-0.956709 -2.309699 1.875000
-0.780361 -3.923141 1.875000
-0.000000 -5.500000 1.875000
0.780361 -3.923141 1.875000
0.956709 -2.309699 1.875000
2.222281 -3.325878 1.875000
3.889087 -3.889087 1.875000
3.325878 -2.222281 1.875000
2.309699 -0.956709 1.875000
3.923141 -0.780361 1.875000
5.500000 0.000000 2.500000
3.923141 0.780361 2.500000
2.309699 0.956709 2.500000
3.325878 2.222281 2.500000
3.889087 3.889087 2.500000
2.222281 3.325878 2.500000
0.956709 2.309699 2.500000
0.780361 3.923141 2.500000
0.000000 5.500000 2.500000
-0.780361 3.923141 2.500000
-0.956709 2.309699 2.500000
-2.222281 3.325878 2.500000
-3.889087 3.889087 2.500000
-3.325878 2.222281 2.500000
-2.309699 0.956709 2.500000
-3.923141 0.780361 2.500000
-5.500000 0.000000 2.500000
-3.923141 -0.780361 2.500000
-2.309699 -0.956709 2.500000
-3.325878 -2.222281 2.500000
-3.889087 -3.889087 2.500000
-2.222281 -3.325878 2.500000
-0.956709 -2.309699 2.500000
-0.780361 -3.923141 2.500000
-0.000000 -5.500000 2.500000
0.780361 -3.923141 2.500000
0.956709 -2.309699 2.500000
2.222281 -3.325878 2.500000
3.889087 -3.889087 2.500000
3.325878 -2.222281 2.500000
2.309699 -0.956709 2.500000
3.923141 -0.780361 2.500000
5.500000 0.000000 3.125000
3.923141 0.780361 3.125000
2.309699 0.956709 3.125000
3.325878 2.222281 3.125000
3.889087 3.889087 3.125000
2.222281 3.325878 3.125000
0.956709 2.309699 3.125000
0.780361 3.923141 3.125000
0.000000 5.500000 3.125000
-0.780361 3.923141 3.125000
-0.956709 2.309699 3.125000
-2.222281 3.325878 3.125000
-3.889087 3.889087 3.125000
-3.325878 2.222281 3.125000
-2.309699 0.956709 3.125000
-3.923141 0.780361 3.125000
-5.500000 0.000000 3.125000
-3.923141 -0.780361 3.125000
-2.309699 -0.956709 3.125000
-3.325878 -2.222281 3.125000
-3.889087 -3.889087 3.125000
-2.222281 -3.325878 3.125000
-0.956709 -2.309699 3.125000
-0.780361 -3.923141 3.125000
-0.000000 -5.500000 3.125000
0.780361 -3.923141 3.125000
0.956709 -2.309699 3.125000
2.222281 -3.325878 3.125000
3.889087 -3.889087 3.125000
3.325878 -2.222281 3.125000
2.309699 -0.956709 3.125000
3.923141 -0.780361 3.125000
5.500000 0.000000 3.750000
3.923141 0.780361 3.750000
2.309699 0.956709 3.750000
3.325878 2.222281 3.750000
3.889087 3.889087 3.750000
2.222281 3.325878 3.750000
0.956709 2.309699 3.750000
0.780361 3.923141 3.750000
0.000000 5.500000 3.750000
-0.780361 3.923141 3.750000
-0.956709 2.309699 3.750000
-2.222281 3.325878 3.750000
-3.889087 3.889087 3.750000
-3.325878 2.222281 3.750000
-2.309699 0.956709 3.750000
-3.923141 0.780361 3.750000
-5.500000 0.000000 3.750000
-3.923141 -0.780361 3.750000
-2.309699 -0.956709 3.750000
-3.325878 -2.222281 3.750000
-3.889087 -3.889087 3.750000
-2.222281 -3.325878 3.750000
-0.956709 -2.309699 3.750000
-0.780361 -3.923141 3.750000
-0.000000 -5.500000 3.750000
0.780361 -3.923141 3.750000
0.956709 -2.309699 3.750000
2.222281 -3.325878 3.750000
3.889087 -3.889087 3.750000
3.325878 -2.222281 3.750000
2.309699 -0.956709 3.750000
3.923141 -0.780361 3.750000
5.500000 0.000000 4.375000
3.923141 0.780361 4.375000
2.309699 0.956709 4.375000
3.325878 2.222281 4.375000
3.889087 3.889087 4.375000
2.222281 3.325878 4.375000
0.956709 2.309699 4.375000
0.780361 3.923141 4.375000
0.000000 5.500000 4.375000
-0.780361 3.923141 4.375000
-0.956709 2.309699 4.375000
-2.222281 3.325878 4.375000
-3.889087 3.889087 4.375000
-3.325878 2.222281 4.375000
-2.309699 0.956709 4.375000
-3.923141 0.780361 4.375000
-5.500000 0.000000 4.375000
-3.923141 -0.780361 4.375000
-2.309699 -0.956709 4.375000
-3.325878 -2.222281 4.375000
-3.889087 -3.889087 4.375000
-2.222281 -3.325878 4.375000
-0.956709 -2.309699 4.375000
-0.780361 -3.923141 4.375000
-0.000000 -5.500000 4.375000
0.780361 -3.923141 4.375000
0.956709 -2.309699 4.375000
2.222281 -3.325878 4.375000
3.889087 -3.889087 4.375000
3.325878 -2.222281 4.375000
2.309699 -0.956709 4.375000
3.923141 -0.780361 4.375000
5.500000 0.000000 5.000000
3.923141 0.780361 5.000000
2.309699 0.956709 5.000000
3.325878 2.222281 5.000000
3.889087 3.889087 5.000000
2.222281 3.325878 5.000000
0.956709 2.309699 5.000000
0.780361 3.923141 5.000000
0.000000 5.500000 5.000000
-0.780361 3.923141 5.000000
-0.956709 2.309699 5.000000
-2.222281 3.325878 5.000000
-3.889087 3.889087 5.000000
-3.325878 2.222281 5.000000
-2.309699 0.956709 5.000000
-3.923141 0.780361 5.000000
-5.500000 0.000000 5.000000
-3.923141 -0.780361 5.000000
-2.309699 -0.956709 5.000000
-3.325878 -2.222281 5.000000
-3.889087 -3.889087 5.000000
-2.222281 -3.325878 5.000000
-0.956709 -2.309699 5.000000
-0.780361 -3.923141 5.000000
-0.000000 -5.500000 5.000000
0.780361 -3.923141 5.000000
0.956709 -2.309699 5.000000
2.222281 -3.325878 5.000000
3.889087 -3.889087 5.000000
3.325878 -2.222281 5.000000
2.309699 -0.956709 5.000000
3.923141 -0.780361 5.000000
3 1 3 2
3 0 514 515
3 1 4 3
3 0 515 516
3 1 5 4
3 0 516 517
3 1 6 5
3 0 517 518
3 1 7 6
3 0 518 519
3 1 8 7
3 0 519 520
3 1 9 8
3 0 520 521
3 1 10 9
3 0 521 522
3 1 11 10
3 0 522 523
3 1 12 11
3 0 523 524
3 1 13 12
3 0 524 525
3 1 14 13
3 0 525 526
3 1 15 14
3 0 526 527
3 1 16 15
3 0 527 528
3 1 17 16
3 0 528 529
3 1 18 17
3 0 529 530
3 1 19 18
3 0 530 531
3 1 20 19
3 0 531 532
3 1 21 20
3 0 532 533
3 1 22 21
3 0 533 534
3 1 23 22
3 0 534 535
3 1 24 23
3 0 535 536
3 1 25 24
3 0 536 537
3 1 26 25
3 0 537 538
3 1 27 26
3 0 538 539
3 1 28 27
3 0 539 540
3 1 29 28
3 0 540 541
3 1 30 29
3 0 541 542
3 1 31 30
3 0 542 543
3 1 32 31
3 0 543 544
3 1 33 32
3 0 544 545
3 1 2 33
3 0 545 514
3 2 3 34
3 3 35 34
3 3 4 35
3 4 36 35
3 4 5 36
3 5 37 36
3 5 6 37
3 6 38 37
3 6 7 38
3 7 39 38
3 7 8 39
3 8 40 39
3 8 9 40
3 9 41 40
3 9 10 41
3 10 42 41
3 10 11 42
3 11 43 42
3 11 12 43
3 12 44 43
3 12 13 44
3 13 45 44
3 13 14 45
3 14 46 45
3 14 15 46
3 15 47 46
3 15 16 47
3 16 48 47
3 16 17 48
3 17 49 48
3 17 18 49
3 18 50 49
3 18 19 50
3 19 51 50
3 19 20 51
3 20 52 51
3 20 21 52
3 21 53 52
3 21 22 53
3 22 54 53
3 22 23 54
3 23 55 54
3 23 24 55
3 24 56 55
3 24 25 56
3 25 57 56
3 25 26 57
3 26 58 57
3 26 27 58
3 27 59 58
3 27 28 59
3 28 60 59
3 28 29 60
3 29 61 60
3 29 30 61
3 30 62 61
3 30 31 62
3 31 63 62
3 31 32 63
3 32 64 63
3 32 33 64
3 33 65 64
3 33 2 65
3 2 34 65
3 34 35 66
3 35 67 66
3 35 36 67
3 36 68 67
3 36 37 68
3 37 69 68
3 37 38 69
3 38 70 69
3 38 39 70
3 39 71 70
3 39 40 71
3 40 72 71
3 40 41 72
3 41 73 72
3 41 42 73
3 42 74 73
3 42 43 74
3 43 75 74
3 43 44 75
3 44 76 75
3 44 45 76
3 45 77 76
3 45 46 77
3 46 78 77
3 46 47 78
3 47 79 78
3 47 48 79
3 48 80 79
3 48 49 80
3 49 81 80
3 49 50 81
3 50 82 81
3 50 51 82
3 51 83 82
3 51 52 83
3 52 84 83
3 52 53 84
3 53 85 84
3 53 54 85
3 54 86 85
3 54 55 86
3 55 87 86
3 55 56 87
3 56 88 87
3 56 57 88
3 57 89 88
3 57 58 89
3 58 90 89
3 58 59 90
3 59 91 90
3 59 60 91
3 60 92 91
3 60 61 92
3 61 93 92
3 61 62 93
3 62 94 93
3 62 63 94
3 63 95 94
3 63 64 95
3 64 96 95
3 64 65 96
3 65 97 96
3 65 34 97
3 34 66 97
3 66 67 98
3 67 99 98
3 67 68 99
3 68 100 99
3 68 69 100
3 69 101 100
3 69 70 101
3 70 102 101
3 70 71 102
3 71 103 102
3 71 72 103
3 72 104 103
3 72 73 104
3 73 105 104
3 73 74 105
3 74 106 105
3 74 75 106
3 75 107 106
3 75 76 107
3 76 108 107
3 76 77 108
3 77 109 108
3 77 78 109
3 78 110 109
3 78 79 110
3 79 111 110
3 79 80 111
3 80 112 111
3 80 81 112
3 81 113 112
3 81 82 113
3 82 114 113
3 82 83 114
3 83 115 114
3 83 84 115
3 84 116 115
3 84 85 116
3 85 117 116
3 85 86 117
3 86 118 117
3 86 87 118
3 87 119 118
3 87 88 119
3 88 120 119
3 88 89 120
3 89 121 120
3 89 90 121
3 90 122 121
3 90 91 122
3 91 123 122
3 91 92 123
3 92 124 123
3 92 93 124
3 93 125 124
3 93 94 125
3 94 126 125
3 94 95 126
3 95 127 126
3 95 96 127
3 96 128 127
3 96 97 128
3 97 129 128
3 97 66 129
3 66 98 129
3 98 99 130
3 99 131 130
3 99 100 131
3 100 132 131
3 100 101 132
3 101 133 132
3 101 102 133
3 102 134 133
3 102 103 134
3 103 135 134
3 103 104 135
3 104 136 135
3 104 105 136
3 105 137 136
3 105 106 137
3 106 138 137
3 106 107 138
3 107 139 138
3 107 108 139
3 108 140 139
3 108 109 140
3 109 141 140
3 109 110 141
3 110 142 141
3 110 111 142
3 111 143 142
3 111 112 143
3 112 144 143
3 112 113 144
3 113 145 144
3 113 114 145
3 114 146 145
3 114 115 146
3 115 147 146
3 115 116 147
3 116 148 147
3 116 117 148
3 117 149 148
3 117 118 149
3 118 150 149
3 118 119 150
3 119 151 150
3 119 120 151
3 120 152 151
3 120 121 152
3 121 153 152
3 121 122 153
3 122 154 153
3 122 123 154
3 123 155 154
3 123 124 155
3 124 156 155
3 124 125 156
3 125 157 156
3 125 126 157
3 126 158 157
3 126 127 158
3 127 159 158
3 127 128 159
3 128 160 159
3 128 129 160
3 129 161 160
3 129 98 161
3 98 130 161
3 130 131 162
3 131 163 162
3 131 132 163
3 132 164 163
3 132 133 164
3 133 165 164
3 133 134 165
3 134 166 165
3 134 135 166
3 135 167 166
3 135 136 167
3 136 168 167
3 136 137 168
3 137 169 168
3 137 138 169
3 138 170 169
3 138 139 170
3 139 171 170
3 139 140 171
3 140 172 171
3 140 141 172
3 141 173 172
3 141 142 173
3 142 174 173
3 142 143 174
3 143 175 174
3 143 144 175
3 144 176 175
3 144 145 176
3 145 177 176
3 145 146 177
3 146 178 177
3 146 147 178
3 147 179 178
3 147 148 179
3 148 180 179
3 148 149 180
3 149 181 180
3 149 150 181
3 150 182 181
3 150 151 182
3 151 183 182
3 151 152 183
3 152 184 183
3 152 153 184
3 153 185 184
3 153 154 185
3 154 186 185
3 154 155 186
3 155 187 186
3 155 156 187
3 156 188 187
3 156 157 188
3 157 189 188
3 157 158 189
3 158 190 189
3 158 159 190
3 159 191 190
3 159 160 191
3 160 192 191
3 160 161 192
3 161 193 192
3 161 130 193
3 130 162 193
3 162 163 194
3 163 195 194
3 163 164 195
3 164 196 195
3 164 165 196
3 165 197 196
3 165 166 197
3 166 198 197
3 166 167 198
3 167 199 198
3 167 168 199
3 168 200 199
3 168 169 200
3 169 201 200
3 169 170 201
3 170 202 201
3 170 171 202
3 171 203 202
3 171 172 203
3 172 204 203
3 172 173 204
3 173 205 204
3 173 174 205
3 174 206 205
3 174 175 206
3 175 207 206
3 175 176 207
3 176 208 207
3 176 177 208
3 177 209 208
3 177 178 209
3 178 210 209
3 178 179 210
3 179 211 210
3 179 180 211
3 180 212 211
3 180 181 212
3 181 213 212
3 181 182 213
3 182 214 213
3 182 183 214
3 183 215 214
3 183 184 215
3 184 216 215
3 184 185 216
3 185 217 216
3 185 186 217
3 186 218 217
3 186 187 218
3 187 219 218
3 187 188 219
3 188 220 219
3 188 189 220
3 189 221 220
3 189 190 221
3 190 222 221
3 190 191 222
3 191 223 222
3 191 192 223
3 192 224 223
3 192 193 224
3 193 225 224
3 193 162 225
3 162 194 225
3 194 195 226
3 195 227 226
3 195 196 227
3 196 228 227
3 196 197 228
3 197 229 228
3 197 198 229
3 198 230 229
3 198 199 230
3 199 231 230
3 199 200 231
3 200 232 231
3 200 201 232
3 201 233 232
3 201 202 233
3 202 234 233
3 202 203 234
3 203 235 234
3 203 204 235
3 204 236 235
3 204 205 236
3 205 237 236
3 205 206 237
3 206 238 237
3 206 207 238
3 207 239 238
3 207 208 239
3 208 240 239
3 208 209 240
3 209 241 240
3 209 210 241
3 210 242 241
3 210 211 242
3 211 243 242
3 211 212 243
3 212 244 243
3 212 213 244
3 213 245 244
3 213 214 245
3 214 246 245
3 214 215 246
3 215 247 246
3 215 216 247
3 216 248 247
3 216 217 248
3 217 249 248
3 217 218 249
3 218 250 249
3 218 219 250
3 219 251 250
3 219 220 251
3 220 252 251
3 220 221 252
3 221 253 252
3 221 222 253
3 222 254 253
3 222 223 254
3 223 255 254
3 223 224 255
3 224 256 255
3 224 225 256
3 225 257 256
3 225 194 257
3 194 226 257
3 226 227 258
3 227 259 258
3 227 228 259
3 228 260 259
3 228 229 260
3 229 261 260
3 229 230 261
3 230 262 261
3 230 231 262
3 231 263 262
3 231 232 263
3 232 264 263
3 232 233 264
3 233 265 264
3 233 234 265
3 234 266 265
3 234 235 266
3 235 267 266
3 235 236 267
3 236 268 267
3 236 237 268
3 237 269 268
3 237 238 269
3 238 270 269
3 238 239 270
3 239 271 270
3 239 240 271
3 240 272 271
3 240 241 272
3 241 273 272
3 241 242 273
3 242 274 273
3 242 243 274
3 243 275 274
3 243 244 275
3 244 276 275
3 244 245 276
3 245 277 276
3 245 246 277
3 246 278 277
3 246 247 278
3 247 279 278
3 247 248 279
3 248 280 279
3 248 249 280
3 249 281 280
3 249 250 281
3 250 282 281
3 250 251 282
3 251 283 282
3 251 252 283
3 252 284 283
3 252 253 284
3 253 285 284
3 253 254 285
3 254 286 285
3 254 255 286
3 255 287 286
3 255 256 287
3 256 288 287
3 256 257 288
3 257 289 288
3 257 226 289
3 226 258 289
3 258 259 290
3 259 291 290
3 259 260 291
3 260 292 291
3 260 261 292
3 261 293 292
3 261 262 293
3 262 294 293
3 262 263 294
3 263 295 294
3 263 264 295
3 264 296 295
3 264 265 296
3 265 297 296
3 265 266 297
3 266 298 297
3 266 267 298
3 267 299 298
3 267 268 299
3 268 300 299
3 268 269 300
3 269 301 300
3 269 270 301
3 270 302 301
3 270 271 302
3 271 303 302
3 271 272 303
3 272 304 303
3 272 273 304
3 273 305 304
3 273 274 305
3 274 306 305
3 274 275 306
3 275 307 306
3 275 276 307
3 276 308 307
3 276 277 308
3 277 309 308
3 277 278 309
3 278 310 309
3 278 279 310
3 279 311 310
3 279 280 311
3 280 312 311
3 280 281 312
3 281 313 312
3 281 282 313
3 282 314 313
3 282 283 314
3 283 315 314
3 283 284 315
3 284 316 315
3 284 285 316
3 285 317 316
3 285 286 317
3 286 318 317
3 286 287 318
3 287 319 318
3 287 288 319
3 288 320 319
3 288 289 320
3 289 321 320
3 289 258 321
3 258 290 321
3 290 291 322
3 291 323 322
3 291 292 323
3 292 324 323
3 292 293 324
3 293 325 324
3 293 294 325
3 294 326 325
3 294 295 326
3 295 327 326
3 295 296 327
3 296 328 327
3 296 297 328
3 297 329 328
3 297 298 329
3 298 330 329
3 298 299 330
3 299 331 330
3 299 300 331
3 300 332 331
3 300 301 332
3 301 333 332
3 301 302 333
3 302 334 333
3 302 303 334
3 303 335 334
3 303 304 335
3 304 336 335
3 304 305 336
3 305 337 336
3 305 306 337
3 306 338 337
3 306 307 338
3 307 339 338
3 307 308 339
3 308 340 339
3 308 309 340
3 309 341 340
3 309 310 341
3 310 342 341
3 310 311 342
3 311 343 342
3 311 312 343
3 312 344 343
3 312 313 344
3 313 345 344
3 313 314 345
3 314 346 345
3 314 315 346
3 315 347 346
3 315 316 347
3 316 348 347
3 316 317 348
3 317 349 348
3 317 318 349
3 318 350 349
3 318 319 350
3 319 351 350
3 319 320 351
3 320 352 351
3 320 321 352
3 321 353 352
3 321 290 353
3 290 322 353
3 322 323 354
3 323 355 354
3 323 324 355
3 324 356 355
3 324 325 356
3 325 357 356
3 325 326 357
3 326 358 357
3 326 327 358
3 327 359 358
3 327 328 359
3 328 360 359
3 328 329 360
3 329 361 360
3 329 330 361
3 330 362 361
3 330 331 362
3 331 363 362
3 331 332 363
3 332 364 363
3 332 333 364
3 333 365 364
3 333 334 365
3 334 366 365
3 334 335 366
3 335 367 366
3 335 336 367
3 336 368 367
3 336 337 368
3 337 369 368
3 337 338 369
3 338 370 369
3 338 339 370
3 339 371 370
3 339 340 371
3 340 372 371
3 340 341 372
3 341 373 372
3 341 342 373
3 342 374 373
3 342 343 374
3 343 375 374
3 343 344 375
3 344 376 375
3 344 345 376
3 345 377 376
3 345 346 377
3 346 378 377
3 346 347 378
3 347 379 378
3 347 348 379
3 348 380 379
3 348 349 380
3 349 381 380
3 349 350 381
3 350 382 381
3 350 351 382
3 351 383 382
3 351 352 383
3 352 384 383
3 352 353 384
3 353 385 384
3 353 322 385
3 322 354 385
3 354 355 386
3 355 387 386
3 355 356 387
3 356 388 387
3 356 357 388
3 357 389 388
3 357 358 389
3 358 390 389
3 358 359 390
3 359 391 390
3 359 360 391
3 360 392 391
3 360 361 392
3 361 393 392
3 361 362 393
3 362 394 393
3 362 363 394
3 363 395 394
3 363 364 395
3 364 396 395
3 364 365 396
3 365 397 396
3 365 366 397
3 366 398 397
3 366 367 398
3 367 399 398
3 367 368 399
3 368 400 399
3 368 369 400
3 369 401 400
3 369 370 401
3 370 402 401
3 370 371 402
3 371 403 402
3 371 372 403
3 372 404 403
3 372 373 404
3 373 405 404
3 373 374 405
3 374 406 405
3 374 375 406
3 375 407 406
3 375 376 407
3 376 408 407
3 376 377 408
3 377 409 408
3 377 378 409
3 378 410 409
3 378 379 410
3 379 411 410
3 379 380 411
3 380 412 411
3 380 381 412
3 381 413 412
3 381 382 413
3 382 414 413
3 382 383 414
3 383 415 414
3 383 384 415
3 384 416 415
3 384 385 416
3 385 417 416
3 385 354 417
3 354 386 417
3 386 387 418
3 387 419 418
3 387 388 419
3 388 420 419
3 388 389 420
3 389 421 420
3 389 390 421
3 390 422 421
3 390 391 422
3 391 423 422
3 391 392 423
3 392 424 423
3 392 393 424
3 393 425 424
3 393 394 425
3 394 426 425
3 394 395 426
3 395 427 426
3 395 396 427
3 396 428 427
3 396 397 428
3 397 429 428
3 397 398 429
3 398 430 429
3 398 399 430
3 399 431 430
3 399 400 431
3 400 432 431
3 400 401 432
3 401 433 432
3 401 402 433
3 402 434 433
3 402 403 434
3 403 435 434
3 403 404 435
3 404 436 435
3 404 405 436
3 405 437 436
3 405 406 437
3 406 438 437
3 406 407 438
3 407 439 438
3 407 408 439
3 408 440 439
3 408 409 440
3 409 441 440
3 409 410 441
3 410 442 441
3 410 411 442
3 411 443 442
3 411 412 443
3 412 444 443
3 412 413 444
3 413 445 444
3 413 414 445
3 414 446 445
3 414 415 446
3 415 447 446
3 415 416 447
3 416 448 447
3 416 417 448
3 417 449 448
3 417 386 449
3 386 418 449
3 418 419 450
3 419 451 450
3 419 420 451
3 420 452 451
3 420 421 452
3 421 453 452
3 421 422 453
3 422 454 453
3 422 423 454
3 423 455 454
3 423 424 455
3 424 456 455
3 424 425 456
3 425 457 456
3 425 426 457
3 426 458 457
3 426 427 458
3 427 459 458
3 427 428 459
3 428 460 459
3 428 429 460
3 429 461 460
3 429 430 461
3 430 462 461
3 430 431 462
3 431 463 462
3 431 432 463
3 432 464 463
3 432 433 464
3 433 465 464
3 433 434 465
3 434 466 465
3 434 435 466
3 435 467 466
3 435 436 467
3 436 468 467
3 436 437 468
3 437 469 468
3 437 438 469
3 438 470 469
3 438 439 470
3 439 471 470
3 439 440 471
3 440 472 471
3 440 441 472
3 441 473 472
3 441 442 473
3 442 474 473
3 442 443 474
3 443 475 474
3 443 444 475
3 444 476 475
3 444 445 476
3 445 477 476
3 445 446 477
3 446 478 477
3 446 447 478
3 447 479 478
3 447 448 479
3 448 480 479
3 448 449 480
3 449 481 480
3 449 418 481
3 418 450 481
3 450 451 482
3 451 483 482
3 451 452 483
3 452 484 483
3 452 453 484
3 453 485 484
3 453 454 485
3 454 486 485
3 454 455 486
3 455 487 486
3 455 456 487
3 456 488 487
3 456 457 488
3 457 489 488
3 457 458 489
3 458 490 489
3 458 459 490
3 459 491 490
3 459 460 491
3 460 492 491
3 460 461 492
3 461 493 492
3 461 462 493
3 462 494 493
3 462 463 494
3 463 495 494
3 463 464 495
3 464 496 495
3 464 465 496
3 465 497 496
3 465 466 497
3 466 498 497
3 466 467 498
3 467 499 498
3 467 468 499
3 468 500 499
3 468 469 500
3 469 501 500
3 469 470 501
3 470 502 501
3 470 471 502
3 471 503 502
3 471 472 503
3 472 504 503
3 472 473 504
3 473 505 504
3 473 474 505
3 474 506 505
3 474 475 506
3 475 507 506
3 475 476 507
3 476 508 507
3 476 477 508
3 477 509 508
3 477 478 509
3 478 510 509
3 478 479 510
3 479 511 510
3 479 480 511
3 480 512 511
3 480 481 512
3 481 513 512
3 481 450 513
3 450 482 513
3 482 483 514
3 483 515 514
3 483 484 515
3 484 516 515
3 484 485 516
3 485 517 516
3 485 486 517
3 486 518 517
3 486 487 518
3 487 519 518
3 487 488 519
3 488 520 519
3 488 489 520
3 489 521 520
3 489 490 521
3 490 522 521
3 490 491 522
3 491 523 522
3 491 492 523
3 492 524 523
3 492 493 524
3 493 525 524
3 493 494 525
3 494 526 525
3 494 495 526
3 495 527 526
3 495 496 527
3 496 528 527
3 496 497 528
3 497 529 528
3 497 498 529
3 498 530 529
3 498 499 530
3 499 531 530
3 499 500 531
3 500 532 531
3 500 501 532
3 501 533 532
3 501 502 533
3 502 534 533
3 502 503 534
3 503 535 534
3 503 504 535
3 504 536 535
3 504 505 536
3 505 537 536
3 505 506 537
3 506 538 537
3 506 507 538
3 507 539 538
3 507 508 539
3 508 540 539
3 508 509 540
3 509 541 540
3 509 510 541
3 510 542 541
3 510 511 542
3 511 543 542
3 511 512 543
3 512 544 543
3 512 513 544
3 513 545 544
3 513 482 545
3 482 514 545
