OFF
208 412 0
32.7351989746 19.1411724091 0.0000000000
32.5138206482 22.5335426331 0.0000000000
32.5430870056 22.6292648315 0.0000000000
47.8284263611 39.0784263611 12.0000000000
48.4640998840 34.2500000000 12.0000000000
48.4640998840 38.2500000000 12.0000000000
57.4569129944 22.6292648315 2.0000000000
50.6771240234 42.8974609375 2.0000000000
49.8081550598 44.1840934753 2.0000000000
39.2409324646 42.7148742676 2.0000000000
39.2069129944 42.6207351685 0.0000000000
39.2069129944 42.6207351685 2.0000000000
39.3228759766 42.8974609375 2.0000000000
40.1918449402 44.1840934753 0.0000000000
39.3228759766 42.8974609375 0.0000000000
40.1918449402 44.1840934753 2.0000000000
41.3461074829 45.2224578857 0.0000000000
41.3461074829 45.2224578857 2.0000000000
42.7171821594 45.9509429932 0.0000000000
42.7171821594 45.9509429932 2.0000000000
44.2237052917 46.3263244629 0.0000000000
44.2237052917 46.3263244629 2.0000000000
45.7762947083 46.3263244629 0.0000000000
45.7762947083 46.3263244629 2.0000000000
47.2828178406 45.9509429932 0.0000000000
47.2828178406 45.9509429932 2.0000000000
48.6538925171 45.2224578857 0.0000000000
48.6538925171 45.2224578857 2.0000000000
49.8081550598 44.1840934753 0.0000000000
50.6771240234 42.8974609375 0.0000000000
50.7203788757 42.8071937561 0.0000000000
50.7930870056 42.6207351685 2.0000000000
57.4569129944 22.6292648315 0.0000000000
50.7930870056 42.6207351685 0.0000000000
57.5301742554 22.3383045197 2.0000000000
57.5106201172 22.4364738464 0.0000000000
57.5106201172 22.4364738464 2.0000000000
57.6019325256 20.7227687836 0.0000000000
57.5301742554 22.3383045197 0.0000000000
57.6019325256 20.7227687836 2.0000000000
57.2648010254 19.1411724091 0.0000000000
57.2648010254 19.1411724091 2.0000000000
56.5404891968 17.6953239441 0.0000000000
56.5404891968 17.6953239441 2.0000000000
55.4756202698 16.4782981873 0.0000000000
55.4756202698 16.4782981873 2.0000000000
54.1387367249 15.5684337616 0.0000000000
54.1387367249 15.5684337616 2.0000000000
52.6159019470 15.0243024826 0.0000000000
52.6159019470 15.0243024826 2.0000000000
51.0051422119 14.8809309006 0.0000000000
51.0051422119 14.8809309006 2.0000000000
49.4101448059 15.1475467682 0.0000000000
49.4101448059 15.1475467682 2.0000000000
47.9335823059 15.8069896698 0.0000000000
47.9335823059 15.8069896698 2.0000000000
46.6705017090 16.8168087006 0.0000000000
46.6705017090 16.8168087006 2.0000000000
46.3648223877 17.0750255585 0.0000000000
46.0138587952 17.2672214508 2.0000000000
46.2522048950 17.1468639374 0.0000000000
46.2522048950 17.1468639374 2.0000000000
45.7616043091 17.3547573090 2.0000000000
45.6316566467 17.3857059479 0.0000000000
45.7616043091 17.3547573090 0.0000000000
45.2335205078 17.4257354736 2.0000000000
44.7664794922 17.4257354736 0.0000000000
45.2335205078 17.4257354736 0.0000000000
44.7664794922 17.4257354736 2.0000000000
44.3683433533 17.3857059479 0.0000000000
43.9861412048 17.2672214508 2.0000000000
44.2383956909 17.3547573090 0.0000000000
44.2383956909 17.3547573090 2.0000000000
43.7477951050 17.1468639374 2.0000000000
43.6351776123 17.0750255585 0.0000000000
43.7477951050 17.1468639374 0.0000000000
43.3294982910 16.8168087006 2.0000000000
42.0664176941 15.8069896698 0.0000000000
43.3294982910 16.8168087006 0.0000000000
42.0664176941 15.8069896698 2.0000000000
40.5898551941 15.1475467682 0.0000000000
40.5898551941 15.1475467682 2.0000000000
38.9948577881 14.8809309006 0.0000000000
38.9948577881 14.8809309006 2.0000000000
37.3840980530 15.0243024826 0.0000000000
37.3840980530 15.0243024826 2.0000000000
35.8612632751 15.5684337616 0.0000000000
35.8612632751 15.5684337616 2.0000000000
34.5243797302 16.4782981873 0.0000000000
34.5243797302 16.4782981873 2.0000000000
33.4595108032 17.6953239441 0.0000000000
33.4595108032 17.6953239441 2.0000000000
32.7351989746 19.1411724091 2.0000000000
32.3980674744 20.7227687836 0.0000000000
32.3980674744 20.7227687836 2.0000000000
32.4698257446 22.3383045197 0.0000000000
32.4698257446 22.3383045197 2.0000000000
32.4893798828 22.4364738464 0.0000000000
32.5430870056 22.6292648315 2.0000000000
41.0000000000 36.2500000000 2.0000000000
41.1362953186 35.2147254944 12.0000000000
41.0000000000 36.2500000000 12.0000000000
41.1362953186 37.2852745056 2.0000000000
41.5359001160 38.2500000000 12.0000000000
41.5359001160 38.2500000000 2.0000000000
41.1362953186 37.2852745056 12.0000000000
41.1362953186 35.2147254944 2.0000000000
41.5359001160 34.2500000000 12.0000000000
41.5359001160 34.2500000000 2.0000000000
42.1715736389 33.4215736389 12.0000000000
42.1715736389 33.4215736389 2.0000000000
43.0000000000 32.7859001160 12.0000000000
43.0000000000 32.7859001160 2.0000000000
43.9647254944 32.3862953186 12.0000000000
43.9647254944 32.3862953186 2.0000000000
45.0000000000 32.2500000000 12.0000000000
45.0000000000 32.2500000000 2.0000000000
46.0352745056 32.3862953186 12.0000000000
46.0352745056 32.3862953186 2.0000000000
47.0000000000 32.7859001160 12.0000000000
47.0000000000 32.7859001160 2.0000000000
47.8284263611 33.4215736389 12.0000000000
47.8284263611 33.4215736389 2.0000000000
48.4640998840 34.2500000000 2.0000000000
48.8637046814 35.2147254944 12.0000000000
48.8637046814 35.2147254944 2.0000000000
49.0000000000 36.2500000000 12.0000000000
49.0000000000 36.2500000000 2.0000000000
48.8637046814 37.2852745056 12.0000000000
48.8637046814 37.2852745056 2.0000000000
48.4640998840 38.2500000000 2.0000000000
47.8284263611 39.0784263611 2.0000000000
47.0000000000 39.7140998840 12.0000000000
47.0000000000 39.7140998840 2.0000000000
46.0352745056 40.1137046814 12.0000000000
46.0352745056 40.1137046814 2.0000000000
45.0000000000 40.2500000000 12.0000000000
45.0000000000 40.2500000000 2.0000000000
43.9647254944 40.1137046814 12.0000000000
43.9647254944 40.1137046814 2.0000000000
43.0000000000 39.7140998840 12.0000000000
43.0000000000 39.7140998840 2.0000000000
42.1715736389 39.0784263611 12.0000000000
42.1715736389 39.0784263611 2.0000000000
42.7000007629 36.2500000000 12.0000000000
42.7783699036 35.6547164917 16.0000000000
42.7000007629 36.2500000000 16.0000000000
42.7783699036 36.8452835083 12.0000000000
43.0081405640 37.4000015259 16.0000000000
43.0081405640 37.4000015259 12.0000000000
42.7783699036 36.8452835083 16.0000000000
42.7783699036 35.6547164917 12.0000000000
43.0081405640 35.0999984741 16.0000000000
43.0081405640 35.0999984741 12.0000000000
43.3736534119 34.6236534119 16.0000000000
43.3736534119 34.6236534119 12.0000000000
43.8499984741 34.2581405640 16.0000000000
43.8499984741 34.2581405640 12.0000000000
44.4047164917 34.0283699036 16.0000000000
44.4047164917 34.0283699036 12.0000000000
45.0000000000 33.9500007629 16.0000000000
45.0000000000 33.9500007629 12.0000000000
45.5952835083 34.0283699036 16.0000000000
45.5952835083 34.0283699036 12.0000000000
46.1500015259 34.2581405640 16.0000000000
46.1500015259 34.2581405640 12.0000000000
46.6263465881 34.6236534119 16.0000000000
46.6263465881 34.6236534119 12.0000000000
46.9918594360 35.0999984741 16.0000000000
46.9918594360 35.0999984741 12.0000000000
47.2216300964 35.6547164917 16.0000000000
47.2216300964 35.6547164917 12.0000000000
47.2999992371 36.2500000000 16.0000000000
47.2999992371 36.2500000000 12.0000000000
47.2216300964 36.8452835083 16.0000000000
47.2216300964 36.8452835083 12.0000000000
46.9918594360 37.4000015259 16.0000000000
46.9918594360 37.4000015259 12.0000000000
46.6263465881 37.8763465881 16.0000000000
46.6263465881 37.8763465881 12.0000000000
46.1500015259 38.2418594360 16.0000000000
46.1500015259 38.2418594360 12.0000000000
45.5952835083 38.4716300964 16.0000000000
45.5952835083 38.4716300964 12.0000000000
45.0000000000 38.5499992371 16.0000000000
45.0000000000 38.5499992371 12.0000000000
44.4047164917 38.4716300964 16.0000000000
44.4047164917 38.4716300964 12.0000000000
43.8499984741 38.2418594360 16.0000000000
43.8499984741 38.2418594360 12.0000000000
43.3736534119 37.8763465881 16.0000000000
43.3736534119 37.8763465881 12.0000000000
39.2796211243 42.8071937561 2.0000000000
32.5138206482 22.5335426331 2.0000000000
32.4893798828 22.4364738464 2.0000000000
57.4861793518 22.5335426331 2.0000000000
45.6316566467 17.3857059479 2.0000000000
46.3648223877 17.0750255585 2.0000000000
44.3683433533 17.3857059479 2.0000000000
43.6351776123 17.0750255585 2.0000000000
50.7590675354 42.7148742676 2.0000000000
50.7203788757 42.8071937561 2.0000000000
39.2409324646 42.7148742676 0.0000000000
39.2796211243 42.8071937561 0.0000000000
50.7590675354 42.7148742676 0.0000000000
57.4861793518 22.5335426331 0.0000000000
46.0138587952 17.2672214508 0.0000000000
43.9861412048 17.2672214508 0.0000000000
3 0 1 2
3 3 4 5
3 6 7 8
3 9 10 11
3 12 13 14
3 15 16 13
3 17 18 16
3 19 20 18
3 21 22 20
3 23 24 22
3 25 26 24
3 27 28 26
3 8 29 28
3 7 30 29
3 31 32 33
3 34 35 36
3 34 37 38
3 39 40 37
3 41 42 40
3 43 44 42
3 45 46 44
3 47 48 46
3 49 50 48
3 51 52 50
3 53 54 52
3 55 56 54
3 57 58 56
3 59 60 61
3 62 63 64
3 65 66 67
3 68 69 66
3 70 71 72
3 73 74 75
3 76 77 78
3 79 80 77
3 81 82 80
3 83 84 82
3 85 86 84
3 87 88 86
3 89 90 88
3 91 0 90
3 92 93 0
3 94 95 93
3 96 97 95
3 98 10 2
3 99 100 101
3 102 103 104
3 99 105 102
3 106 107 100
3 108 109 107
3 110 111 109
3 112 113 111
3 114 115 113
3 116 117 115
3 118 119 117
3 120 121 119
3 122 4 121
3 123 124 4
3 125 126 124
3 127 128 126
3 129 5 128
3 130 3 5
3 131 132 3
3 133 134 132
3 135 136 134
3 137 138 136
3 139 140 138
3 141 142 140
3 143 103 142
3 144 145 146
3 147 148 149
3 144 150 147
3 151 152 145
3 153 154 152
3 155 156 154
3 157 158 156
3 159 160 158
3 161 162 160
3 163 164 162
3 165 166 164
3 167 168 166
3 169 170 168
3 171 172 170
3 173 174 172
3 175 176 174
3 177 178 176
3 179 180 178
3 181 182 180
3 183 184 182
3 185 186 184
3 187 188 186
3 189 190 188
3 191 148 190
3 121 4 3
3 121 3 173
3 121 173 171
3 121 171 169
3 121 169 167
3 121 167 165
3 121 165 163
3 121 163 161
3 121 161 117
3 121 117 119
3 117 161 115
3 159 115 161
3 115 159 113
3 157 113 159
3 113 157 155
3 153 151 111
3 153 111 113
3 153 113 155
3 144 147 140
3 144 140 142
3 144 142 111
3 144 111 151
3 142 103 107
3 142 107 109
3 142 109 111
3 105 101 100
3 105 100 107
3 105 107 103
3 128 5 4
3 128 4 124
3 128 124 126
3 179 177 132
3 175 132 177
3 132 175 3
3 173 3 175
3 187 185 136
3 183 136 185
3 136 183 134
3 181 134 183
3 134 181 132
3 179 132 181
3 138 140 149
3 138 149 191
3 138 191 189
3 138 189 187
3 138 187 136
3 140 147 149
3 131 130 27
3 129 27 130
3 27 129 8
3 127 8 129
3 8 127 6
3 125 6 127
3 6 125 123
3 25 23 135
3 25 135 133
3 25 133 131
3 25 131 27
3 141 139 21
3 137 21 139
3 21 137 23
3 135 23 137
3 19 17 104
3 19 104 143
3 19 143 141
3 19 141 21
3 12 81 15
3 99 15 81
3 15 99 17
3 102 17 99
3 17 102 104
3 81 12 192
3 81 192 9
3 81 9 11
3 81 11 83
3 11 98 92
3 11 92 91
3 11 91 89
3 11 89 87
3 11 87 85
3 11 85 83
3 92 98 193
3 92 193 194
3 92 194 96
3 92 96 94
3 39 34 36
3 39 36 195
3 39 195 6
3 39 6 41
3 6 123 122
3 6 122 120
3 6 120 118
3 6 118 116
3 6 116 65
3 6 65 196
3 6 196 62
3 6 62 59
3 6 59 61
3 6 61 197
3 6 197 57
3 6 57 55
3 6 55 53
3 6 53 51
3 6 51 49
3 6 49 47
3 6 47 45
3 6 45 43
3 6 43 41
3 116 114 70
3 116 70 72
3 116 72 198
3 116 198 68
3 116 68 65
3 114 112 76
3 114 76 199
3 114 199 73
3 114 73 70
3 110 108 79
3 110 79 76
3 110 76 112
3 79 108 106
3 79 106 99
3 79 99 81
3 6 31 200
3 6 200 201
3 6 201 7
3 10 9 202
3 192 202 9
3 202 192 203
3 12 203 192
3 203 12 14
3 12 15 13
3 15 17 16
3 17 19 18
3 19 21 20
3 21 23 22
3 23 25 24
3 25 27 26
3 27 8 28
3 8 7 29
3 7 201 200
3 7 200 31
3 7 31 33
3 7 33 204
3 7 204 30
3 31 6 32
3 205 32 6
3 205 6 195
3 205 195 36
3 205 36 35
3 34 38 35
3 34 39 37
3 39 41 40
3 41 43 42
3 43 45 44
3 45 47 46
3 47 49 48
3 49 51 50
3 51 53 52
3 53 55 54
3 55 57 56
3 57 197 61
3 57 61 60
3 57 60 58
3 59 62 64
3 59 64 206
3 59 206 60
3 62 196 65
3 62 65 67
3 62 67 63
3 65 68 66
3 68 198 72
3 68 72 71
3 68 71 69
3 70 73 75
3 70 75 207
3 70 207 71
3 73 199 76
3 73 76 78
3 73 78 74
3 76 79 77
3 79 81 80
3 81 83 82
3 83 85 84
3 85 87 86
3 87 89 88
3 89 91 90
3 91 92 0
3 92 94 93
3 94 96 95
3 96 194 193
3 96 193 98
3 96 98 2
3 96 2 1
3 96 1 97
3 98 11 10
3 99 106 100
3 102 105 103
3 99 101 105
3 106 108 107
3 108 110 109
3 110 112 111
3 112 114 113
3 114 116 115
3 116 118 117
3 118 120 119
3 120 122 121
3 122 123 4
3 123 125 124
3 125 127 126
3 127 129 128
3 129 130 5
3 130 131 3
3 131 133 132
3 133 135 134
3 135 137 136
3 137 139 138
3 139 141 140
3 141 143 142
3 143 104 103
3 144 151 145
3 147 150 148
3 144 146 150
3 151 153 152
3 153 155 154
3 155 157 156
3 157 159 158
3 159 161 160
3 161 163 162
3 163 165 164
3 165 167 166
3 167 169 168
3 169 171 170
3 171 173 172
3 173 175 174
3 175 177 176
3 177 179 178
3 179 181 180
3 181 183 182
3 183 185 184
3 185 187 186
3 187 189 188
3 189 191 190
3 191 149 148
3 37 40 32
3 37 32 205
3 37 205 35
3 37 35 38
3 32 40 42
3 32 42 44
3 32 44 46
3 32 46 48
3 32 48 50
3 32 50 33
3 50 52 28
3 50 28 29
3 50 29 30
3 50 30 204
3 50 204 33
3 28 52 26
3 54 26 52
3 26 54 24
3 56 24 54
3 24 56 58
3 58 60 24
3 206 24 60
3 24 206 22
3 64 22 206
3 22 64 63
3 22 63 67
3 22 67 66
3 22 66 69
3 22 69 71
3 22 71 20
3 20 71 207
3 20 207 75
3 20 75 74
3 20 74 78
3 20 78 18
3 14 13 80
3 16 80 13
3 80 16 77
3 18 77 16
3 77 18 78
3 80 82 10
3 80 10 202
3 80 202 203
3 80 203 14
3 10 82 84
3 10 84 86
3 10 86 88
3 10 88 90
3 10 90 0
3 10 0 2
3 0 93 95
3 0 95 97
3 0 97 1
3 172 174 176
3 172 176 178
3 172 178 180
3 172 180 182
3 172 182 184
3 172 184 186
3 172 186 188
3 172 188 190
3 172 190 148
3 172 148 150
3 172 150 146
3 172 146 145
3 172 145 152
3 172 152 154
3 172 154 156
3 172 156 158
3 172 158 160
3 172 160 162
3 172 162 164
3 172 164 166
3 172 166 168
3 172 168 170
