OFF
74 144 0
0.000000 0.000000 10.000000
0.000000 0.000000 -10.000000
4.000000 0.000000 -10.000000
2.828427 2.828427 -10.000000
0.000000 4.000000 -10.000000
-2.828427 2.828427 -10.000000
-4.000000 0.000000 -10.000000
-2.828427 -2.828427 -10.000000
-0.000000 -4.000000 -10.000000
2.828427 -2.828427 -10.000000
3.043291 0.000000 -7.500000
2.151932 2.151932 -7.500000
0.000000 3.043291 -7.500000
-2.151932 2.151932 -7.500000
-3.043291 0.000000 -7.500000
-2.151932 -2.151932 -7.500000
-0.000000 -3.043291 -7.500000
2.151932 -2.151932 -7.500000
2.232233 0.000000 -5.000000
1.578427 1.578427 -5.000000
0.000000 2.232233 -5.000000
-1.578427 1.578427 -5.000000
-2.232233 0.000000 -5.000000
-1.578427 -1.578427 -5.000000
-0.000000 -2.232233 -5.000000
1.578427 -1.578427 -5.000000
1.690301 0.000000 -2.500000
1.195223 1.195223 -2.500000
0.000000 1.690301 -2.500000
-1.195223 1.195223 -2.500000
-1.690301 0.000000 -2.500000
-1.195223 -1.195223 -2.500000
-0.000000 -1.690301 -2.500000
1.195223 -1.195223 -2.500000
1.500000 0.000000 0.000000
1.060660 1.060660 0.000000
0.000000 1.500000 0.000000
-1.060660 1.060660 0.000000
-1.500000 0.000000 0.000000
-1.060660 -1.060660 0.000000
-0.000000 -1.500000 0.000000
1.060660 -1.060660 0.000000
1.690301 0.000000 2.500000
1.195223 1.195223 2.500000
0.000000 1.690301 2.500000
-1.195223 1.195223 2.500000
-1.690301 0.000000 2.500000
-1.195223 -1.195223 2.500000
-0.000000 -1.690301 2.500000
1.195223 -1.195223 2.500000
2.232233 0.000000 5.000000
1.578427 1.578427 5.000000
0.000000 2.232233 5.000000
-1.578427 1.578427 5.000000
-2.232233 0.000000 5.000000
-1.578427 -1.578427 5.000000
-0.000000 -2.232233 5.000000
1.578427 -1.578427 5.000000
3.043291 0.000000 7.500000
2.151932 2.151932 7.500000
0.000000 3.043291 7.500000
-2.151932 2.151932 7.500000
-3.043291 0.000000 7.500000
-2.151932 -2.151932 7.500000
-0.000000 -3.043291 7.500000
2.151932 -2.151932 7.500000
4.000000 0.000000 10.000000
2.828427 2.828427 10.000000
0.000000 4.000000 10.000000
-2.828427 2.828427 10.000000
-4.000000 0.000000 10.000000
-2.828427 -2.828427 10.000000
-0.000000 -4.000000 10.000000
2.828427 -2.828427 10.000000
3 1 3 2
3 0 66 67
3 1 4 3
3 0 67 68
3 1 5 4
3 0 68 69
3 1 6 5
3 0 69 70
3 1 7 6
3 0 70 71
3 1 8 7
3 0 71 72
3 1 9 8
3 0 72 73
3 1 2 9
3 0 73 66
3 2 3 10
3 3 11 10
3 3 4 11
3 4 12 11
3 4 5 12
3 5 13 12
3 5 6 13
3 6 14 13
3 6 7 14
3 7 15 14
3 7 8 15
3 8 16 15
3 8 9 16
3 9 17 16
3 9 2 17
3 2 10 17
3 10 11 18
3 11 19 18
3 11 12 19
3 12 20 19
3 12 13 20
3 13 21 20
3 13 14 21
3 14 22 21
3 14 15 22
3 15 23 22
3 15 16 23
3 16 24 23
3 16 17 24
3 17 25 24
3 17 10 25
3 10 18 25
3 18 19 26
3 19 27 26
3 19 20 27
3 20 28 27
3 20 21 28
3 21 29 28
3 21 22 29
3 22 30 29
3 22 23 30
3 23 31 30
3 23 24 31
3 24 32 31
3 24 25 32
3 25 33 32
3 25 18 33
3 18 26 33
3 26 27 34
3 27 35 34
3 27 28 35
3 28 36 35
3 28 29 36
3 29 37 36
3 29 30 37
3 30 38 37
3 30 31 38
3 31 39 38
3 31 32 39
3 32 40 39
3 32 33 40
3 33 41 40
3 33 26 41
3 26 34 41
3 34 35 42
3 35 43 42
3 35 36 43
3 36 44 43
3 36 37 44
3 37 45 44
3 37 38 45
3 38 46 45
3 38 39 46
3 39 47 46
3 39 40 47
3 40 48 47
3 40 41 48
3 41 49 48
3 41 34 49
3 34 42 49
3 42 43 50
3 43 51 50
3 43 44 51
3 44 52 51
3 44 45 52
3 45 53 52
3 45 46 53
3 46 54 53
3 46 47 54
3 47 55 54
3 47 48 55
3 48 56 55
3 48 49 56
3 49 57 56
3 49 42 57
3 42 50 57
3 50 51 58
3 51 59 58
3 51 52 59
3 52 60 59
3 52 53 60
3 53 61 60
3 53 54 61
3 54 62 61
3 54 55 62
3 55 63 62
3 55 56 63
3 56 64 63
3 56 57 64
3 57 65 64
3 57 50 65
3 50 58 65
3 58 59 66
3 59 67 66
3 59 60 67
3 60 68 67
3 60 61 68
3 61 69 68
3 61 62 69
3 62 70 69
3 62 63 70
3 63 71 70
3 63 64 71
3 64 72 71
3 64 65 72
3 65 73 72
3 65 58 73
3 58 66 73
