OFF
22 40 0
0.000000 0.000000 10.000000
0.000000 0.000000 -10.000000
4.000000 0.000000 -10.000000
0.000000 4.000000 -10.000000
-4.000000 0.000000 -10.000000
-0.000000 -4.000000 -10.000000
2.232233 0.000000 -5.000000
0.000000 2.232233 -5.000000
-2.232233 0.000000 -5.000000
-0.000000 -2.232233 -5.000000
1.500000 0.000000 0.000000
0.000000 1.500000 0.000000
-1.500000 0.000000 0.000000
-0.000000 -1.500000 0.000000
2.232233 0.000000 5.000000
0.000000 2.232233 5.000000
-2.232233 0.000000 5.000000
-0.000000 -2.232233 5.000000
4.000000 0.000000 10.000000
0.000000 4.000000 10.000000
-4.000000 0.000000 10.000000
-0.000000 -4.000000 10.000000
3 1 3 2
3 0 18 19
3 1 4 3
3 0 19 20
3 1 5 4
3 0 20 21
3 1 2 5
3 0 21 18
3 2 3 6
3 3 7 6
3 3 4 7
3 4 8 7
3 4 5 8
3 5 9 8
3 5 2 9
3 2 6 9
3 6 7 10
3 7 11 10
3 7 8 11
3 8 12 11
3 8 9 12
3 9 13 12
3 9 6 13
3 6 10 13
3 10 11 14
3 11 15 14
3 11 12 15
3 12 16 15
3 12 13 16
3 13 17 16
3 13 10 17
3 10 14 17
3 14 15 18
3 15 19 18
3 15 16 19
3 16 20 19
3 16 17 20
3 17 21 20
3 17 14 21
3 14 18 21
