OFF
1058 2112 0
0.000000 0.000000 10.000000
0.000000 0.000000 -10.000000
4.000000 0.000000 -10.000000
3.923141 0.780361 -10.000000
3.695518 1.530734 -10.000000
3.325878 2.222281 -10.000000
2.828427 2.828427 -10.000000
2.222281 3.325878 -10.000000
1.530734 3.695518 -10.000000
0.780361 3.923141 -10.000000
0.000000 4.000000 -10.000000
-0.780361 3.923141 -10.000000
-1.530734 3.695518 -10.000000
-2.222281 3.325878 -10.000000
-2.828427 2.828427 -10.000000
-3.325878 2.222281 -10.000000
-3.695518 1.530734 -10.000000
-3.923141 0.780361 -10.000000
-4.000000 0.000000 -10.000000
-3.923141 -0.780361 -10.000000
-3.695518 -1.530734 -10.000000
-3.325878 -2.222281 -10.000000
-2.828427 -2.828427 -10.000000
-2.222281 -3.325878 -10.000000
-1.530734 -3.695518 -10.000000
-0.780361 -3.923141 -10.000000
-0.000000 -4.000000 -10.000000
0.780361 -3.923141 -10.000000
1.530734 -3.695518 -10.000000
2.222281 -3.325878 -10.000000
2.828427 -2.828427 -10.000000
3.325878 -2.222281 -10.000000
3.695518 -1.530734 -10.000000
3.923141 -0.780361 -10.000000
3.754957 0.000000 -9.375000
3.682807 0.732556 -9.375000
3.469128 1.436960 -9.375000
3.122133 2.086142 -9.375000
2.655156 2.655156 -9.375000
2.086142 3.122133 -9.375000
1.436960 3.469128 -9.375000
0.732556 3.682807 -9.375000
0.000000 3.754957 -9.375000
-0.732556 3.682807 -9.375000
-1.436960 3.469128 -9.375000
-2.086142 3.122133 -9.375000
-2.655156 2.655156 -9.375000
-3.122133 2.086142 -9.375000
-3.469128 1.436960 -9.375000
-3.682807 0.732556 -9.375000
-3.754957 0.000000 -9.375000
-3.682807 -0.732556 -9.375000
-3.469128 -1.436960 -9.375000
-3.122133 -2.086142 -9.375000
-2.655156 -2.655156 -9.375000
-2.086142 -3.122133 -9.375000
-1.436960 -3.469128 -9.375000
-0.732556 -3.682807 -9.375000
-0.000000 -3.754957 -9.375000
0.732556 -3.682807 -9.375000
1.436960 -3.469128 -9.375000
2.086142 -3.122133 -9.375000
2.655156 -2.655156 -9.375000
3.122133 -2.086142 -9.375000
3.469128 -1.436960 -9.375000
3.682807 -0.732556 -9.375000
3.512274 0.000000 -8.750000
3.444787 0.685211 -8.750000
3.244918 1.344089 -8.750000
2.920349 1.951315 -8.750000
2.483553 2.483553 -8.750000
1.951315 2.920349 -8.750000
1.344089 3.244918 -8.750000
0.685211 3.444787 -8.750000
0.000000 3.512274 -8.750000
-0.685211 3.444787 -8.750000
-1.344089 3.244918 -8.750000
-1.951315 2.920349 -8.750000
-2.483553 2.483553 -8.750000
-2.920349 1.951315 -8.750000
-3.244918 1.344089 -8.750000
-3.444787 0.685211 -8.750000
-3.512274 0.000000 -8.750000
-3.444787 -0.685211 -8.750000
-3.244918 -1.344089 -8.750000
-2.920349 -1.951315 -8.750000
-2.483553 -2.483553 -8.750000
-1.951315 -2.920349 -8.750000
-1.344089 -3.244918 -8.750000
-0.685211 -3.444787 -8.750000
-0.000000 -3.512274 -8.750000
0.685211 -3.444787 -8.750000
1.344089 -3.244918 -8.750000
1.951315 -2.920349 -8.750000
2.483553 -2.483553 -8.750000
2.920349 -1.951315 -8.750000
3.244918 -1.344089 -8.750000
3.444787 -0.685211 -8.750000
3.274288 0.000000 -8.125000
3.211374 0.638782 -8.125000
3.025048 1.253016 -8.125000
2.722471 1.819097 -8.125000
2.315271 2.315271 -8.125000
1.819097 2.722471 -8.125000
1.253016 3.025048 -8.125000
0.638782 3.211374 -8.125000
0.000000 3.274288 -8.125000
-0.638782 3.211374 -8.125000
-1.253016 3.025048 -8.125000
-1.819097 2.722471 -8.125000
-2.315271 2.315271 -8.125000
-2.722471 1.819097 -8.125000
-3.025048 1.253016 -8.125000
-3.211374 0.638782 -8.125000
-3.274288 0.000000 -8.125000
-3.211374 -0.638782 -8.125000
-3.025048 -1.253016 -8.125000
-2.722471 -1.819097 -8.125000
-2.315271 -2.315271 -8.125000
-1.819097 -2.722471 -8.125000
-1.253016 -3.025048 -8.125000
-0.638782 -3.211374 -8.125000
-0.000000 -3.274288 -8.125000
0.638782 -3.211374 -8.125000
1.253016 -3.025048 -8.125000
1.819097 -2.722471 -8.125000
2.315271 -2.315271 -8.125000
2.722471 -1.819097 -8.125000
3.025048 -1.253016 -8.125000
3.211374 -0.638782 -8.125000
3.043291 0.000000 -7.500000
2.984815 0.593717 -7.500000
2.811635 1.164617 -7.500000
2.530404 1.690762 -7.500000
2.151932 2.151932 -7.500000
1.690762 2.530404 -7.500000
1.164617 2.811635 -7.500000
0.593717 2.984815 -7.500000
0.000000 3.043291 -7.500000
-0.593717 2.984815 -7.500000
-1.164617 2.811635 -7.500000
-1.690762 2.530404 -7.500000
-2.151932 2.151932 -7.500000
-2.530404 1.690762 -7.500000
-2.811635 1.164617 -7.500000
-2.984815 0.593717 -7.500000
-3.043291 0.000000 -7.500000
-2.984815 -0.593717 -7.500000
-2.811635 -1.164617 -7.500000
-2.530404 -1.690762 -7.500000
-2.151932 -2.151932 -7.500000
-1.690762 -2.530404 -7.500000
-1.164617 -2.811635 -7.500000
-0.593717 -2.984815 -7.500000
-0.000000 -3.043291 -7.500000
0.593717 -2.984815 -7.500000
1.164617 -2.811635 -7.500000
1.690762 -2.530404 -7.500000
2.151932 -2.151932 -7.500000
2.530404 -1.690762 -7.500000
2.811635 -1.164617 -7.500000
2.984815 -0.593717 -7.500000
2.821508 0.000000 -6.875000
2.767294 0.550449 -6.875000
2.606734 1.079744 -6.875000
2.345998 1.567546 -6.875000
1.995108 1.995108 -6.875000
1.567546 2.345998 -6.875000
1.079744 2.606734 -6.875000
0.550449 2.767294 -6.875000
0.000000 2.821508 -6.875000
-0.550449 2.767294 -6.875000
-1.079744 2.606734 -6.875000
-1.567546 2.345998 -6.875000
-1.995108 1.995108 -6.875000
-2.345998 1.567546 -6.875000
-2.606734 1.079744 -6.875000
-2.767294 0.550449 -6.875000
-2.821508 0.000000 -6.875000
-2.767294 -0.550449 -6.875000
-2.606734 -1.079744 -6.875000
-2.345998 -1.567546 -6.875000
-1.995108 -1.995108 -6.875000
-1.567546 -2.345998 -6.875000
-1.079744 -2.606734 -6.875000
-0.550449 -2.767294 -6.875000
-0.000000 -2.821508 -6.875000
0.550449 -2.767294 -6.875000
1.079744 -2.606734 -6.875000
1.567546 -2.345998 -6.875000
1.995108 -1.995108 -6.875000
2.345998 -1.567546 -6.875000
2.606734 -1.079744 -6.875000
2.767294 -0.550449 -6.875000
2.611074 0.000000 -6.250000
2.560903 0.509395 -6.250000
2.412318 0.999215 -6.250000
2.171029 1.450635 -6.250000
1.846308 1.846308 -6.250000
1.450635 2.171029 -6.250000
0.999215 2.412318 -6.250000
0.509395 2.560903 -6.250000
0.000000 2.611074 -6.250000
-0.509395 2.560903 -6.250000
-0.999215 2.412318 -6.250000
-1.450635 2.171029 -6.250000
-1.846308 1.846308 -6.250000
-2.171029 1.450635 -6.250000
-2.412318 0.999215 -6.250000
-2.560903 0.509395 -6.250000
-2.611074 0.000000 -6.250000
-2.560903 -0.509395 -6.250000
-2.412318 -0.999215 -6.250000
-2.171029 -1.450635 -6.250000
-1.846308 -1.846308 -6.250000
-1.450635 -2.171029 -6.250000
-0.999215 -2.412318 -6.250000
-0.509395 -2.560903 -6.250000
-0.000000 -2.611074 -6.250000
0.509395 -2.560903 -6.250000
0.999215 -2.412318 -6.250000
1.450635 -2.171029 -6.250000
1.846308 -1.846308 -6.250000
2.171029 -1.450635 -6.250000
2.412318 -0.999215 -6.250000
2.560903 -0.509395 -6.250000
2.414017 0.000000 -5.625000
2.367632 0.470951 -5.625000
2.230261 0.923804 -5.625000
2.007182 1.341156 -5.625000
1.706968 1.706968 -5.625000
1.341156 2.007182 -5.625000
0.923804 2.230261 -5.625000
0.470951 2.367632 -5.625000
0.000000 2.414017 -5.625000
-0.470951 2.367632 -5.625000
-0.923804 2.230261 -5.625000
-1.341156 2.007182 -5.625000
-1.706968 1.706968 -5.625000
-2.007182 1.341156 -5.625000
-2.230261 0.923804 -5.625000
-2.367632 0.470951 -5.625000
-2.414017 0.000000 -5.625000
-2.367632 -0.470951 -5.625000
-2.230261 -0.923804 -5.625000
-2.007182 -1.341156 -5.625000
-1.706968 -1.706968 -5.625000
-1.341156 -2.007182 -5.625000
-0.923804 -2.230261 -5.625000
-0.470951 -2.367632 -5.625000
-0.000000 -2.414017 -5.625000
0.470951 -2.367632 -5.625000
0.923804 -2.230261 -5.625000
1.341156 -2.007182 -5.625000
1.706968 -1.706968 -5.625000
2.007182 -1.341156 -5.625000
2.230261 -0.923804 -5.625000
2.367632 -0.470951 -5.625000
2.232233 0.000000 -5.000000
2.189341 0.435487 -5.000000
2.062314 0.854239 -5.000000
1.856034 1.240162 -5.000000
1.578427 1.578427 -5.000000
1.240162 1.856034 -5.000000
0.854239 2.062314 -5.000000
0.435487 2.189341 -5.000000
0.000000 2.232233 -5.000000
-0.435487 2.189341 -5.000000
-0.854239 2.062314 -5.000000
-1.240162 1.856034 -5.000000
-1.578427 1.578427 -5.000000
-1.856034 1.240162 -5.000000
-2.062314 0.854239 -5.000000
-2.189341 0.435487 -5.000000
-2.232233 0.000000 -5.000000
-2.189341 -0.435487 -5.000000
-2.062314 -0.854239 -5.000000
-1.856034 -1.240162 -5.000000
-1.578427 -1.578427 -5.000000
-1.240162 -1.856034 -5.000000
-0.854239 -2.062314 -5.000000
-0.435487 -2.189341 -5.000000
-0.000000 -2.232233 -5.000000
0.435487 -2.189341 -5.000000
0.854239 -2.062314 -5.000000
1.240162 -1.856034 -5.000000
1.578427 -1.578427 -5.000000
1.856034 -1.240162 -5.000000
2.062314 -0.854239 -5.000000
2.189341 -0.435487 -5.000000
2.067474 0.000000 -4.375000
2.027748 0.403344 -4.375000
1.910097 0.791188 -4.375000
1.719042 1.148627 -4.375000
1.461925 1.461925 -4.375000
1.148627 1.719042 -4.375000
0.791188 1.910097 -4.375000
0.403344 2.027748 -4.375000
0.000000 2.067474 -4.375000
-0.403344 2.027748 -4.375000
-0.791188 1.910097 -4.375000
-1.148627 1.719042 -4.375000
-1.461925 1.461925 -4.375000
-1.719042 1.148627 -4.375000
-1.910097 0.791188 -4.375000
-2.027748 0.403344 -4.375000
-2.067474 0.000000 -4.375000
-2.027748 -0.403344 -4.375000
-1.910097 -0.791188 -4.375000
-1.719042 -1.148627 -4.375000
-1.461925 -1.461925 -4.375000
-1.148627 -1.719042 -4.375000
-0.791188 -1.910097 -4.375000
-0.403344 -2.027748 -4.375000
-0.000000 -2.067474 -4.375000
0.403344 -2.027748 -4.375000
0.791188 -1.910097 -4.375000
1.148627 -1.719042 -4.375000
1.461925 -1.461925 -4.375000
1.719042 -1.148627 -4.375000
1.910097 -0.791188 -4.375000
2.027748 -0.403344 -4.375000
1.921326 0.000000 -3.750000
1.884408 0.374832 -3.750000
1.775074 0.735260 -3.750000
1.597524 1.067432 -3.750000
1.358583 1.358583 -3.750000
1.067432 1.597524 -3.750000
0.735260 1.775074 -3.750000
0.374832 1.884408 -3.750000
0.000000 1.921326 -3.750000
-0.374832 1.884408 -3.750000
-0.735260 1.775074 -3.750000
-1.067432 1.597524 -3.750000
-1.358583 1.358583 -3.750000
-1.597524 1.067432 -3.750000
-1.775074 0.735260 -3.750000
-1.884408 0.374832 -3.750000
-1.921326 0.000000 -3.750000
-1.884408 -0.374832 -3.750000
-1.775074 -0.735260 -3.750000
-1.597524 -1.067432 -3.750000
-1.358583 -1.358583 -3.750000
-1.067432 -1.597524 -3.750000
-0.735260 -1.775074 -3.750000
-0.374832 -1.884408 -3.750000
-0.000000 -1.921326 -3.750000
0.374832 -1.884408 -3.750000
0.735260 -1.775074 -3.750000
1.067432 -1.597524 -3.750000
1.358583 -1.358583 -3.750000
1.597524 -1.067432 -3.750000
1.775074 -0.735260 -3.750000
1.884408 -0.374832 -3.750000
1.795197 0.000000 -3.125000
1.760703 0.350226 -3.125000
1.658546 0.686992 -3.125000
1.492652 0.997358 -3.125000
1.269396 1.269396 -3.125000
0.997358 1.492652 -3.125000
0.686992 1.658546 -3.125000
0.350226 1.760703 -3.125000
0.000000 1.795197 -3.125000
-0.350226 1.760703 -3.125000
-0.686992 1.658546 -3.125000
-0.997358 1.492652 -3.125000
-1.269396 1.269396 -3.125000
-1.492652 0.997358 -3.125000
-1.658546 0.686992 -3.125000
-1.760703 0.350226 -3.125000
-1.795197 0.000000 -3.125000
-1.760703 -0.350226 -3.125000
-1.658546 -0.686992 -3.125000
-1.492652 -0.997358 -3.125000
-1.269396 -1.269396 -3.125000
-0.997358 -1.492652 -3.125000
-0.686992 -1.658546 -3.125000
-0.350226 -1.760703 -3.125000
-0.000000 -1.795197 -3.125000
0.350226 -1.760703 -3.125000
0.686992 -1.658546 -3.125000
0.997358 -1.492652 -3.125000
1.269396 -1.269396 -3.125000
1.492652 -0.997358 -3.125000
1.658546 -0.686992 -3.125000
1.760703 -0.350226 -3.125000
1.690301 0.000000 -2.500000
1.657823 0.329761 -2.500000
1.561635 0.646850 -2.500000
1.405434 0.939081 -2.500000
1.195223 1.195223 -2.500000
0.939081 1.405434 -2.500000
0.646850 1.561635 -2.500000
0.329761 1.657823 -2.500000
0.000000 1.690301 -2.500000
-0.329761 1.657823 -2.500000
-0.646850 1.561635 -2.500000
-0.939081 1.405434 -2.500000
-1.195223 1.195223 -2.500000
-1.405434 0.939081 -2.500000
-1.561635 0.646850 -2.500000
-1.657823 0.329761 -2.500000
-1.690301 0.000000 -2.500000
-1.657823 -0.329761 -2.500000
-1.561635 -0.646850 -2.500000
-1.405434 -0.939081 -2.500000
-1.195223 -1.195223 -2.500000
-0.939081 -1.405434 -2.500000
-0.646850 -1.561635 -2.500000
-0.329761 -1.657823 -2.500000
-0.000000 -1.690301 -2.500000
0.329761 -1.657823 -2.500000
0.646850 -1.561635 -2.500000
0.939081 -1.405434 -2.500000
1.195223 -1.195223 -2.500000
1.405434 -0.939081 -2.500000
1.561635 -0.646850 -2.500000
1.657823 -0.329761 -2.500000
1.607649 0.000000 -1.875000
1.576759 0.313637 -1.875000
1.485274 0.615221 -1.875000
1.336711 0.893162 -1.875000
1.136780 1.136780 -1.875000
0.893162 1.336711 -1.875000
0.615221 1.485274 -1.875000
0.313637 1.576759 -1.875000
0.000000 1.607649 -1.875000
-0.313637 1.576759 -1.875000
-0.615221 1.485274 -1.875000
-0.893162 1.336711 -1.875000
-1.136780 1.136780 -1.875000
-1.336711 0.893162 -1.875000
-1.485274 0.615221 -1.875000
-1.576759 0.313637 -1.875000
-1.607649 0.000000 -1.875000
-1.576759 -0.313637 -1.875000
-1.485274 -0.615221 -1.875000
-1.336711 -0.893162 -1.875000
-1.136780 -1.136780 -1.875000
-0.893162 -1.336711 -1.875000
-0.615221 -1.485274 -1.875000
-0.313637 -1.576759 -1.875000
-0.000000 -1.607649 -1.875000
0.313637 -1.576759 -1.875000
0.615221 -1.485274 -1.875000
0.893162 -1.336711 -1.875000
1.136780 -1.136780 -1.875000
1.336711 -0.893162 -1.875000
1.485274 -0.615221 -1.875000
1.576759 -0.313637 -1.875000
1.548037 0.000000 -1.250000
1.518292 0.302007 -1.250000
1.430200 0.592408 -1.250000
1.287146 0.860043 -1.250000
1.094627 1.094627 -1.250000
0.860043 1.287146 -1.250000
0.592408 1.430200 -1.250000
0.302007 1.518292 -1.250000
0.000000 1.548037 -1.250000
-0.302007 1.518292 -1.250000
-0.592408 1.430200 -1.250000
-0.860043 1.287146 -1.250000
-1.094627 1.094627 -1.250000
-1.287146 0.860043 -1.250000
-1.430200 0.592408 -1.250000
-1.518292 0.302007 -1.250000
-1.548037 0.000000 -1.250000
-1.518292 -0.302007 -1.250000
-1.430200 -0.592408 -1.250000
-1.287146 -0.860043 -1.250000
-1.094627 -1.094627 -1.250000
-0.860043 -1.287146 -1.250000
-0.592408 -1.430200 -1.250000
-0.302007 -1.518292 -1.250000
-0.000000 -1.548037 -1.250000
0.302007 -1.518292 -1.250000
0.592408 -1.430200 -1.250000
0.860043 -1.287146 -1.250000
1.094627 -1.094627 -1.250000
1.287146 -0.860043 -1.250000
1.430200 -0.592408 -1.250000
1.518292 -0.302007 -1.250000
1.512038 0.000000 -0.625000
1.482985 0.294984 -0.625000
1.396941 0.578632 -0.625000
1.257214 0.840043 -0.625000
1.069172 1.069172 -0.625000
0.840043 1.257214 -0.625000
0.578632 1.396941 -0.625000
0.294984 1.482985 -0.625000
0.000000 1.512038 -0.625000
-0.294984 1.482985 -0.625000
-0.578632 1.396941 -0.625000
-0.840043 1.257214 -0.625000
-1.069172 1.069172 -0.625000
-1.257214 0.840043 -0.625000
-1.396941 0.578632 -0.625000
-1.482985 0.294984 -0.625000
-1.512038 0.000000 -0.625000
-1.482985 -0.294984 -0.625000
-1.396941 -0.578632 -0.625000
-1.257214 -0.840043 -0.625000
-1.069172 -1.069172 -0.625000
-0.840043 -1.257214 -0.625000
-0.578632 -1.396941 -0.625000
-0.294984 -1.482985 -0.625000
-0.000000 -1.512038 -0.625000
0.294984 -1.482985 -0.625000
0.578632 -1.396941 -0.625000
0.840043 -1.257214 -0.625000
1.069172 -1.069172 -0.625000
1.257214 -0.840043 -0.625000
1.396941 -0.578632 -0.625000
1.482985 -0.294984 -0.625000
1.500000 0.000000 0.000000
1.471178 0.292635 0.000000
1.385819 0.574025 0.000000
1.247204 0.833355 0.000000
1.060660 1.060660 0.000000
0.833355 1.247204 0.000000
0.574025 1.385819 0.000000
0.292635 1.471178 0.000000
0.000000 1.500000 0.000000
-0.292635 1.471178 0.000000
-0.574025 1.385819 0.000000
-0.833355 1.247204 0.000000
-1.060660 1.060660 0.000000
-1.247204 0.833355 0.000000
-1.385819 0.574025 0.000000
-1.471178 0.292635 0.000000
-1.500000 0.000000 0.000000
-1.471178 -0.292635 0.000000
-1.385819 -0.574025 0.000000
-1.247204 -0.833355 0.000000
-1.060660 -1.060660 0.000000
-0.833355 -1.247204 0.000000
-0.574025 -1.385819 0.000000
-0.292635 -1.471178 0.000000
-0.000000 -1.500000 0.000000
0.292635 -1.471178 0.000000
0.574025 -1.385819 0.000000
0.833355 -1.247204 0.000000
1.060660 -1.060660 0.000000
1.247204 -0.833355 0.000000
1.385819 -0.574025 0.000000
1.471178 -0.292635 0.000000
1.512038 0.000000 0.625000
1.482985 0.294984 0.625000
1.396941 0.578632 0.625000
1.257214 0.840043 0.625000
1.069172 1.069172 0.625000
0.840043 1.257214 0.625000
0.578632 1.396941 0.625000
0.294984 1.482985 0.625000
0.000000 1.512038 0.625000
-0.294984 1.482985 0.625000
-0.578632 1.396941 0.625000
-0.840043 1.257214 0.625000
-1.069172 1.069172 0.625000
-1.257214 0.840043 0.625000
-1.396941 0.578632 0.625000
-1.482985 0.294984 0.625000
-1.512038 0.000000 0.625000
-1.482985 -0.294984 0.625000
-1.396941 -0.578632 0.625000
-1.257214 -0.840043 0.625000
-1.069172 -1.069172 0.625000
-0.840043 -1.257214 0.625000
-0.578632 -1.396941 0.625000
-0.294984 -1.482985 0.625000
-0.000000 -1.512038 0.625000
0.294984 -1.482985 0.625000
0.578632 -1.396941 0.625000
0.840043 -1.257214 0.625000
1.069172 -1.069172 0.625000
1.257214 -0.840043 0.625000
1.396941 -0.578632 0.625000
1.482985 -0.294984 0.625000
1.548037 0.000000 1.250000
1.518292 0.302007 1.250000
1.430200 0.592408 1.250000
1.287146 0.860043 1.250000
1.094627 1.094627 1.250000
0.860043 1.287146 1.250000
0.592408 1.430200 1.250000
0.302007 1.518292 1.250000
0.000000 1.548037 1.250000
-0.302007 1.518292 1.250000
-0.592408 1.430200 1.250000
-0.860043 1.287146 1.250000
-1.094627 1.094627 1.250000
-1.287146 0.860043 1.250000
-1.430200 0.592408 1.250000
-1.518292 0.302007 1.250000
-1.548037 0.000000 1.250000
-1.518292 -0.302007 1.250000
-1.430200 -0.592408 1.250000
-1.287146 -0.860043 1.250000
-1.094627 -1.094627 1.250000
-0.860043 -1.287146 1.250000
-0.592408 -1.430200 1.250000
-0.302007 -1.518292 1.250000
-0.000000 -1.548037 1.250000
0.302007 -1.518292 1.250000
0.592408 -1.430200 1.250000
0.860043 -1.287146 1.250000
1.094627 -1.094627 1.250000
1.287146 -0.860043 1.250000
1.430200 -0.592408 1.250000
1.518292 -0.302007 1.250000
1.607649 0.000000 1.875000
1.576759 0.313637 1.875000
1.485274 0.615221 1.875000
1.336711 0.893162 1.875000
1.136780 1.136780 1.875000
0.893162 1.336711 1.875000
0.615221 1.485274 1.875000
0.313637 1.576759 1.875000
0.000000 1.607649 1.875000
-0.313637 1.576759 1.875000
-0.615221 1.485274 1.875000
-0.893162 1.336711 1.875000
-1.136780 1.136780 1.875000
-1.336711 0.893162 1.875000
-1.485274 0.615221 1.875000
-1.576759 0.313637 1.875000
-1.607649 0.000000 1.875000
-1.576759 -0.313637 1.875000
-1.485274 -0.615221 1.875000
-1.336711 -0.893162 1.875000
-1.136780 -1.136780 1.875000
-0.893162 -1.336711 1.875000
-0.615221 -1.485274 1.875000
-0.313637 -1.576759 1.875000
-0.000000 -1.607649 1.875000
0.313637 -1.576759 1.875000
0.615221 -1.485274 1.875000
0.893162 -1.336711 1.875000
1.136780 -1.136780 1.875000
1.336711 -0.893162 1.875000
1.485274 -0.615221 1.875000
1.576759 -0.313637 1.875000
1.690301 0.000000 2.500000
1.657823 0.329761 2.500000
1.561635 0.646850 2.500000
1.405434 0.939081 2.500000
1.195223 1.195223 2.500000
0.939081 1.405434 2.500000
0.646850 1.561635 2.500000
0.329761 1.657823 2.500000
0.000000 1.690301 2.500000
-0.329761 1.657823 2.500000
-0.646850 1.561635 2.500000
-0.939081 1.405434 2.500000
-1.195223 1.195223 2.500000
-1.405434 0.939081 2.500000
-1.561635 0.646850 2.500000
-1.657823 0.329761 2.500000
-1.690301 0.000000 2.500000
-1.657823 -0.329761 2.500000
-1.561635 -0.646850 2.500000
-1.405434 -0.939081 2.500000
-1.195223 -1.195223 2.500000
-0.939081 -1.405434 2.500000
-0.646850 -1.561635 2.500000
-0.329761 -1.657823 2.500000
-0.000000 -1.690301 2.500000
0.329761 -1.657823 2.500000
0.646850 -1.561635 2.500000
0.939081 -1.405434 2.500000
1.195223 -1.195223 2.500000
1.405434 -0.939081 2.500000
1.561635 -0.646850 2.500000
1.657823 -0.329761 2.500000
1.795197 0.000000 3.125000
1.760703 0.350226 3.125000
1.658546 0.686992 3.125000
1.492652 0.997358 3.125000
1.269396 1.269396 3.125000
0.997358 1.492652 3.125000
0.686992 1.658546 3.125000
0.350226 1.760703 3.125000
0.000000 1.795197 3.125000
-0.350226 1.760703 3.125000
-0.686992 1.658546 3.125000
-0.997358 1.492652 3.125000
-1.269396 1.269396 3.125000
-1.492652 0.997358 3.125000
-1.658546 0.686992 3.125000
-1.760703 0.350226 3.125000
-1.795197 0.000000 3.125000
-1.760703 -0.350226 3.125000
-1.658546 -0.686992 3.125000
-1.492652 -0.997358 3.125000
-1.269396 -1.269396 3.125000
-0.997358 -1.492652 3.125000
-0.686992 -1.658546 3.125000
-0.350226 -1.760703 3.125000
-0.000000 -1.795197 3.125000
0.350226 -1.760703 3.125000
0.686992 -1.658546 3.125000
0.997358 -1.492652 3.125000
1.269396 -1.269396 3.125000
1.492652 -0.997358 3.125000
1.658546 -0.686992 3.125000
1.760703 -0.350226 3.125000
1.921326 0.000000 3.750000
1.884408 0.374832 3.750000
1.775074 0.735260 3.750000
1.597524 1.067432 3.750000
1.358583 1.358583 3.750000
1.067432 1.597524 3.750000
0.735260 1.775074 3.750000
0.374832 1.884408 3.750000
0.000000 1.921326 3.750000
-0.374832 1.884408 3.750000
-0.735260 1.775074 3.750000
-1.067432 1.597524 3.750000
-1.358583 1.358583 3.750000
-1.597524 1.067432 3.750000
-1.775074 0.735260 3.750000
-1.884408 0.374832 3.750000
-1.921326 0.000000 3.750000
-1.884408 -0.374832 3.750000
-1.775074 -0.735260 3.750000
-1.597524 -1.067432 3.750000
-1.358583 -1.358583 3.750000
-1.067432 -1.597524 3.750000
-0.735260 -1.775074 3.750000
-0.374832 -1.884408 3.750000
-0.000000 -1.921326 3.750000
0.374832 -1.884408 3.750000
0.735260 -1.775074 3.750000
1.067432 -1.597524 3.750000
1.358583 -1.358583 3.750000
1.597524 -1.067432 3.750000
1.775074 -0.735260 3.750000
1.884408 -0.374832 3.750000
2.067474 0.000000 4.375000
2.027748 0.403344 4.375000
1.910097 0.791188 4.375000
1.719042 1.148627 4.375000
1.461925 1.461925 4.375000
1.148627 1.719042 4.375000
0.791188 1.910097 4.375000
0.403344 2.027748 4.375000
0.000000 2.067474 4.375000
-0.403344 2.027748 4.375000
-0.791188 1.910097 4.375000
-1.148627 1.719042 4.375000
-1.461925 1.461925 4.375000
-1.719042 1.148627 4.375000
-1.910097 0.791188 4.375000
-2.027748 0.403344 4.375000
-2.067474 0.000000 4.375000
-2.027748 -0.403344 4.375000
-1.910097 -0.791188 4.375000
-1.719042 -1.148627 4.375000
-1.461925 -1.461925 4.375000
-1.148627 -1.719042 4.375000
-0.791188 -1.910097 4.375000
-0.403344 -2.027748 4.375000
-0.000000 -2.067474 4.375000
0.403344 -2.027748 4.375000
0.791188 -1.910097 4.375000
1.148627 -1.719042 4.375000
1.461925 -1.461925 4.375000
1.719042 -1.148627 4.375000
1.910097 -0.791188 4.375000
2.027748 -0.403344 4.375000
2.232233 0.000000 5.000000
2.189341 0.435487 5.000000
2.062314 0.854239 5.000000
1.856034 1.240162 5.000000
1.578427 1.578427 5.000000
1.240162 1.856034 5.000000
0.854239 2.062314 5.000000
0.435487 2.189341 5.000000
0.000000 2.232233 5.000000
-0.435487 2.189341 5.000000
-0.854239 2.062314 5.000000
-1.240162 1.856034 5.000000
-1.578427 1.578427 5.000000
-1.856034 1.240162 5.000000
-2.062314 0.854239 5.000000
-2.189341 0.435487 5.000000
-2.232233 0.000000 5.000000
-2.189341 -0.435487 5.000000
-2.062314 -0.854239 5.000000
-1.856034 -1.240162 5.000000
-1.578427 -1.578427 5.000000
-1.240162 -1.856034 5.000000
-0.854239 -2.062314 5.000000
-0.435487 -2.189341 5.000000
-0.000000 -2.232233 5.000000
0.435487 -2.189341 5.000000
0.854239 -2.062314 5.000000
1.240162 -1.856034 5.000000
1.578427 -1.578427 5.000000
1.856034 -1.240162 5.000000
2.062314 -0.854239 5.000000
2.189341 -0.435487 5.000000
2.414017 0.000000 5.625000
2.367632 0.470951 5.625000
2.230261 0.923804 5.625000
2.007182 1.341156 5.625000
1.706968 1.706968 5.625000
1.341156 2.007182 5.625000
0.923804 2.230261 5.625000
0.470951 2.367632 5.625000
0.000000 2.414017 5.625000
-0.470951 2.367632 5.625000
-0.923804 2.230261 5.625000
-1.341156 2.007182 5.625000
-1.706968 1.706968 5.625000
-2.007182 1.341156 5.625000
-2.230261 0.923804 5.625000
-2.367632 0.470951 5.625000
-2.414017 0.000000 5.625000
-2.367632 -0.470951 5.625000
-2.230261 -0.923804 5.625000
-2.007182 -1.341156 5.625000
-1.706968 -1.706968 5.625000
-1.341156 -2.007182 5.625000
-0.923804 -2.230261 5.625000
-0.470951 -2.367632 5.625000
-0.000000 -2.414017 5.625000
0.470951 -2.367632 5.625000
0.923804 -2.230261 5.625000
1.341156 -2.007182 5.625000
1.706968 -1.706968 5.625000
2.007182 -1.341156 5.625000
2.230261 -0.923804 5.625000
2.367632 -0.470951 5.625000
2.611074 0.000000 6.250000
2.560903 0.509395 6.250000
2.412318 0.999215 6.250000
2.171029 1.450635 6.250000
1.846308 1.846308 6.250000
1.450635 2.171029 6.250000
0.999215 2.412318 6.250000
0.509395 2.560903 6.250000
0.000000 2.611074 6.250000
-0.509395 2.560903 6.250000
-0.999215 2.412318 6.250000
-1.450635 2.171029 6.250000
-1.846308 1.846308 6.250000
-2.171029 1.450635 6.250000
-2.412318 0.999215 6.250000
-2.560903 0.509395 6.250000
-2.611074 0.000000 6.250000
-2.560903 -0.509395 6.250000
-2.412318 -0.999215 6.250000
-2.171029 -1.450635 6.250000
-1.846308 -1.846308 6.250000
-1.450635 -2.171029 6.250000
-0.999215 -2.412318 6.250000
-0.509395 -2.560903 6.250000
-0.000000 -2.611074 6.250000
0.509395 -2.560903 6.250000
0.999215 -2.412318 6.250000
1.450635 -2.171029 6.250000
1.846308 -1.846308 6.250000
2.171029 -1.450635 6.250000
2.412318 -0.999215 6.250000
2.560903 -0.509395 6.250000
2.821508 0.000000 6.875000
2.767294 0.550449 6.875000
2.606734 1.079744 6.875000
2.345998 1.567546 6.875000
1.995108 1.995108 6.875000
1.567546 2.345998 6.875000
1.079744 2.606734 6.875000
0.550449 2.767294 6.875000
0.000000 2.821508 6.875000
-0.550449 2.767294 6.875000
-1.079744 2.606734 6.875000
-1.567546 2.345998 6.875000
-1.995108 1.995108 6.875000
-2.345998 1.567546 6.875000
-2.606734 1.079744 6.875000
-2.767294 0.550449 6.875000
-2.821508 0.000000 6.875000
-2.767294 -0.550449 6.875000
-2.606734 -1.079744 6.875000
-2.345998 -1.567546 6.875000
-1.995108 -1.995108 6.875000
-1.567546 -2.345998 6.875000
-1.079744 -2.606734 6.875000
-0.550449 -2.767294 6.875000
-0.000000 -2.821508 6.875000
0.550449 -2.767294 6.875000
1.079744 -2.606734 6.875000
1.567546 -2.345998 6.875000
1.995108 -1.995108 6.875000
2.345998 -1.567546 6.875000
2.606734 -1.079744 6.875000
2.767294 -0.550449 6.875000
3.043291 0.000000 7.500000
2.984815 0.593717 7.500000
2.811635 1.164617 7.500000
2.530404 1.690762 7.500000
2.151932 2.151932 7.500000
1.690762 2.530404 7.500000
1.164617 2.811635 7.500000
0.593717 2.984815 7.500000
0.000000 3.043291 7.500000
-0.593717 2.984815 7.500000
-1.164617 2.811635 7.500000
-1.690762 2.530404 7.500000
-2.151932 2.151932 7.500000
-2.530404 1.690762 7.500000
-2.811635 1.164617 7.500000
-2.984815 0.593717 7.500000
-3.043291 0.000000 7.500000
-2.984815 -0.593717 7.500000
-2.811635 -1.164617 7.500000
-2.530404 -1.690762 7.500000
-2.151932 -2.151932 7.500000
-1.690762 -2.530404 7.500000
-1.164617 -2.811635 7.500000
-0.593717 -2.984815 7.500000
-0.000000 -3.043291 7.500000
0.593717 -2.984815 7.500000
1.164617 -2.811635 7.500000
1.690762 -2.530404 7.500000
2.151932 -2.151932 7.500000
2.530404 -1.690762 7.500000
2.811635 -1.164617 7.500000
2.984815 -0.593717 7.500000
3.274288 0.000000 8.125000
3.211374 0.638782 8.125000
3.025048 1.253016 8.125000
2.722471 1.819097 8.125000
2.315271 2.315271 8.125000
1.819097 2.722471 8.125000
1.253016 3.025048 8.125000
0.638782 3.211374 8.125000
0.000000 3.274288 8.125000
-0.638782 3.211374 8.125000
-1.253016 3.025048 8.125000
-1.819097 2.722471 8.125000
-2.315271 2.315271 8.125000
-2.722471 1.819097 8.125000
-3.025048 1.253016 8.125000
-3.211374 0.638782 8.125000
-3.274288 0.000000 8.125000
-3.211374 -0.638782 8.125000
-3.025048 -1.253016 8.125000
-2.722471 -1.819097 8.125000
-2.315271 -2.315271 8.125000
-1.819097 -2.722471 8.125000
-1.253016 -3.025048 8.125000
-0.638782 -3.211374 8.125000
-0.000000 -3.274288 8.125000
0.638782 -3.211374 8.125000
1.253016 -3.025048 8.125000
1.819097 -2.722471 8.125000
2.315271 -2.315271 8.125000
2.722471 -1.819097 8.125000
3.025048 -1.253016 8.125000
3.211374 -0.638782 8.125000
3.512274 0.000000 8.750000
3.444787 0.685211 8.750000
3.244918 1.344089 8.750000
2.920349 1.951315 8.750000
2.483553 2.483553 8.750000
1.951315 2.920349 8.750000
1.344089 3.244918 8.750000
0.685211 3.444787 8.750000
0.000000 3.512274 8.750000
-0.685211 3.444787 8.750000
-1.344089 3.244918 8.750000
-1.951315 2.920349 8.750000
-2.483553 2.483553 8.750000
-2.920349 1.951315 8.750000
-3.244918 1.344089 8.750000
-3.444787 0.685211 8.750000
-3.512274 0.000000 8.750000
-3.444787 -0.685211 8.750000
-3.244918 -1.344089 8.750000
-2.920349 -1.951315 8.750000
-2.483553 -2.483553 8.750000
-1.951315 -2.920349 8.750000
-1.344089 -3.244918 8.750000
-0.685211 -3.444787 8.750000
-0.000000 -3.512274 8.750000
0.685211 -3.444787 8.750000
1.344089 -3.244918 8.750000
1.951315 -2.920349 8.750000
2.483553 -2.483553 8.750000
2.920349 -1.951315 8.750000
3.244918 -1.344089 8.750000
3.444787 -0.685211 8.750000
3.754957 0.000000 9.375000
3.682807 0.732556 9.375000
3.469128 1.436960 9.375000
3.122133 2.086142 9.375000
2.655156 2.655156 9.375000
2.086142 3.122133 9.375000
1.436960 3.469128 9.375000
0.732556 3.682807 9.375000
0.000000 3.754957 9.375000
-0.732556 3.682807 9.375000
-1.436960 3.469128 9.375000
-2.086142 3.122133 9.375000
-2.655156 2.655156 9.375000
-3.122133 2.086142 9.375000
-3.469128 1.436960 9.375000
-3.682807 0.732556 9.375000
-3.754957 0.000000 9.375000
-3.682807 -0.732556 9.375000
-3.469128 -1.436960 9.375000
-3.122133 -2.086142 9.375000
-2.655156 -2.655156 9.375000
-2.086142 -3.122133 9.375000
-1.436960 -3.469128 9.375000
-0.732556 -3.682807 9.375000
-0.000000 -3.754957 9.375000
0.732556 -3.682807 9.375000
1.436960 -3.469128 9.375000
2.086142 -3.122133 9.375000
2.655156 -2.655156 9.375000
3.122133 -2.086142 9.375000
3.469128 -1.436960 9.375000
3.682807 -0.732556 9.375000
4.000000 0.000000 10.000000
3.923141 0.780361 10.000000
3.695518 1.530734 10.000000
3.325878 2.222281 10.000000
2.828427 2.828427 10.000000
2.222281 3.325878 10.000000
1.530734 3.695518 10.000000
0.780361 3.923141 10.000000
0.000000 4.000000 10.000000
-0.780361 3.923141 10.000000
-1.530734 3.695518 10.000000
-2.222281 3.325878 10.000000
-2.828427 2.828427 10.000000
-3.325878 2.222281 10.000000
-3.695518 1.530734 10.000000
-3.923141 0.780361 10.000000
-4.000000 0.000000 10.000000
-3.923141 -0.780361 10.000000
-3.695518 -1.530734 10.000000
-3.325878 -2.222281 10.000000
-2.828427 -2.828427 10.000000
-2.222281 -3.325878 10.000000
-1.530734 -3.695518 10.000000
-0.780361 -3.923141 10.000000
-0.000000 -4.000000 10.000000
0.780361 -3.923141 10.000000
1.530734 -3.695518 10.000000
2.222281 -3.325878 10.000000
2.828427 -2.828427 10.000000
3.325878 -2.222281 10.000000
3.695518 -1.530734 10.000000
3.923141 -0.780361 10.000000
3 1 3 2
3 0 1026 1027
3 1 4 3
3 0 1027 1028
3 1 5 4
3 0 1028 1029
3 1 6 5
3 0 1029 1030
3 1 7 6
3 0 1030 1031
3 1 8 7
3 0 1031 1032
3 1 9 8
3 0 1032 1033
3 1 10 9
3 0 1033 1034
3 1 11 10
3 0 1034 1035
3 1 12 11
3 0 1035 1036
3 1 13 12
3 0 1036 1037
3 1 14 13
3 0 1037 1038
3 1 15 14
3 0 1038 1039
3 1 16 15
3 0 1039 1040
3 1 17 16
3 0 1040 1041
3 1 18 17
3 0 1041 1042
3 1 19 18
3 0 1042 1043
3 1 20 19
3 0 1043 1044
3 1 21 20
3 0 1044 1045
3 1 22 21
3 0 1045 1046
3 1 23 22
3 0 1046 1047
3 1 24 23
3 0 1047 1048
3 1 25 24
3 0 1048 1049
3 1 26 25
3 0 1049 1050
3 1 27 26
3 0 1050 1051
3 1 28 27
3 0 1051 1052
3 1 29 28
3 0 1052 1053
3 1 30 29
3 0 1053 1054
3 1 31 30
3 0 1054 1055
3 1 32 31
3 0 1055 1056
3 1 33 32
3 0 1056 1057
3 1 2 33
3 0 1057 1026
3 2 3 34
3 3 35 34
3 3 4 35
3 4 36 35
3 4 5 36
3 5 37 36
3 5 6 37
3 6 38 37
3 6 7 38
3 7 39 38
3 7 8 39
3 8 40 39
3 8 9 40
3 9 41 40
3 9 10 41
3 10 42 41
3 10 11 42
3 11 43 42
3 11 12 43
3 12 44 43
3 12 13 44
3 13 45 44
3 13 14 45
3 14 46 45
3 14 15 46
3 15 47 46
3 15 16 47
3 16 48 47
3 16 17 48
3 17 49 48
3 17 18 49
3 18 50 49
3 18 19 50
3 19 51 50
3 19 20 51
3 20 52 51
3 20 21 52
3 21 53 52
3 21 22 53
3 22 54 53
3 22 23 54
3 23 55 54
3 23 24 55
3 24 56 55
3 24 25 56
3 25 57 56
3 25 26 57
3 26 58 57
3 26 27 58
3 27 59 58
3 27 28 59
3 28 60 59
3 28 29 60
3 29 61 60
3 29 30 61
3 30 62 61
3 30 31 62
3 31 63 62
3 31 32 63
3 32 64 63
3 32 33 64
3 33 65 64
3 33 2 65
3 2 34 65
3 34 35 66
3 35 67 66
3 35 36 67
3 36 68 67
3 36 37 68
3 37 69 68
3 37 38 69
3 38 70 69
3 38 39 70
3 39 71 70
3 39 40 71
3 40 72 71
3 40 41 72
3 41 73 72
3 41 42 73
3 42 74 73
3 42 43 74
3 43 75 74
3 43 44 75
3 44 76 75
3 44 45 76
3 45 77 76
3 45 46 77
3 46 78 77
3 46 47 78
3 47 79 78
3 47 48 79
3 48 80 79
3 48 49 80
3 49 81 80
3 49 50 81
3 50 82 81
3 50 51 82
3 51 83 82
3 51 52 83
3 52 84 83
3 52 53 84
3 53 85 84
3 53 54 85
3 54 86 85
3 54 55 86
3 55 87 86
3 55 56 87
3 56 88 87
3 56 57 88
3 57 89 88
3 57 58 89
3 58 90 89
3 58 59 90
3 59 91 90
3 59 60 91
3 60 92 91
3 60 61 92
3 61 93 92
3 61 62 93
3 62 94 93
3 62 63 94
3 63 95 94
3 63 64 95
3 64 96 95
3 64 65 96
3 65 97 96
3 65 34 97
3 34 66 97
3 66 67 98
3 67 99 98
3 67 68 99
3 68 100 99
3 68 69 100
3 69 101 100
3 69 70 101
3 70 102 101
3 70 71 102
3 71 103 102
3 71 72 103
3 72 104 103
3 72 73 104
3 73 105 104
3 73 74 105
3 74 106 105
3 74 75 106
3 75 107 106
3 75 76 107
3 76 108 107
3 76 77 108
3 77 109 108
3 77 78 109
3 78 110 109
3 78 79 110
3 79 111 110
3 79 80 111
3 80 112 111
3 80 81 112
3 81 113 112
3 81 82 113
3 82 114 113
3 82 83 114
3 83 115 114
3 83 84 115
3 84 116 115
3 84 85 116
3 85 117 116
3 85 86 117
3 86 118 117
3 86 87 118
3 87 119 118
3 87 88 119
3 88 120 119
3 88 89 120
3 89 121 120
3 89 90 121
3 90 122 121
3 90 91 122
3 91 123 122
3 91 92 123
3 92 124 123
3 92 93 124
3 93 125 124
3 93 94 125
3 94 126 125
3 94 95 126
3 95 127 126
3 95 96 127
3 96 128 127
3 96 97 128
3 97 129 128
3 97 66 129
3 66 98 129
3 98 99 130
3 99 131 130
3 99 100 131
3 100 132 131
3 100 101 132
3 101 133 132
3 101 102 133
3 102 134 133
3 102 103 134
3 103 135 134
3 103 104 135
3 104 136 135
3 104 105 136
3 105 137 136
3 105 106 137
3 106 138 137
3 106 107 138
3 107 139 138
3 107 108 139
3 108 140 139
3 108 109 140
3 109 141 140
3 109 110 141
3 110 142 141
3 110 111 142
3 111 143 142
3 111 112 143
3 112 144 143
3 112 113 144
3 113 145 144
3 113 114 145
3 114 146 145
3 114 115 146
3 115 147 146
3 115 116 147
3 116 148 147
3 116 117 148
3 117 149 148
3 117 118 149
3 118 150 149
3 118 119 150
3 119 151 150
3 119 120 151
3 120 152 151
3 120 121 152
3 121 153 152
3 121 122 153
3 122 154 153
3 122 123 154
3 123 155 154
3 123 124 155
3 124 156 155
3 124 125 156
3 125 157 156
3 125 126 157
3 126 158 157
3 126 127 158
3 127 159 158
3 127 128 159
3 128 160 159
3 128 129 160
3 129 161 160
3 129 98 161
3 98 130 161
3 130 131 162
3 131 163 162
3 131 132 163
3 132 164 163
3 132 133 164
3 133 165 164
3 133 134 165
3 134 166 165
3 134 135 166
3 135 167 166
3 135 136 167
3 136 168 167
3 136 137 168
3 137 169 168
3 137 138 169
3 138 170 169
3 138 139 170
3 139 171 170
3 139 140 171
3 140 172 171
3 140 141 172
3 141 173 172
3 141 142 173
3 142 174 173
3 142 143 174
3 143 175 174
3 143 144 175
3 144 176 175
3 144 145 176
3 145 177 176
3 145 146 177
3 146 178 177
3 146 147 178
3 147 179 178
3 147 148 179
3 148 180 179
3 148 149 180
3 149 181 180
3 149 150 181
3 150 182 181
3 150 151 182
3 151 183 182
3 151 152 183
3 152 184 183
3 152 153 184
3 153 185 184
3 153 154 185
3 154 186 185
3 154 155 186
3 155 187 186
3 155 156 187
3 156 188 187
3 156 157 188
3 157 189 188
3 157 158 189
3 158 190 189
3 158 159 190
3 159 191 190
3 159 160 191
3 160 192 191
3 160 161 192
3 161 193 192
3 161 130 193
3 130 162 193
3 162 163 194
3 163 195 194
3 163 164 195
3 164 196 195
3 164 165 196
3 165 197 196
3 165 166 197
3 166 198 197
3 166 167 198
3 167 199 198
3 167 168 199
3 168 200 199
3 168 169 200
3 169 201 200
3 169 170 201
3 170 202 201
3 170 171 202
3 171 203 202
3 171 172 203
3 172 204 203
3 172 173 204
3 173 205 204
3 173 174 205
3 174 206 205
3 174 175 206
3 175 207 206
3 175 176 207
3 176 208 207
3 176 177 208
3 177 209 208
3 177 178 209
3 178 210 209
3 178 179 210
3 179 211 210
3 179 180 211
3 180 212 211
3 180 181 212
3 181 213 212
3 181 182 213
3 182 214 213
3 182 183 214
3 183 215 214
3 183 184 215
3 184 216 215
3 184 185 216
3 185 217 216
3 185 186 217
3 186 218 217
3 186 187 218
3 187 219 218
3 187 188 219
3 188 220 219
3 188 189 220
3 189 221 220
3 189 190 221
3 190 222 221
3 190 191 222
3 191 223 222
3 191 192 223
3 192 224 223
3 192 193 224
3 193 225 224
3 193 162 225
3 162 194 225
3 194 195 226
3 195 227 226
3 195 196 227
3 196 228 227
3 196 197 228
3 197 229 228
3 197 198 229
3 198 230 229
3 198 199 230
3 199 231 230
3 199 200 231
3 200 232 231
3 200 201 232
3 201 233 232
3 201 202 233
3 202 234 233
3 202 203 234
3 203 235 234
3 203 204 235
3 204 236 235
3 204 205 236
3 205 237 236
3 205 206 237
3 206 238 237
3 206 207 238
3 207 239 238
3 207 208 239
3 208 240 239
3 208 209 240
3 209 241 240
3 209 210 241
3 210 242 241
3 210 211 242
3 211 243 242
3 211 212 243
3 212 244 243
3 212 213 244
3 213 245 244
3 213 214 245
3 214 246 245
3 214 215 246
3 215 247 246
3 215 216 247
3 216 248 247
3 216 217 248
3 217 249 248
3 217 218 249
3 218 250 249
3 218 219 250
3 219 251 250
3 219 220 251
3 220 252 251
3 220 221 252
3 221 253 252
3 221 222 253
3 222 254 253
3 222 223 254
3 223 255 254
3 223 224 255
3 224 256 255
3 224 225 256
3 225 257 256
3 225 194 257
3 194 226 257
3 226 227 258
3 227 259 258
3 227 228 259
3 228 260 259
3 228 229 260
3 229 261 260
3 229 230 261
3 230 262 261
3 230 231 262
3 231 263 262
3 231 232 263
3 232 264 263
3 232 233 264
3 233 265 264
3 233 234 265
3 234 266 265
3 234 235 266
3 235 267 266
3 235 236 267
3 236 268 267
3 236 237 268
3 237 269 268
3 237 238 269
3 238 270 269
3 238 239 270
3 239 271 270
3 239 240 271
3 240 272 271
3 240 241 272
3 241 273 272
3 241 242 273
3 242 274 273
3 242 243 274
3 243 275 274
3 243 244 275
3 244 276 275
3 244 245 276
3 245 277 276
3 245 246 277
3 246 278 277
3 246 247 278
3 247 279 278
3 247 248 279
3 248 280 279
3 248 249 280
3 249 281 280
3 249 250 281
3 250 282 281
3 250 251 282
3 251 283 282
3 251 252 283
3 252 284 283
3 252 253 284
3 253 285 284
3 253 254 285
3 254 286 285
3 254 255 286
3 255 287 286
3 255 256 287
3 256 288 287
3 256 257 288
3 257 289 288
3 257 226 289
3 226 258 289
3 258 259 290
3 259 291 290
3 259 260 291
3 260 292 291
3 260 261 292
3 261 293 292
3 261 262 293
3 262 294 293
3 262 263 294
3 263 295 294
3 263 264 295
3 264 296 295
3 264 265 296
3 265 297 296
3 265 266 297
3 266 298 297
3 266 267 298
3 267 299 298
3 267 268 299
3 268 300 299
3 268 269 300
3 269 301 300
3 269 270 301
3 270 302 301
3 270 271 302
3 271 303 302
3 271 272 303
3 272 304 303
3 272 273 304
3 273 305 304
3 273 274 305
3 274 306 305
3 274 275 306
3 275 307 306
3 275 276 307
3 276 308 307
3 276 277 308
3 277 309 308
3 277 278 309
3 278 310 309
3 278 279 310
3 279 311 310
3 279 280 311
3 280 312 311
3 280 281 312
3 281 313 312
3 281 282 313
3 282 314 313
3 282 283 314
3 283 315 314
3 283 284 315
3 284 316 315
3 284 285 316
3 285 317 316
3 285 286 317
3 286 318 317
3 286 287 318
3 287 319 318
3 287 288 319
3 288 320 319
3 288 289 320
3 289 321 320
3 289 258 321
3 258 290 321
3 290 291 322
3 291 323 322
3 291 292 323
3 292 324 323
3 292 293 324
3 293 325 324
3 293 294 325
3 294 326 325
3 294 295 326
3 295 327 326
3 295 296 327
3 296 328 327
3 296 297 328
3 297 329 328
3 297 298 329
3 298 330 329
3 298 299 330
3 299 331 330
3 299 300 331
3 300 332 331
3 300 301 332
3 301 333 332
3 301 302 333
3 302 334 333
3 302 303 334
3 303 335 334
3 303 304 335
3 304 336 335
3 304 305 336
3 305 337 336
3 305 306 337
3 306 338 337
3 306 307 338
3 307 339 338
3 307 308 339
3 308 340 339
3 308 309 340
3 309 341 340
3 309 310 341
3 310 342 341
3 310 311 342
3 311 343 342
3 311 312 343
3 312 344 343
3 312 313 344
3 313 345 344
3 313 314 345
3 314 346 345
3 314 315 346
3 315 347 346
3 315 316 347
3 316 348 347
3 316 317 348
3 317 349 348
3 317 318 349
3 318 350 349
3 318 319 350
3 319 351 350
3 319 320 351
3 320 352 351
3 320 321 352
3 321 353 352
3 321 290 353
3 290 322 353
3 322 323 354
3 323 355 354
3 323 324 355
3 324 356 355
3 324 325 356
3 325 357 356
3 325 326 357
3 326 358 357
3 326 327 358
3 327 359 358
3 327 328 359
3 328 360 359
3 328 329 360
3 329 361 360
3 329 330 361
3 330 362 361
3 330 331 362
3 331 363 362
3 331 332 363
3 332 364 363
3 332 333 364
3 333 365 364
3 333 334 365
3 334 366 365
3 334 335 366
3 335 367 366
3 335 336 367
3 336 368 367
3 336 337 368
3 337 369 368
3 337 338 369
3 338 370 369
3 338 339 370
3 339 371 370
3 339 340 371
3 340 372 371
3 340 341 372
3 341 373 372
3 341 342 373
3 342 374 373
3 342 343 374
3 343 375 374
3 343 344 375
3 344 376 375
3 344 345 376
3 345 377 376
3 345 346 377
3 346 378 377
3 346 347 378
3 347 379 378
3 347 348 379
3 348 380 379
3 348 349 380
3 349 381 380
3 349 350 381
3 350 382 381
3 350 351 382
3 351 383 382
3 351 352 383
3 352 384 383
3 352 353 384
3 353 385 384
3 353 322 385
3 322 354 385
3 354 355 386
3 355 387 386
3 355 356 387
3 356 388 387
3 356 357 388
3 357 389 388
3 357 358 389
3 358 390 389
3 358 359 390
3 359 391 390
3 359 360 391
3 360 392 391
3 360 361 392
3 361 393 392
3 361 362 393
3 362 394 393
3 362 363 394
3 363 395 394
3 363 364 395
3 364 396 395
3 364 365 396
3 365 397 396
3 365 366 397
3 366 398 397
3 366 367 398
3 367 399 398
3 367 368 399
3 368 400 399
3 368 369 400
3 369 401 400
3 369 370 401
3 370 402 401
3 370 371 402
3 371 403 402
3 371 372 403
3 372 404 403
3 372 373 404
3 373 405 404
3 373 374 405
3 374 406 405
3 374 375 406
3 375 407 406
3 375 376 407
3 376 408 407
3 376 377 408
3 377 409 408
3 377 378 409
3 378 410 409
3 378 379 410
3 379 411 410
3 379 380 411
3 380 412 411
3 380 381 412
3 381 413 412
3 381 382 413
3 382 414 413
3 382 383 414
3 383 415 414
3 383 384 415
3 384 416 415
3 384 385 416
3 385 417 416
3 385 354 417
3 354 386 417
3 386 387 418
3 387 419 418
3 387 388 419
3 388 420 419
3 388 389 420
3 389 421 420
3 389 390 421
3 390 422 421
3 390 391 422
3 391 423 422
3 391 392 423
3 392 424 423
3 392 393 424
3 393 425 424
3 393 394 425
3 394 426 425
3 394 395 426
3 395 427 426
3 395 396 427
3 396 428 427
3 396 397 428
3 397 429 428
3 397 398 429
3 398 430 429
3 398 399 430
3 399 431 430
3 399 400 431
3 400 432 431
3 400 401 432
3 401 433 432
3 401 402 433
3 402 434 433
3 402 403 434
3 403 435 434
3 403 404 435
3 404 436 435
3 404 405 436
3 405 437 436
3 405 406 437
3 406 438 437
3 406 407 438
3 407 439 438
3 407 408 439
3 408 440 439
3 408 409 440
3 409 441 440
3 409 410 441
3 410 442 441
3 410 411 442
3 411 443 442
3 411 412 443
3 412 444 443
3 412 413 444
3 413 445 444
3 413 414 445
3 414 446 445
3 414 415 446
3 415 447 446
3 415 416 447
3 416 448 447
3 416 417 448
3 417 449 448
3 417 386 449
3 386 418 449
3 418 419 450
3 419 451 450
3 419 420 451
3 420 452 451
3 420 421 452
3 421 453 452
3 421 422 453
3 422 454 453
3 422 423 454
3 423 455 454
3 423 424 455
3 424 456 455
3 424 425 456
3 425 457 456
3 425 426 457
3 426 458 457
3 426 427 458
3 427 459 458
3 427 428 459
3 428 460 459
3 428 429 460
3 429 461 460
3 429 430 461
3 430 462 461
3 430 431 462
3 431 463 462
3 431 432 463
3 432 464 463
3 432 433 464
3 433 465 464
3 433 434 465
3 434 466 465
3 434 435 466
3 435 467 466
3 435 436 467
3 436 468 467
3 436 437 468
3 437 469 468
3 437 438 469
3 438 470 469
3 438 439 470
3 439 471 470
3 439 440 471
3 440 472 471
3 440 441 472
3 441 473 472
3 441 442 473
3 442 474 473
3 442 443 474
3 443 475 474
3 443 444 475
3 444 476 475
3 444 445 476
3 445 477 476
3 445 446 477
3 446 478 477
3 446 447 478
3 447 479 478
3 447 448 479
3 448 480 479
3 448 449 480
3 449 481 480
3 449 418 481
3 418 450 481
3 450 451 482
3 451 483 482
3 451 452 483
3 452 484 483
3 452 453 484
3 453 485 484
3 453 454 485
3 454 486 485
3 454 455 486
3 455 487 486
3 455 456 487
3 456 488 487
3 456 457 488
3 457 489 488
3 457 458 489
3 458 490 489
3 458 459 490
3 459 491 490
3 459 460 491
3 460 492 491
3 460 461 492
3 461 493 492
3 461 462 493
3 462 494 493
3 462 463 494
3 463 495 494
3 463 464 495
3 464 496 495
3 464 465 496
3 465 497 496
3 465 466 497
3 466 498 497
3 466 467 498
3 467 499 498
3 467 468 499
3 468 500 499
3 468 469 500
3 469 501 500
3 469 470 501
3 470 502 501
3 470 471 502
3 471 503 502
3 471 472 503
3 472 504 503
3 472 473 504
3 473 505 504
3 473 474 505
3 474 506 505
3 474 475 506
3 475 507 506
3 475 476 507
3 476 508 507
3 476 477 508
3 477 509 508
3 477 478 509
3 478 510 509
3 478 479 510
3 479 511 510
3 479 480 511
3 480 512 511
3 480 481 512
3 481 513 512
3 481 450 513
3 450 482 513
3 482 483 514
3 483 515 514
3 483 484 515
3 484 516 515
3 484 485 516
3 485 517 516
3 485 486 517
3 486 518 517
3 486 487 518
3 487 519 518
3 487 488 519
3 488 520 519
3 488 489 520
3 489 521 520
3 489 490 521
3 490 522 521
3 490 491 522
3 491 523 522
3 491 492 523
3 492 524 523
3 492 493 524
3 493 525 524
3 493 494 525
3 494 526 525
3 494 495 526
3 495 527 526
3 495 496 527
3 496 528 527
3 496 497 528
3 497 529 528
3 497 498 529
3 498 530 529
3 498 499 530
3 499 531 530
3 499 500 531
3 500 532 531
3 500 501 532
3 501 533 532
3 501 502 533
3 502 534 533
3 502 503 534
3 503 535 534
3 503 504 535
3 504 536 535
3 504 505 536
3 505 537 536
3 505 506 537
3 506 538 537
3 506 507 538
3 507 539 538
3 507 508 539
3 508 540 539
3 508 509 540
3 509 541 540
3 509 510 541
3 510 542 541
3 510 511 542
3 511 543 542
3 511 512 543
3 512 544 543
3 512 513 544
3 513 545 544
3 513 482 545
3 482 514 545
3 514 515 546
3 515 547 546
3 515 516 547
3 516 548 547
3 516 517 548
3 517 549 548
3 517 518 549
3 518 550 549
3 518 519 550
3 519 551 550
3 519 520 551
3 520 552 551
3 520 521 552
3 521 553 552
3 521 522 553
3 522 554 553
3 522 523 554
3 523 555 554
3 523 524 555
3 524 556 555
3 524 525 556
3 525 557 556
3 525 526 557
3 526 558 557
3 526 527 558
3 527 559 558
3 527 528 559
3 528 560 559
3 528 529 560
3 529 561 560
3 529 530 561
3 530 562 561
3 530 531 562
3 531 563 562
3 531 532 563
3 532 564 563
3 532 533 564
3 533 565 564
3 533 534 565
3 534 566 565
3 534 535 566
3 535 567 566
3 535 536 567
3 536 568 567
3 536 537 568
3 537 569 568
3 537 538 569
3 538 570 569
3 538 539 570
3 539 571 570
3 539 540 571
3 540 572 571
3 540 541 572
3 541 573 572
3 541 542 573
3 542 574 573
3 542 543 574
3 543 575 574
3 543 544 575
3 544 576 575
3 544 545 576
3 545 577 576
3 545 514 577
3 514 546 577
3 546 547 578
3 547 579 578
3 547 548 579
3 548 580 579
3 548 549 580
3 549 581 580
3 549 550 581
3 550 582 581
3 550 551 582
3 551 583 582
3 551 552 583
3 552 584 583
3 552 553 584
3 553 585 584
3 553 554 585
3 554 586 585
3 554 555 586
3 555 587 586
3 555 556 587
3 556 588 587
3 556 557 588
3 557 589 588
3 557 558 589
3 558 590 589
3 558 559 590
3 559 591 590
3 559 560 591
3 560 592 591
3 560 561 592
3 561 593 592
3 561 562 593
3 562 594 593
3 562 563 594
3 563 595 594
3 563 564 595
3 564 596 595
3 564 565 596
3 565 597 596
3 565 566 597
3 566 598 597
3 566 567 598
3 567 599 598
3 567 568 599
3 568 600 599
3 568 569 600
3 569 601 600
3 569 570 601
3 570 602 601
3 570 571 602
3 571 603 602
3 571 572 603
3 572 604 603
3 572 573 604
3 573 605 604
3 573 574 605
3 574 606 605
3 574 575 606
3 575 607 606
3 575 576 607
3 576 608 607
3 576 577 608
3 577 609 608
3 577 546 609
3 546 578 609
3 578 579 610
3 579 611 610
3 579 580 611
3 580 612 611
3 580 581 612
3 581 613 612
3 581 582 613
3 582 614 613
3 582 583 614
3 583 615 614
3 583 584 615
3 584 616 615
3 584 585 616
3 585 617 616
3 585 586 617
3 586 618 617
3 586 587 618
3 587 619 618
3 587 588 619
3 588 620 619
3 588 589 620
3 589 621 620
3 589 590 621
3 590 622 621
3 590 591 622
3 591 623 622
3 591 592 623
3 592 624 623
3 592 593 624
3 593 625 624
3 593 594 625
3 594 626 625
3 594 595 626
3 595 627 626
3 595 596 627
3 596 628 627
3 596 597 628
3 597 629 628
3 597 598 629
3 598 630 629
3 598 599 630
3 599 631 630
3 599 600 631
3 600 632 631
3 600 601 632
3 601 633 632
3 601 602 633
3 602 634 633
3 602 603 634
3 603 635 634
3 603 604 635
3 604 636 635
3 604 605 636
3 605 637 636
3 605 606 637
3 606 638 637
3 606 607 638
3 607 639 638
3 607 608 639
3 608 640 639
3 608 609 640
3 609 641 640
3 609 578 641
3 578 610 641
3 610 611 642
3 611 643 642
3 611 612 643
3 612 644 643
3 612 613 644
3 613 645 644
3 613 614 645
3 614 646 645
3 614 615 646
3 615 647 646
3 615 616 647
3 616 648 647
3 616 617 648
3 617 649 648
3 617 618 649
3 618 650 649
3 618 619 650
3 619 651 650
3 619 620 651
3 620 652 651
3 620 621 652
3 621 653 652
3 621 622 653
3 622 654 653
3 622 623 654
3 623 655 654
3 623 624 655
3 624 656 655
3 624 625 656
3 625 657 656
3 625 626 657
3 626 658 657
3 626 627 658
3 627 659 658
3 627 628 659
3 628 660 659
3 628 629 660
3 629 661 660
3 629 630 661
3 630 662 661
3 630 631 662
3 631 663 662
3 631 632 663
3 632 664 663
3 632 633 664
3 633 665 664
3 633 634 665
3 634 666 665
3 634 635 666
3 635 667 666
3 635 636 667
3 636 668 667
3 636 637 668
3 637 669 668
3 637 638 669
3 638 670 669
3 638 639 670
3 639 671 670
3 639 640 671
3 640 672 671
3 640 641 672
3 641 673 672
3 641 610 673
3 610 642 673
3 642 643 674
3 643 675 674
3 643 644 675
3 644 676 675
3 644 645 676
3 645 677 676
3 645 646 677
3 646 678 677
3 646 647 678
3 647 679 678
3 647 648 679
3 648 680 679
3 648 649 680
3 649 681 680
3 649 650 681
3 650 682 681
3 650 651 682
3 651 683 682
3 651 652 683
3 652 684 683
3 652 653 684
3 653 685 684
3 653 654 685
3 654 686 685
3 654 655 686
3 655 687 686
3 655 656 687
3 656 688 687
3 656 657 688
3 657 689 688
3 657 658 689
3 658 690 689
3 658 659 690
3 659 691 690
3 659 660 691
3 660 692 691
3 660 661 692
3 661 693 692
3 661 662 693
3 662 694 693
3 662 663 694
3 663 695 694
3 663 664 695
3 664 696 695
3 664 665 696
3 665 697 696
3 665 666 697
3 666 698 697
3 666 667 698
3 667 699 698
3 667 668 699
3 668 700 699
3 668 669 700
3 669 701 700
3 669 670 701
3 670 702 701
3 670 671 702
3 671 703 702
3 671 672 703
3 672 704 703
3 672 673 704
3 673 705 704
3 673 642 705
3 642 674 705
3 674 675 706
3 675 707 706
3 675 676 707
3 676 708 707
3 676 677 708
3 677 709 708
3 677 678 709
3 678 710 709
3 678 679 710
3 679 711 710
3 679 680 711
3 680 712 711
3 680 681 712
3 681 713 712
3 681 682 713
3 682 714 713
3 682 683 714
3 683 715 714
3 683 684 715
3 684 716 715
3 684 685 716
3 685 717 716
3 685 686 717
3 686 718 717
3 686 687 718
3 687 719 718
3 687 688 719
3 688 720 719
3 688 689 720
3 689 721 720
3 689 690 721
3 690 722 721
3 690 691 722
3 691 723 722
3 691 692 723
3 692 724 723
3 692 693 724
3 693 725 724
3 693 694 725
3 694 726 725
3 694 695 726
3 695 727 726
3 695 696 727
3 696 728 727
3 696 697 728
3 697 729 728
3 697 698 729
3 698 730 729
3 698 699 730
3 699 731 730
3 699 700 731
3 700 732 731
3 700 701 732
3 701 733 732
3 701 702 733
3 702 734 733
3 702 703 734
3 703 735 734
3 703 704 735
3 704 736 735
3 704 705 736
3 705 737 736
3 705 674 737
3 674 706 737
3 706 707 738
3 707 739 738
3 707 708 739
3 708 740 739
3 708 709 740
3 709 741 740
3 709 710 741
3 710 742 741
3 710 711 742
3 711 743 742
3 711 712 743
3 712 744 743
3 712 713 744
3 713 745 744
3 713 714 745
3 714 746 745
3 714 715 746
3 715 747 746
3 715 716 747
3 716 748 747
3 716 717 748
3 717 749 748
3 717 718 749
3 718 750 749
3 718 719 750
3 719 751 750
3 719 720 751
3 720 752 751
3 720 721 752
3 721 753 752
3 721 722 753
3 722 754 753
3 722 723 754
3 723 755 754
3 723 724 755
3 724 756 755
3 724 725 756
3 725 757 756
3 725 726 757
3 726 758 757
3 726 727 758
3 727 759 758
3 727 728 759
3 728 760 759
3 728 729 760
3 729 761 760
3 729 730 761
3 730 762 761
3 730 731 762
3 731 763 762
3 731 732 763
3 732 764 763
3 732 733 764
3 733 765 764
3 733 734 765
3 734 766 765
3 734 735 766
3 735 767 766
3 735 736 767
3 736 768 767
3 736 737 768
3 737 769 768
3 737 706 769
3 706 738 769
3 738 739 770
3 739 771 770
3 739 740 771
3 740 772 771
3 740 741 772
3 741 773 772
3 741 742 773
3 742 774 773
3 742 743 774
3 743 775 774
3 743 744 775
3 744 776 775
3 744 745 776
3 745 777 776
3 745 746 777
3 746 778 777
3 746 747 778
3 747 779 778
3 747 748 779
3 748 780 779
3 748 749 780
3 749 781 780
3 749 750 781
3 750 782 781
3 750 751 782
3 751 783 782
3 751 752 783
3 752 784 783
3 752 753 784
3 753 785 784
3 753 754 785
3 754 786 785
3 754 755 786
3 755 787 786
3 755 756 787
3 756 788 787
3 756 757 788
3 757 789 788
3 757 758 789
3 758 790 789
3 758 759 790
3 759 791 790
3 759 760 791
3 760 792 791
3 760 761 792
3 761 793 792
3 761 762 793
3 762 794 793
3 762 763 794
3 763 795 794
3 763 764 795
3 764 796 795
3 764 765 796
3 765 797 796
3 765 766 797
3 766 798 797
3 766 767 798
3 767 799 798
3 767 768 799
3 768 800 799
3 768 769 800
3 769 801 800
3 769 738 801
3 738 770 801
3 770 771 802
3 771 803 802
3 771 772 803
3 772 804 803
3 772 773 804
3 773 805 804
3 773 774 805
3 774 806 805
3 774 775 806
3 775 807 806
3 775 776 807
3 776 808 807
3 776 777 808
3 777 809 808
3 777 778 809
3 778 810 809
3 778 779 810
3 779 811 810
3 779 780 811
3 780 812 811
3 780 781 812
3 781 813 812
3 781 782 813
3 782 814 813
3 782 783 814
3 783 815 814
3 783 784 815
3 784 816 815
3 784 785 816
3 785 817 816
3 785 786 817
3 786 818 817
3 786 787 818
3 787 819 818
3 787 788 819
3 788 820 819
3 788 789 820
3 789 821 820
3 789 790 821
3 790 822 821
3 790 791 822
3 791 823 822
3 791 792 823
3 792 824 823
3 792 793 824
3 793 825 824
3 793 794 825
3 794 826 825
3 794 795 826
3 795 827 826
3 795 796 827
3 796 828 827
3 796 797 828
3 797 829 828
3 797 798 829
3 798 830 829
3 798 799 830
3 799 831 830
3 799 800 831
3 800 832 831
3 800 801 832
3 801 833 832
3 801 770 833
3 770 802 833
3 802 803 834
3 803 835 834
3 803 804 835
3 804 836 835
3 804 805 836
3 805 837 836
3 805 806 837
3 806 838 837
3 806 807 838
3 807 839 838
3 807 808 839
3 808 840 839
3 808 809 840
3 809 841 840
3 809 810 841
3 810 842 841
3 810 811 842
3 811 843 842
3 811 812 843
3 812 844 843
3 812 813 844
3 813 845 844
3 813 814 845
3 814 846 845
3 814 815 846
3 815 847 846
3 815 816 847
3 816 848 847
3 816 817 848
3 817 849 848
3 817 818 849
3 818 850 849
3 818 819 850
3 819 851 850
3 819 820 851
3 820 852 851
3 820 821 852
3 821 853 852
3 821 822 853
3 822 854 853
3 822 823 854
3 823 855 854
3 823 824 855
3 824 856 855
3 824 825 856
3 825 857 856
3 825 826 857
3 826 858 857
3 826 827 858
3 827 859 858
3 827 828 859
3 828 860 859
3 828 829 860
3 829 861 860
3 829 830 861
3 830 862 861
3 830 831 862
3 831 863 862
3 831 832 863
3 832 864 863
3 832 833 864
3 833 865 864
3 833 802 865
3 802 834 865
3 834 835 866
3 835 867 866
3 835 836 867
3 836 868 867
3 836 837 868
3 837 869 868
3 837 838 869
3 838 870 869
3 838 839 870
3 839 871 870
3 839 840 871
3 840 872 871
3 840 841 872
3 841 873 872
3 841 842 873
3 842 874 873
3 842 843 874
3 843 875 874
3 843 844 875
3 844 876 875
3 844 845 876
3 845 877 876
3 845 846 877
3 846 878 877
3 846 847 878
3 847 879 878
3 847 848 879
3 848 880 879
3 848 849 880
3 849 881 880
3 849 850 881
3 850 882 881
3 850 851 882
3 851 883 882
3 851 852 883
3 852 884 883
3 852 853 884
3 853 885 884
3 853 854 885
3 854 886 885
3 854 855 886
3 855 887 886
3 855 856 887
3 856 888 887
3 856 857 888
3 857 889 888
3 857 858 889
3 858 890 889
3 858 859 890
3 859 891 890
3 859 860 891
3 860 892 891
3 860 861 892
3 861 893 892
3 861 862 893
3 862 894 893
3 862 863 894
3 863 895 894
3 863 864 895
3 864 896 895
3 864 865 896
3 865 897 896
3 865 834 897
3 834 866 897
3 866 867 898
3 867 899 898
3 867 868 899
3 868 900 899
3 868 869 900
3 869 901 900
3 869 870 901
3 870 902 901
3 870 871 902
3 871 903 902
3 871 872 903
3 872 904 903
3 872 873 904
3 873 905 904
3 873 874 905
3 874 906 905
3 874 875 906
3 875 907 906
3 875 876 907
3 876 908 907
3 876 877 908
3 877 909 908
3 877 878 909
3 878 910 909
3 878 879 910
3 879 911 910
3 879 880 911
3 880 912 911
3 880 881 912
3 881 913 912
3 881 882 913
3 882 914 913
3 882 883 914
3 883 915 914
3 883 884 915
3 884 916 915
3 884 885 916
3 885 917 916
3 885 886 917
3 886 918 917
3 886 887 918
3 887 919 918
3 887 888 919
3 888 920 919
3 888 889 920
3 889 921 920
3 889 890 921
3 890 922 921
3 890 891 922
3 891 923 922
3 891 892 923
3 892 924 923
3 892 893 924
3 893 925 924
3 893 894 925
3 894 926 925
3 894 895 926
3 895 927 926
3 895 896 927
3 896 928 927
3 896 897 928
3 897 929 928
3 897 866 929
3 866 898 929
3 898 899 930
3 899 931 930
3 899 900 931
3 900 932 931
3 900 901 932
3 901 933 932
3 901 902 933
3 902 934 933
3 902 903 934
3 903 935 934
3 903 904 935
3 904 936 935
3 904 905 936
3 905 937 936
3 905 906 937
3 906 938 937
3 906 907 938
3 907 939 938
3 907 908 939
3 908 940 939
3 908 909 940
3 909 941 940
3 909 910 941
3 910 942 941
3 910 911 942
3 911 943 942
3 911 912 943
3 912 944 943
3 912 913 944
3 913 945 944
3 913 914 945
3 914 946 945
3 914 915 946
3 915 947 946
3 915 916 947
3 916 948 947
3 916 917 948
3 917 949 948
3 917 918 949
3 918 950 949
3 918 919 950
3 919 951 950
3 919 920 951
3 920 952 951
3 920 921 952
3 921 953 952
3 921 922 953
3 922 954 953
3 922 923 954
3 923 955 954
3 923 924 955
3 924 956 955
3 924 925 956
3 925 957 956
3 925 926 957
3 926 958 957
3 926 927 958
3 927 959 958
3 927 928 959
3 928 960 959
3 928 929 960
3 929 961 960
3 929 898 961
3 898 930 961
3 930 931 962
3 931 963 962
3 931 932 963
3 932 964 963
3 932 933 964
3 933 965 964
3 933 934 965
3 934 966 965
3 934 935 966
3 935 967 966
3 935 936 967
3 936 968 967
3 936 937 968
3 937 969 968
3 937 938 969
3 938 970 969
3 938 939 970
3 939 971 970
3 939 940 971
3 940 972 971
3 940 941 972
3 941 973 972
3 941 942 973
3 942 974 973
3 942 943 974
3 943 975 974
3 943 944 975
3 944 976 975
3 944 945 976
3 945 977 976
3 945 946 977
3 946 978 977
3 946 947 978
3 947 979 978
3 947 948 979
3 948 980 979
3 948 949 980
3 949 981 980
3 949 950 981
3 950 982 981
3 950 951 982
3 951 983 982
3 951 952 983
3 952 984 983
3 952 953 984
3 953 985 984
3 953 954 985
3 954 986 985
3 954 955 986
3 955 987 986
3 955 956 987
3 956 988 987
3 956 957 988
3 957 989 988
3 957 958 989
3 958 990 989
3 958 959 990
3 959 991 990
3 959 960 991
3 960 992 991
3 960 961 992
3 961 993 992
3 961 930 993
3 930 962 993
3 962 963 994
3 963 995 994
3 963 964 995
3 964 996 995
3 964 965 996
3 965 997 996
3 965 966 997
3 966 998 997
3 966 967 998
3 967 999 998
3 967 968 999
3 968 1000 999
3 968 969 1000
3 969 1001 1000
3 969 970 1001
3 970 1002 1001
3 970 971 1002
3 971 1003 1002
3 971 972 1003
3 972 1004 1003
3 972 973 1004
3 973 1005 1004
3 973 974 1005
3 974 1006 1005
3 974 975 1006
3 975 1007 1006
3 975 976 1007
3 976 1008 1007
3 976 977 1008
3 977 1009 1008
3 977 978 1009
3 978 1010 1009
3 978 979 1010
3 979 1011 1010
3 979 980 1011
3 980 1012 1011
3 980 981 1012
3 981 1013 1012
3 981 982 1013
3 982 1014 1013
3 982 983 1014
3 983 1015 1014
3 983 984 1015
3 984 1016 1015
3 984 985 1016
3 985 1017 1016
3 985 986 1017
3 986 1018 1017
3 986 987 1018
3 987 1019 1018
3 987 988 1019
3 988 1020 1019
3 988 989 1020
3 989 1021 1020
3 989 990 1021
3 990 1022 1021
3 990 991 1022
3 991 1023 1022
3 991 992 1023
3 992 1024 1023
3 992 993 1024
3 993 1025 1024
3 993 962 1025
3 962 994 1025
3 994 995 1026
3 995 1027 1026
3 995 996 1027
3 996 1028 1027
3 996 997 1028
3 997 1029 1028
3 997 998 1029
3 998 1030 1029
3 998 999 1030
3 999 1031 1030
3 999 1000 1031
3 1000 1032 1031
3 1000 1001 1032
3 1001 1033 1032
3 1001 1002 1033
3 1002 1034 1033
3 1002 1003 1034
3 1003 1035 1034
3 1003 1004 1035
3 1004 1036 1035
3 1004 1005 1036
3 1005 1037 1036
3 1005 1006 1037
3 1006 1038 1037
3 1006 1007 1038
3 1007 1039 1038
3 1007 1008 1039
3 1008 1040 1039
3 1008 1009 1040
3 1009 1041 1040
3 1009 1010 1041
3 1010 1042 1041
3 1010 1011 1042
3 1011 1043 1042
3 1011 1012 1043
3 1012 1044 1043
3 1012 1013 1044
3 1013 1045 1044
3 1013 1014 1045
3 1014 1046 1045
3 1014 1015 1046
3 1015 1047 1046
3 1015 1016 1047
3 1016 1048 1047
3 1016 1017 1048
3 1017 1049 1048
3 1017 1018 1049
3 1018 1050 1049
3 1018 1019 1050
3 1019 1051 1050
3 1019 1020 1051
3 1020 1052 1051
3 1020 1021 1052
3 1021 1053 1052
3 1021 1022 1053
3 1022 1054 1053
3 1022 1023 1054
3 1023 1055 1054
3 1023 1024 1055
3 1024 1056 1055
3 1024 1025 1056
3 1025 1057 1056
3 1025 994 1057
3 994 1026 1057
