OFF
274 544 0
0.000000 0.000000 10.000000
0.000000 0.000000 -10.000000
4.000000 0.000000 -10.000000
3.695518 1.530734 -10.000000
2.828427 2.828427 -10.000000
1.530734 3.695518 -10.000000
0.000000 4.000000 -10.000000
-1.530734 3.695518 -10.000000
-2.828427 2.828427 -10.000000
-3.695518 1.530734 -10.000000
-4.000000 0.000000 -10.000000
-3.695518 -1.530734 -10.000000
-2.828427 -2.828427 -10.000000
-1.530734 -3.695518 -10.000000
-0.000000 -4.000000 -10.000000
1.530734 -3.695518 -10.000000
2.828427 -2.828427 -10.000000
3.695518 -1.530734 -10.000000
3.512274 0.000000 -8.750000
3.244918 1.344089 -8.750000
2.483553 2.483553 -8.750000
1.344089 3.244918 -8.750000
0.000000 3.512274 -8.750000
-1.344089 3.244918 -8.750000
-2.483553 2.483553 -8.750000
-3.244918 1.344089 -8.750000
-3.512274 0.000000 -8.750000
-3.244918 -1.344089 -8.750000
-2.483553 -2.483553 -8.750000
-1.344089 -3.244918 -8.750000
-0.000000 -3.512274 -8.750000
1.344089 -3.244918 -8.750000
2.483553 -2.483553 -8.750000
3.244918 -1.344089 -8.750000
3.043291 0.000000 -7.500000
2.811635 1.164617 -7.500000
2.151932 2.151932 -7.500000
1.164617 2.811635 -7.500000
0.000000 3.043291 -7.500000
-1.164617 2.811635 -7.500000
-2.151932 2.151932 -7.500000
-2.811635 1.164617 -7.500000
-3.043291 0.000000 -7.500000
-2.811635 -1.164617 -7.500000
-2.151932 -2.151932 -7.500000
-1.164617 -2.811635 -7.500000
-0.000000 -3.043291 -7.500000
1.164617 -2.811635 -7.500000
2.151932 -2.151932 -7.500000
2.811635 -1.164617 -7.500000
2.611074 0.000000 -6.250000
2.412318 0.999215 -6.250000
1.846308 1.846308 -6.250000
0.999215 2.412318 -6.250000
0.000000 2.611074 -6.250000
-0.999215 2.412318 -6.250000
-1.846308 1.846308 -6.250000
-2.412318 0.999215 -6.250000
-2.611074 0.000000 -6.250000
-2.412318 -0.999215 -6.250000
-1.846308 -1.846308 -6.250000
-0.999215 -2.412318 -6.250000
-0.000000 -2.611074 -6.250000
0.999215 -2.412318 -6.250000
1.846308 -1.846308 -6.250000
2.412318 -0.999215 -6.250000
2.232233 0.000000 -5.000000
2.062314 0.854239 -5.000000
1.578427 1.578427 -5.000000
0.854239 2.062314 -5.000000
0.000000 2.232233 -5.000000
-0.854239 2.062314 -5.000000
-1.578427 1.578427 -5.000000
-2.062314 0.854239 -5.000000
-2.232233 0.000000 -5.000000
-2.062314 -0.854239 -5.000000
-1.578427 -1.578427 -5.000000
-0.854239 -2.062314 -5.000000
-0.000000 -2.232233 -5.000000
0.854239 -2.062314 -5.000000
1.578427 -1.578427 -5.000000
2.062314 -0.854239 -5.000000
1.921326 0.000000 -3.750000
1.775074 0.735260 -3.750000
1.358583 1.358583 -3.750000
0.735260 1.775074 -3.750000
0.000000 1.921326 -3.750000
-0.735260 1.775074 -3.750000
-1.358583 1.358583 -3.750000
-1.775074 0.735260 -3.750000
-1.921326 0.000000 -3.750000
-1.775074 -0.735260 -3.750000
-1.358583 -1.358583 -3.750000
-0.735260 -1.775074 -3.750000
-0.000000 -1.921326 -3.750000
0.735260 -1.775074 -3.750000
1.358583 -1.358583 -3.750000
1.775074 -0.735260 -3.750000
1.690301 0.000000 -2.500000
1.561635 0.646850 -2.500000
1.195223 1.195223 -2.500000
0.646850 1.561635 -2.500000
0.000000 1.690301 -2.500000
-0.646850 1.561635 -2.500000
-1.195223 1.195223 -2.500000
-1.561635 0.646850 -2.500000
-1.690301 0.000000 -2.500000
-1.561635 -0.646850 -2.500000
-1.195223 -1.195223 -2.500000
-0.646850 -1.561635 -2.500000
-0.000000 -1.690301 -2.500000
0.646850 -1.561635 -2.500000
1.195223 -1.195223 -2.500000
1.561635 -0.646850 -2.500000
1.548037 0.000000 -1.250000
1.430200 0.592408 -1.250000
1.094627 1.094627 -1.250000
0.592408 1.430200 -1.250000
0.000000 1.548037 -1.250000
-0.592408 1.430200 -1.250000
-1.094627 1.094627 -1.250000
-1.430200 0.592408 -1.250000
-1.548037 0.000000 -1.250000
-1.430200 -0.592408 -1.250000
-1.094627 -1.094627 -1.250000
-0.592408 -1.430200 -1.250000
-0.000000 -1.548037 -1.250000
0.592408 -1.430200 -1.250000
1.094627 -1.094627 -1.250000
1.430200 -0.592408 -1.250000
1.500000 0.000000 0.000000
1.385819 0.574025 0.000000
1.060660 1.060660 0.000000
0.574025 1.385819 0.000000
0.000000 1.500000 0.000000
-0.574025 1.385819 0.000000
-1.060660 1.060660 0.000000
-1.385819 0.574025 0.000000
-1.500000 0.000000 0.000000
-1.385819 -0.574025 0.000000
-1.060660 -1.060660 0.000000
-0.574025 -1.385819 0.000000
-0.000000 -1.500000 0.000000
0.574025 -1.385819 0.000000
1.060660 -1.060660 0.000000
1.385819 -0.574025 0.000000
1.548037 0.000000 1.250000
1.430200 0.592408 1.250000
1.094627 1.094627 1.250000
0.592408 1.430200 1.250000
0.000000 1.548037 1.250000
-0.592408 1.430200 1.250000
-1.094627 1.094627 1.250000
-1.430200 0.592408 1.250000
-1.548037 0.000000 1.250000
-1.430200 -0.592408 1.250000
-1.094627 -1.094627 1.250000
-0.592408 -1.430200 1.250000
-0.000000 -1.548037 1.250000
0.592408 -1.430200 1.250000
1.094627 -1.094627 1.250000
1.430200 -0.592408 1.250000
1.690301 0.000000 2.500000
1.561635 0.646850 2.500000
1.195223 1.195223 2.500000
0.646850 1.561635 2.500000
0.000000 1.690301 2.500000
-0.646850 1.561635 2.500000
-1.195223 1.195223 2.500000
-1.561635 0.646850 2.500000
-1.690301 0.000000 2.500000
-1.561635 -0.646850 2.500000
-1.195223 -1.195223 2.500000
-0.646850 -1.561635 2.500000
-0.000000 -1.690301 2.500000
0.646850 -1.561635 2.500000
1.195223 -1.195223 2.500000
1.561635 -0.646850 2.500000
1.921326 0.000000 3.750000
1.775074 0.735260 3.750000
1.358583 1.358583 3.750000
0.735260 1.775074 3.750000
0.000000 1.921326 3.750000
-0.735260 1.775074 3.750000
-1.358583 1.358583 3.750000
-1.775074 0.735260 3.750000
-1.921326 0.000000 3.750000
-1.775074 -0.735260 3.750000
-1.358583 -1.358583 3.750000
-0.735260 -1.775074 3.750000
-0.000000 -1.921326 3.750000
0.735260 -1.775074 3.750000
1.358583 -1.358583 3.750000
1.775074 -0.735260 3.750000
2.232233 0.000000 5.000000
2.062314 0.854239 5.000000
1.578427 1.578427 5.000000
0.854239 2.062314 5.000000
0.000000 2.232233 5.000000
-0.854239 2.062314 5.000000
-1.578427 1.578427 5.000000
-2.062314 0.854239 5.000000
-2.232233 0.000000 5.000000
-2.062314 -0.854239 5.000000
-1.578427 -1.578427 5.000000
-0.854239 -2.062314 5.000000
-0.000000 -2.232233 5.000000
0.854239 -2.062314 5.000000
1.578427 -1.578427 5.000000
2.062314 -0.854239 5.000000
2.611074 0.000000 6.250000
2.412318 0.999215 6.250000
1.846308 1.846308 6.250000
0.999215 2.412318 6.250000
0.000000 2.611074 6.250000
-0.999215 2.412318 6.250000
-1.846308 1.846308 6.250000
-2.412318 0.999215 6.250000
-2.611074 0.000000 6.250000
-2.412318 -0.999215 6.250000
-1.846308 -1.846308 6.250000
-0.999215 -2.412318 6.250000
-0.000000 -2.611074 6.250000
0.999215 -2.412318 6.250000
1.846308 -1.846308 6.250000
2.412318 -0.999215 6.250000
3.043291 0.000000 7.500000
2.811635 1.164617 7.500000
2.151932 2.151932 7.500000
1.164617 2.811635 7.500000
0.000000 3.043291 7.500000
-1.164617 2.811635 7.500000
-2.151932 2.151932 7.500000
-2.811635 1.164617 7.500000
-3.043291 0.000000 7.500000
-2.811635 -1.164617 7.500000
-2.151932 -2.151932 7.500000
-1.164617 -2.811635 7.500000
-0.000000 -3.043291 7.500000
1.164617 -2.811635 7.500000
2.151932 -2.151932 7.500000
2.811635 -1.164617 7.500000
3.512274 0.000000 8.750000
3.244918 1.344089 8.750000
2.483553 2.483553 8.750000
1.344089 3.244918 8.750000
0.000000 3.512274 8.750000
-1.344089 3.244918 8.750000
-2.483553 2.483553 8.750000
-3.244918 1.344089 8.750000
-3.512274 0.000000 8.750000
-3.244918 -1.344089 8.750000
-2.483553 -2.483553 8.750000
-1.344089 -3.244918 8.750000
-0.000000 -3.512274 8.750000
1.344089 -3.244918 8.750000
2.483553 -2.483553 8.750000
3.244918 -1.344089 8.750000
4.000000 0.000000 10.000000
3.695518 1.530734 10.000000
2.828427 2.828427 10.000000
1.530734 3.695518 10.000000
0.000000 4.000000 10.000000
-1.530734 3.695518 10.000000
-2.828427 2.828427 10.000000
-3.695518 1.530734 10.000000
-4.000000 0.000000 10.000000
-3.695518 -1.530734 10.000000
-2.828427 -2.828427 10.000000
-1.530734 -3.695518 10.000000
-0.000000 -4.000000 10.000000
1.530734 -3.695518 10.000000
2.828427 -2.828427 10.000000
3.695518 -1.530734 10.000000
3 1 3 2
3 0 258 259
3 1 4 3
3 0 259 260
3 1 5 4
3 0 260 261
3 1 6 5
3 0 261 262
3 1 7 6
3 0 262 263
3 1 8 7
3 0 263 264
3 1 9 8
3 0 264 265
3 1 10 9
3 0 265 266
3 1 11 10
3 0 266 267
3 1 12 11
3 0 267 268
3 1 13 12
3 0 268 269
3 1 14 13
3 0 269 270
3 1 15 14
3 0 270 271
3 1 16 15
3 0 271 272
3 1 17 16
3 0 272 273
3 1 2 17
3 0 273 258
3 2 3 18
3 3 19 18
3 3 4 19
3 4 20 19
3 4 5 20
3 5 21 20
3 5 6 21
3 6 22 21
3 6 7 22
3 7 23 22
3 7 8 23
3 8 24 23
3 8 9 24
3 9 25 24
3 9 10 25
3 10 26 25
3 10 11 26
3 11 27 26
3 11 12 27
3 12 28 27
3 12 13 28
3 13 29 28
3 13 14 29
3 14 30 29
3 14 15 30
3 15 31 30
3 15 16 31
3 16 32 31
3 16 17 32
3 17 33 32
3 17 2 33
3 2 18 33
3 18 19 34
3 19 35 34
3 19 20 35
3 20 36 35
3 20 21 36
3 21 37 36
3 21 22 37
3 22 38 37
3 22 23 38
3 23 39 38
3 23 24 39
3 24 40 39
3 24 25 40
3 25 41 40
3 25 26 41
3 26 42 41
3 26 27 42
3 27 43 42
3 27 28 43
3 28 44 43
3 28 29 44
3 29 45 44
3 29 30 45
3 30 46 45
3 30 31 46
3 31 47 46
3 31 32 47
3 32 48 47
3 32 33 48
3 33 49 48
3 33 18 49
3 18 34 49
3 34 35 50
3 35 51 50
3 35 36 51
3 36 52 51
3 36 37 52
3 37 53 52
3 37 38 53
3 38 54 53
3 38 39 54
3 39 55 54
3 39 40 55
3 40 56 55
3 40 41 56
3 41 57 56
3 41 42 57
3 42 58 57
3 42 43 58
3 43 59 58
3 43 44 59
3 44 60 59
3 44 45 60
3 45 61 60
3 45 46 61
3 46 62 61
3 46 47 62
3 47 63 62
3 47 48 63
3 48 64 63
3 48 49 64
3 49 65 64
3 49 34 65
3 34 50 65
3 50 51 66
3 51 67 66
3 51 52 67
3 52 68 67
3 52 53 68
3 53 69 68
3 53 54 69
3 54 70 69
3 54 55 70
3 55 71 70
3 55 56 71
3 56 72 71
3 56 57 72
3 57 73 72
3 57 58 73
3 58 74 73
3 58 59 74
3 59 75 74
3 59 60 75
3 60 76 75
3 60 61 76
3 61 77 76
3 61 62 77
3 62 78 77
3 62 63 78
3 63 79 78
3 63 64 79
3 64 80 79
3 64 65 80
3 65 81 80
3 65 50 81
3 50 66 81
3 66 67 82
3 67 83 82
3 67 68 83
3 68 84 83
3 68 69 84
3 69 85 84
3 69 70 85
3 70 86 85
3 70 71 86
3 71 87 86
3 71 72 87
3 72 88 87
3 72 73 88
3 73 89 88
3 73 74 89
3 74 90 89
3 74 75 90
3 75 91 90
3 75 76 91
3 76 92 91
3 76 77 92
3 77 93 92
3 77 78 93
3 78 94 93
3 78 79 94
3 79 95 94
3 79 80 95
3 80 96 95
3 80 81 96
3 81 97 96
3 81 66 97
3 66 82 97
3 82 83 98
3 83 99 98
3 83 84 99
3 84 100 99
3 84 85 100
3 85 101 100
3 85 86 101
3 86 102 101
3 86 87 102
3 87 103 102
3 87 88 103
3 88 104 103
3 88 89 104
3 89 105 104
3 89 90 105
3 90 106 105
3 90 91 106
3 91 107 106
3 91 92 107
3 92 108 107
3 92 93 108
3 93 109 108
3 93 94 109
3 94 110 109
3 94 95 110
3 95 111 110
3 95 96 111
3 96 112 111
3 96 97 112
3 97 113 112
3 97 82 113
3 82 98 113
3 98 99 114
3 99 115 114
3 99 100 115
3 100 116 115
3 100 101 116
3 101 117 116
3 101 102 117
3 102 118 117
3 102 103 118
3 103 119 118
3 103 104 119
3 104 120 119
3 104 105 120
3 105 121 120
3 105 106 121
3 106 122 121
3 106 107 122
3 107 123 122
3 107 108 123
3 108 124 123
3 108 109 124
3 109 125 124
3 109 110 125
3 110 126 125
3 110 111 126
3 111 127 126
3 111 112 127
3 112 128 127
3 112 113 128
3 113 129 128
3 113 98 129
3 98 114 129
3 114 115 130
3 115 131 130
3 115 116 131
3 116 132 131
3 116 117 132
3 117 133 132
3 117 118 133
3 118 134 133
3 118 119 134
3 119 135 134
3 119 120 135
3 120 136 135
3 120 121 136
3 121 137 136
3 121 122 137
3 122 138 137
3 122 123 138
3 123 139 138
3 123 124 139
3 124 140 139
3 124 125 140
3 125 141 140
3 125 126 141
3 126 142 141
3 126 127 142
3 127 143 142
3 127 128 143
3 128 144 143
3 128 129 144
3 129 145 144
3 129 114 145
3 114 130 145
3 130 131 146
3 131 147 146
3 131 132 147
3 132 148 147
3 132 133 148
3 133 149 148
3 133 134 149
3 134 150 149
3 134 135 150
3 135 151 150
3 135 136 151
3 136 152 151
3 136 137 152
3 137 153 152
3 137 138 153
3 138 154 153
3 138 139 154
3 139 155 154
3 139 140 155
3 140 156 155
3 140 141 156
3 141 157 156
3 141 142 157
3 142 158 157
3 142 143 158
3 143 159 158
3 143 144 159
3 144 160 159
3 144 145 160
3 145 161 160
3 145 130 161
3 130 146 161
3 146 147 162
3 147 163 162
3 147 148 163
3 148 164 163
3 148 149 164
3 149 165 164
3 149 150 165
3 150 166 165
3 150 151 166
3 151 167 166
3 151 152 167
3 152 168 167
3 152 153 168
3 153 169 168
3 153 154 169
3 154 170 169
3 154 155 170
3 155 171 170
3 155 156 171
3 156 172 171
3 156 157 172
3 157 173 172
3 157 158 173
3 158 174 173
3 158 159 174
3 159 175 174
3 159 160 175
3 160 176 175
3 160 161 176
3 161 177 176
3 161 146 177
3 146 162 177
3 162 163 178
3 163 179 178
3 163 164 179
3 164 180 179
3 164 165 180
3 165 181 180
3 165 166 181
3 166 182 181
3 166 167 182
3 167 183 182
3 167 168 183
3 168 184 183
3 168 169 184
3 169 185 184
3 169 170 185
3 170 186 185
3 170 171 186
3 171 187 186
3 171 172 187
3 172 188 187
3 172 173 188
3 173 189 188
3 173 174 189
3 174 190 189
3 174 175 190
3 175 191 190
3 175 176 191
3 176 192 191
3 176 177 192
3 177 193 192
3 177 162 193
3 162 178 193
3 178 179 194
3 179 195 194
3 179 180 195
3 180 196 195
3 180 181 196
3 181 197 196
3 181 182 197
3 182 198 197
3 182 183 198
3 183 199 198
3 183 184 199
3 184 200 199
3 184 185 200
3 185 201 200
3 185 186 201
3 186 202 201
3 186 187 202
3 187 203 202
3 187 188 203
3 188 204 203
3 188 189 204
3 189 205 204
3 189 190 205
3 190 206 205
3 190 191 206
3 191 207 206
3 191 192 207
3 192 208 207
3 192 193 208
3 193 209 208
3 193 178 209
3 178 194 209
3 194 195 210
3 195 211 210
3 195 196 211
3 196 212 211
3 196 197 212
3 197 213 212
3 197 198 213
3 198 214 213
3 198 199 214
3 199 215 214
3 199 200 215
3 200 216 215
3 200 201 216
3 201 217 216
3 201 202 217
3 202 218 217
3 202 203 218
3 203 219 218
3 203 204 219
3 204 220 219
3 204 205 220
3 205 221 220
3 205 206 221
3 206 222 221
3 206 207 222
3 207 223 222
3 207 208 223
3 208 224 223
3 208 209 224
3 209 225 224
3 209 194 225
3 194 210 225
3 210 211 226
3 211 227 226
3 211 212 227
3 212 228 227
3 212 213 228
3 213 229 228
3 213 214 229
3 214 230 229
3 214 215 230
3 215 231 230
3 215 216 231
3 216 232 231
3 216 217 232
3 217 233 232
3 217 218 233
3 218 234 233
3 218 219 234
3 219 235 234
3 219 220 235
3 220 236 235
3 220 221 236
3 221 237 236
3 221 222 237
3 222 238 237
3 222 223 238
3 223 239 238
3 223 224 239
3 224 240 239
3 224 225 240
3 225 241 240
3 225 210 241
3 210 226 241
3 226 227 242
3 227 243 242
3 227 228 243
3 228 244 243
3 228 229 244
3 229 245 244
3 229 230 245
3 230 246 245
3 230 231 246
3 231 247 246
3 231 232 247
3 232 248 247
3 232 233 248
3 233 249 248
3 233 234 249
3 234 250 249
3 234 235 250
3 235 251 250
3 235 236 251
3 236 252 251
3 236 237 252
3 237 253 252
3 237 238 253
3 238 254 253
3 238 239 254
3 239 255 254
3 239 240 255
3 240 256 255
3 240 241 256
3 241 257 256
3 241 226 257
3 226 242 257
3 242 243 258
3 243 259 258
3 243 244 259
3 244 260 259
3 244 245 260
3 245 261 260
3 245 246 261
3 246 262 261
3 246 247 262
3 247 263 262
3 247 248 263
3 248 264 263
3 248 249 264
3 249 265 264
3 249 250 265
3 250 266 265
3 250 251 266
3 251 267 266
3 251 252 267
3 252 268 267
3 252 253 268
3 253 269 268
3 253 254 269
3 254 270 269
3 254 255 270
3 255 271 270
3 255 256 271
3 256 272 271
3 256 257 272
3 257 273 272
3 257 242 273
3 242 258 273
