OFF
258 512 0
0.000000 0.000000 0.000000
0.000000 0.000000 5.000000
0.000000 0.000000 -5.000000
0.689748 0.689748 4.903926
0.459825 0.860272 4.903926
0.190301 0.956709 4.903926
-0.095611 0.970755 4.903926
-0.373289 0.901200 4.903926
-0.618820 0.754034 4.903926
-0.811058 0.541932 4.903926
-0.933449 0.283159 4.903926
-0.975452 0.000000 4.903926
-0.933449 -0.283159 4.903926
-0.811058 -0.541932 4.903926
-0.618820 -0.754034 4.903926
-0.373289 -0.901200 4.903926
-0.095611 -0.970755 4.903926
0.190301 -0.956709 4.903926
0.459825 -0.860272 4.903926
0.689748 -0.689748 4.903926
1.352990 1.352990 4.619398
0.901979 1.687483 4.619398
0.373289 1.876651 4.619398
-0.187548 1.904204 4.619398
-0.732233 1.767767 4.619398
-1.213859 1.479091 4.619398
-1.590948 1.063038 4.619398
-1.831026 0.555436 4.619398
-1.913417 0.000000 4.619398
-1.831026 -0.555436 4.619398
-1.590948 -1.063038 4.619398
-1.213859 -1.479091 4.619398
-0.732233 -1.767767 4.619398
-0.187548 -1.904204 4.619398
0.373289 -1.876651 4.619398
0.901979 -1.687483 4.619398
1.352990 -1.352990 4.619398
1.964237 1.964237 4.157348
1.309470 2.449846 4.157348
0.541932 2.724476 4.157348
-0.272277 2.764475 4.157348
-1.063038 2.566400 4.157348
-1.762250 2.147308 4.157348
-2.309699 1.543291 4.157348
-2.658238 0.806368 4.157348
-2.777851 0.000000 4.157348
-2.658238 -0.806368 4.157348
-2.309699 -1.543291 4.157348
-1.762250 -2.147308 4.157348
-1.063038 -2.566400 4.157348
-0.272277 -2.764475 4.157348
0.541932 -2.724476 4.157348
1.309470 -2.449846 4.157348
1.964237 -1.964237 4.157348
2.500000 2.500000 3.535534
1.666639 3.118063 3.535534
0.689748 3.467600 3.535534
-0.346543 3.518509 3.535534
-1.352990 3.266407 3.535534
-2.242919 2.733005 3.535534
-2.939689 1.964237 3.535534
-3.383295 1.026311 3.535534
-3.535534 0.000000 3.535534
-3.383295 -1.026311 3.535534
-2.939689 -1.964237 3.535534
-2.242919 -2.733005 3.535534
-1.352990 -3.266407 3.535534
-0.346543 -3.518509 3.535534
0.689748 -3.467600 3.535534
1.666639 -3.118063 3.535534
2.500000 -2.500000 3.535534
2.939689 2.939689 2.777851
1.959760 3.666454 2.777851
0.811058 4.077466 2.777851
-0.407491 4.137329 2.777851
-1.590948 3.840889 2.777851
-2.637394 3.213674 2.777851
-3.456709 2.309699 2.777851
-3.978334 1.206814 2.777851
-4.157348 0.000000 2.777851
-3.978334 -1.206814 2.777851
-3.456709 -2.309699 2.777851
-2.637394 -3.213674 2.777851
-1.590948 -3.840889 2.777851
-0.407491 -4.137329 2.777851
0.811058 -4.077466 2.777851
1.959760 -3.666454 2.777851
2.939689 -2.939689 2.777851
3.266407 3.266407 1.913417
2.177569 4.073945 1.913417
0.901200 4.530637 1.913417
-0.452780 4.597154 1.913417
-1.767767 4.267767 1.913417
-2.930515 3.570843 1.913417
-3.840889 2.566400 1.913417
-4.420488 1.340940 1.913417
-4.619398 0.000000 1.913417
-4.420488 -1.340940 1.913417
-3.840889 -2.566400 1.913417
-2.930515 -3.570843 1.913417
-1.767767 -4.267767 1.913417
-0.452780 -4.597154 1.913417
0.901200 -4.530637 1.913417
2.177569 -4.073945 1.913417
3.266407 -3.266407 1.913417
3.467600 3.467600 0.975452
2.311695 4.324877 0.975452
0.956709 4.809699 0.975452
-0.480669 4.880313 0.975452
-1.876651 4.530637 0.975452
-3.111018 3.790786 0.975452
-4.077466 2.724476 0.975452
-4.692765 1.423535 0.975452
-4.903926 0.000000 0.975452
-4.692765 -1.423535 0.975452
-4.077466 -2.724476 0.975452
-3.111018 -3.790786 0.975452
-1.876651 -4.530637 0.975452
-0.480669 -4.880313 0.975452
0.956709 -4.809699 0.975452
2.311695 -4.324877 0.975452
3.467600 -3.467600 0.975452
3.535534 3.535534 0.000000
2.356984 4.409606 0.000000
0.975452 4.903926 0.000000
-0.490086 4.975924 0.000000
-1.913417 4.619398 0.000000
-3.171966 3.865052 0.000000
-4.157348 2.777851 0.000000
-4.784702 1.451423 0.000000
-5.000000 0.000000 0.000000
-4.784702 -1.451423 0.000000
-4.157348 -2.777851 0.000000
-3.171966 -3.865052 0.000000
-1.913417 -4.619398 0.000000
-0.490086 -4.975924 0.000000
0.975452 -4.903926 0.000000
2.356984 -4.409606 0.000000
3.535534 -3.535534 0.000000
3.467600 3.467600 -0.975452
2.311695 4.324877 -0.975452
0.956709 4.809699 -0.975452
-0.480669 4.880313 -0.975452
-1.876651 4.530637 -0.975452
-3.111018 3.790786 -0.975452
-4.077466 2.724476 -0.975452
-4.692765 1.423535 -0.975452
-4.903926 0.000000 -0.975452
-4.692765 -1.423535 -0.975452
-4.077466 -2.724476 -0.975452
-3.111018 -3.790786 -0.975452
-1.876651 -4.530637 -0.975452
-0.480669 -4.880313 -0.975452
0.956709 -4.809699 -0.975452
2.311695 -4.324877 -0.975452
3.467600 -3.467600 -0.975452
3.266407 3.266407 -1.913417
2.177569 4.073945 -1.913417
0.901200 4.530637 -1.913417
-0.452780 4.597154 -1.913417
-1.767767 4.267767 -1.913417
-2.930515 3.570843 -1.913417
-3.840889 2.566400 -1.913417
-4.420488 1.340940 -1.913417
-4.619398 0.000000 -1.913417
-4.420488 -1.340940 -1.913417
-3.840889 -2.566400 -1.913417
-2.930515 -3.570843 -1.913417
-1.767767 -4.267767 -1.913417
-0.452780 -4.597154 -1.913417
0.901200 -4.530637 -1.913417
2.177569 -4.073945 -1.913417
3.266407 -3.266407 -1.913417
2.939689 2.939689 -2.777851
1.959760 3.666454 -2.777851
0.811058 4.077466 -2.777851
-0.407491 4.137329 -2.777851
-1.590948 3.840889 -2.777851
-2.637394 3.213674 -2.777851
-3.456709 2.309699 -2.777851
-3.978334 1.206814 -2.777851
-4.157348 0.000000 -2.777851
-3.978334 -1.206814 -2.777851
-3.456709 -2.309699 -2.777851
-2.637394 -3.213674 -2.777851
-1.590948 -3.840889 -2.777851
-0.407491 -4.137329 -2.777851
0.811058 -4.077466 -2.777851
1.959760 -3.666454 -2.777851
2.939689 -2.939689 -2.777851
2.500000 2.500000 -3.535534
1.666639 3.118063 -3.535534
0.689748 3.467600 -3.535534
-0.346543 3.518509 -3.535534
-1.352990 3.266407 -3.535534
-2.242919 2.733005 -3.535534
-2.939689 1.964237 -3.535534
-3.383295 1.026311 -3.535534
-3.535534 0.000000 -3.535534
-3.383295 -1.026311 -3.535534
-2.939689 -1.964237 -3.535534
-2.242919 -2.733005 -3.535534
-1.352990 -3.266407 -3.535534
-0.346543 -3.518509 -3.535534
0.689748 -3.467600 -3.535534
1.666639 -3.118063 -3.535534
2.500000 -2.500000 -3.535534
1.964237 1.964237 -4.157348
1.309470 2.449846 -4.157348
0.541932 2.724476 -4.157348
-0.272277 2.764475 -4.157348
-1.063038 2.566400 -4.157348
-1.762250 2.147308 -4.157348
-2.309699 1.543291 -4.157348
-2.658238 0.806368 -4.157348
-2.777851 0.000000 -4.157348
-2.658238 -0.806368 -4.157348
-2.309699 -1.543291 -4.157348
-1.762250 -2.147308 -4.157348
-1.063038 -2.566400 -4.157348
-0.272277 -2.764475 -4.157348
0.541932 -2.724476 -4.157348
1.309470 -2.449846 -4.157348
1.964237 -1.964237 -4.157348
1.352990 1.352990 -4.619398
0.901979 1.687483 -4.619398
0.373289 1.876651 -4.619398
-0.187548 1.904204 -4.619398
-0.732233 1.767767 -4.619398
-1.213859 1.479091 -4.619398
-1.590948 1.063038 -4.619398
-1.831026 0.555436 -4.619398
-1.913417 0.000000 -4.619398
-1.831026 -0.555436 -4.619398
-1.590948 -1.063038 -4.619398
-1.213859 -1.479091 -4.619398
-0.732233 -1.767767 -4.619398
-0.187548 -1.904204 -4.619398
0.373289 -1.876651 -4.619398
0.901979 -1.687483 -4.619398
1.352990 -1.352990 -4.619398
0.689748 0.689748 -4.903926
0.459825 0.860272 -4.903926
0.190301 0.956709 -4.903926
-0.095611 0.970755 -4.903926
-0.373289 0.901200 -4.903926
-0.618820 0.754034 -4.903926
-0.811058 0.541932 -4.903926
-0.933449 0.283159 -4.903926
-0.975452 0.000000 -4.903926
-0.933449 -0.283159 -4.903926
-0.811058 -0.541932 -4.903926
-0.618820 -0.754034 -4.903926
-0.373289 -0.901200 -4.903926
-0.095611 -0.970755 -4.903926
0.190301 -0.956709 -4.903926
0.459825 -0.860272 -4.903926
0.689748 -0.689748 -4.903926
3 1 3 4
3 2 242 241
3 1 4 5
3 2 243 242
3 1 5 6
3 2 244 243
3 1 6 7
3 2 245 244
3 1 7 8
3 2 246 245
3 1 8 9
3 2 247 246
3 1 9 10
3 2 248 247
3 1 10 11
3 2 249 248
3 1 11 12
3 2 250 249
3 1 12 13
3 2 251 250
3 1 13 14
3 2 252 251
3 1 14 15
3 2 253 252
3 1 15 16
3 2 254 253
3 1 16 17
3 2 255 254
3 1 17 18
3 2 256 255
3 1 18 19
3 2 257 256
3 3 20 4
3 4 20 21
3 4 21 5
3 5 21 22
3 5 22 6
3 6 22 23
3 6 23 7
3 7 23 24
3 7 24 8
3 8 24 25
3 8 25 9
3 9 25 26
3 9 26 10
3 10 26 27
3 10 27 11
3 11 27 28
3 11 28 12
3 12 28 29
3 12 29 13
3 13 29 30
3 13 30 14
3 14 30 31
3 14 31 15
3 15 31 32
3 15 32 16
3 16 32 33
3 16 33 17
3 17 33 34
3 17 34 18
3 18 34 35
3 18 35 19
3 19 35 36
3 20 37 21
3 21 37 38
3 21 38 22
3 22 38 39
3 22 39 23
3 23 39 40
3 23 40 24
3 24 40 41
3 24 41 25
3 25 41 42
3 25 42 26
3 26 42 43
3 26 43 27
3 27 43 44
3 27 44 28
3 28 44 45
3 28 45 29
3 29 45 46
3 29 46 30
3 30 46 47
3 30 47 31
3 31 47 48
3 31 48 32
3 32 48 49
3 32 49 33
3 33 49 50
3 33 50 34
3 34 50 51
3 34 51 35
3 35 51 52
3 35 52 36
3 36 52 53
3 37 54 38
3 38 54 55
3 38 55 39
3 39 55 56
3 39 56 40
3 40 56 57
3 40 57 41
3 41 57 58
3 41 58 42
3 42 58 59
3 42 59 43
3 43 59 60
3 43 60 44
3 44 60 61
3 44 61 45
3 45 61 62
3 45 62 46
3 46 62 63
3 46 63 47
3 47 63 64
3 47 64 48
3 48 64 65
3 48 65 49
3 49 65 66
3 49 66 50
3 50 66 67
3 50 67 51
3 51 67 68
3 51 68 52
3 52 68 69
3 52 69 53
3 53 69 70
3 54 71 55
3 55 71 72
3 55 72 56
3 56 72 73
3 56 73 57
3 57 73 74
3 57 74 58
3 58 74 75
3 58 75 59
3 59 75 76
3 59 76 60
3 60 76 77
3 60 77 61
3 61 77 78
3 61 78 62
3 62 78 79
3 62 79 63
3 63 79 80
3 63 80 64
3 64 80 81
3 64 81 65
3 65 81 82
3 65 82 66
3 66 82 83
3 66 83 67
3 67 83 84
3 67 84 68
3 68 84 85
3 68 85 69
3 69 85 86
3 69 86 70
3 70 86 87
3 71 88 72
3 72 88 89
3 72 89 73
3 73 89 90
3 73 90 74
3 74 90 91
3 74 91 75
3 75 91 92
3 75 92 76
3 76 92 93
3 76 93 77
3 77 93 94
3 77 94 78
3 78 94 95
3 78 95 79
3 79 95 96
3 79 96 80
3 80 96 97
3 80 97 81
3 81 97 98
3 81 98 82
3 82 98 99
3 82 99 83
3 83 99 100
3 83 100 84
3 84 100 101
3 84 101 85
3 85 101 102
3 85 102 86
3 86 102 103
3 86 103 87
3 87 103 104
3 88 105 89
3 89 105 106
3 89 106 90
3 90 106 107
3 90 107 91
3 91 107 108
3 91 108 92
3 92 108 109
3 92 109 93
3 93 109 110
3 93 110 94
3 94 110 111
3 94 111 95
3 95 111 112
3 95 112 96
3 96 112 113
3 96 113 97
3 97 113 114
3 97 114 98
3 98 114 115
3 98 115 99
3 99 115 116
3 99 116 100
3 100 116 117
3 100 117 101
3 101 117 118
3 101 118 102
3 102 118 119
3 102 119 103
3 103 119 120
3 103 120 104
3 104 120 121
3 105 122 106
3 106 122 123
3 106 123 107
3 107 123 124
3 107 124 108
3 108 124 125
3 108 125 109
3 109 125 126
3 109 126 110
3 110 126 127
3 110 127 111
3 111 127 128
3 111 128 112
3 112 128 129
3 112 129 113
3 113 129 130
3 113 130 114
3 114 130 131
3 114 131 115
3 115 131 132
3 115 132 116
3 116 132 133
3 116 133 117
3 117 133 134
3 117 134 118
3 118 134 135
3 118 135 119
3 119 135 136
3 119 136 120
3 120 136 137
3 120 137 121
3 121 137 138
3 122 139 123
3 123 139 140
3 123 140 124
3 124 140 141
3 124 141 125
3 125 141 142
3 125 142 126
3 126 142 143
3 126 143 127
3 127 143 144
3 127 144 128
3 128 144 145
3 128 145 129
3 129 145 146
3 129 146 130
3 130 146 147
3 130 147 131
3 131 147 148
3 131 148 132
3 132 148 149
3 132 149 133
3 133 149 150
3 133 150 134
3 134 150 151
3 134 151 135
3 135 151 152
3 135 152 136
3 136 152 153
3 136 153 137
3 137 153 154
3 137 154 138
3 138 154 155
3 139 156 140
3 140 156 157
3 140 157 141
3 141 157 158
3 141 158 142
3 142 158 159
3 142 159 143
3 143 159 160
3 143 160 144
3 144 160 161
3 144 161 145
3 145 161 162
3 145 162 146
3 146 162 163
3 146 163 147
3 147 163 164
3 147 164 148
3 148 164 165
3 148 165 149
3 149 165 166
3 149 166 150
3 150 166 167
3 150 167 151
3 151 167 168
3 151 168 152
3 152 168 169
3 152 169 153
3 153 169 170
3 153 170 154
3 154 170 171
3 154 171 155
3 155 171 172
3 156 173 157
3 157 173 174
3 157 174 158
3 158 174 175
3 158 175 159
3 159 175 176
3 159 176 160
3 160 176 177
3 160 177 161
3 161 177 178
3 161 178 162
3 162 178 179
3 162 179 163
3 163 179 180
3 163 180 164
3 164 180 181
3 164 181 165
3 165 181 182
3 165 182 166
3 166 182 183
3 166 183 167
3 167 183 184
3 167 184 168
3 168 184 185
3 168 185 169
3 169 185 186
3 169 186 170
3 170 186 187
3 170 187 171
3 171 187 188
3 171 188 172
3 172 188 189
3 173 190 174
3 174 190 191
3 174 191 175
3 175 191 192
3 175 192 176
3 176 192 193
3 176 193 177
3 177 193 194
3 177 194 178
3 178 194 195
3 178 195 179
3 179 195 196
3 179 196 180
3 180 196 197
3 180 197 181
3 181 197 198
3 181 198 182
3 182 198 199
3 182 199 183
3 183 199 200
3 183 200 184
3 184 200 201
3 184 201 185
3 185 201 202
3 185 202 186
3 186 202 203
3 186 203 187
3 187 203 204
3 187 204 188
3 188 204 205
3 188 205 189
3 189 205 206
3 190 207 191
3 191 207 208
3 191 208 192
3 192 208 209
3 192 209 193
3 193 209 210
3 193 210 194
3 194 210 211
3 194 211 195
3 195 211 212
3 195 212 196
3 196 212 213
3 196 213 197
3 197 213 214
3 197 214 198
3 198 214 215
3 198 215 199
3 199 215 216
3 199 216 200
3 200 216 217
3 200 217 201
3 201 217 218
3 201 218 202
3 202 218 219
3 202 219 203
3 203 219 220
3 203 220 204
3 204 220 221
3 204 221 205
3 205 221 222
3 205 222 206
3 206 222 223
3 207 224 208
3 208 224 225
3 208 225 209
3 209 225 226
3 209 226 210
3 210 226 227
3 210 227 211
3 211 227 228
3 211 228 212
3 212 228 229
3 212 229 213
3 213 229 230
3 213 230 214
3 214 230 231
3 214 231 215
3 215 231 232
3 215 232 216
3 216 232 233
3 216 233 217
3 217 233 234
3 217 234 218
3 218 234 235
3 218 235 219
3 219 235 236
3 219 236 220
3 220 236 237
3 220 237 221
3 221 237 238
3 221 238 222
3 222 238 239
3 222 239 223
3 223 239 240
3 224 241 225
3 225 241 242
3 225 242 226
3 226 242 243
3 226 243 227
3 227 243 244
3 227 244 228
3 228 244 245
3 228 245 229
3 229 245 246
3 229 246 230
3 230 246 247
3 230 247 231
3 231 247 248
3 231 248 232
3 232 248 249
3 232 249 233
3 233 249 250
3 233 250 234
3 234 250 251
3 234 251 235
3 235 251 252
3 235 252 236
3 236 252 253
3 236 253 237
3 237 253 254
3 237 254 238
3 238 254 255
3 238 255 239
3 239 255 256
3 239 256 240
3 240 256 257
3 0 3 1
3 0 1 19
3 0 20 3
3 0 19 36
3 0 37 20
3 0 36 53
3 0 54 37
3 0 53 70
3 0 71 54
3 0 70 87
3 0 88 71
3 0 87 104
3 0 105 88
3 0 104 121
3 0 122 105
3 0 121 138
3 0 139 122
3 0 138 155
3 0 156 139
3 0 155 172
3 0 173 156
3 0 172 189
3 0 190 173
3 0 189 206
3 0 207 190
3 0 206 223
3 0 224 207
3 0 223 240
3 0 241 224
3 0 240 257
3 0 2 241
3 0 257 2
