OFF
837 1670 0
-11.5830001831 0.4289999604 46.5109939575
-12.4410009384 0.1899999380 43.7699966431
-14.1050004959 -2.6170001030 46.4189949036
-12.5640001297 3.2530000210 35.8769950867
-14.9580011368 -0.8530000448 35.7689933777
-14.1500005722 -0.4470000267 38.3999938965
-4.0110001564 21.9970016479 30.7729949951
-7.4970002174 16.4910011292 31.0439949036
-6.4220004082 16.0880012512 33.5869941711
-7.7600002289 11.4570007324 36.0749931335
-10.1640005112 7.3560004234 35.9789962769
-9.2360000610 7.2390003204 38.5999946594
4.9060001373 -15.9400005341 25.5329933167
5.3620004654 -15.8710002899 23.1019973755
10.1690006256 -15.1200008392 25.4039955139
11.6970005035 0.3750000000 30.6419944763
11.6240005493 -0.2260000706 33.1819953918
14.5620002747 -3.8310003281 30.7589950562
-2.9850001335 -18.0860004425 13.9639968872
-6.9570002556 -19.5250015259 11.8059921265
-2.2750000954 -17.7340011597 11.6849899292
1.6340000629 13.9450006485 25.2909927368
4.9830002785 9.8030004501 25.4179954529
4.4690003395 10.1510000229 22.9839935303
7.2750005722 -12.6740007401 7.0219955444
7.2130002975 -11.7730007172 4.8589935303
11.2820005417 -10.8000001907 6.9359893799
-13.6480007172 8.3150005341 11.4809951782
-14.4140005112 3.3610000610 11.3699951172
-14.8050003052 4.1630001068 13.7159957886
10.3630008698 3.2920000553 13.8549957275
13.7950010300 0.2169999480 11.7059936523
9.8980007172 3.3700001240 11.5869903564
-2.4150002003 8.4169998169 52.3489952087
-4.9330000877 5.8760004044 52.2729949951
-4.2260003090 5.5710000992 55.1279945374
6.4200000763 7.8730001450 46.2009963989
7.8090004921 4.1710004807 46.2959938049
7.6200003624 4.9990000725 43.5429954529
9.9780006409 -4.3260002136 52.1039962769
9.6820001602 -4.8300004005 54.9819946289
10.9270000458 -7.7760000229 52.1869964600
-6.3630003929 -16.0830001831 33.2729949951
-11.2630004883 -16.9970016479 30.8529930115
-6.1870002747 -16.6250000000 30.7409934998
-17.3490009308 -3.0000000000 25.5719947815
-17.6210002899 -3.6270003319 23.0969924927
-19.2730007172 -7.9670000076 25.4429931641
-9.7230005264 11.9140005112 30.9459953308
-11.9440002441 7.3340001106 30.8389930725
-11.0740003586 7.3910002708 33.3929939270
1.5310000181 8.2030010223 6.9639968872
1.4150000811 7.1720004082 4.8199920654
-2.0970001221 10.7350006104 6.8819961548
-13.5030002594 -7.2070007324 6.6589965820
-11.8690004349 -7.3210000992 4.4769897461
-13.8760004044 -11.6150007248 6.6019897461
-0.3000000119 6.4510002136 79.5889968872
2.1900000572 7.1200003624 76.4369964600
-0.7550000548 5.8070001602 76.3589935303
-6.8960003853 2.0599999428 69.9089965820
-7.1670002937 1.7009999752 66.8329925537
-9.5470008850 0.5439999700 69.8369979858
8.5800008774 -7.9010000229 76.4699935913
8.6670007706 -8.3760004044 79.7419967651
8.2390003204 -11.1070003510 76.5479965210
1.3310000896 -14.5010004044 46.3449935913
1.7290000916 -14.7860012054 43.6009941101
5.2310004234 -15.1520004272 46.2499961853
-6.3050003052 -11.6770009995 55.0039939880
-9.8070001602 -11.2390003204 52.2159957886
-6.3450002670 -12.1430006027 52.1339950562
8.6760005951 2.1259999275 69.8600006104
8.6630001068 -0.9280000925 69.9329986572
8.4920005798 -0.5300000906 66.8159942627
-8.6750001907 -8.7270002365 79.7649993896
-10.5720005035 -7.2309999466 76.5629959106
-7.9660005569 -9.1300001144 76.4839935303
-14.9540004730 -3.3860001564 83.2789993286
-13.9570007324 -4.4490003586 79.9299926758
-12.2490005493 -5.8210000992 83.1909942627
-6.6680002213 -10.1530008316 66.9699935913
-9.2590007782 -9.1890001297 63.9769973755
-6.4640002251 -10.4930009842 63.9039955139
4.1370000839 -15.7880001068 66.6759948730
1.9300000668 -14.3850011826 63.6799964905
4.7320003510 -15.6770000458 63.6059951782
1.9190001488 -17.2450008392 79.4479980469
-0.1360000074 -14.8090009689 76.2529983521
2.4790000916 -16.6960010529 76.1789932251
9.3690004349 3.3210000992 9.3509902954
5.9950003624 6.5170001984 11.4719924927
10.7610006332 3.1019999981 16.1539916992
6.8550004959 6.7310004234 16.0259933472
-1.7060000896 -12.9090003967 69.9399948120
-1.2690000534 -12.9760007858 66.8219985962
0.9310000539 -14.4480009079 69.8659973145
16.0180015564 -1.9580001831 7.3479919434
14.8570003510 -1.6100001335 5.1479949951
12.4010009766 0.5889999866 7.2449951172
2.9420001507 10.3520002365 15.9019927979
2.4870002270 10.0950002670 13.6139907837
-0.9770000577 13.9670009613 15.7839965820
18.5520000458 -4.1770000458 16.4099960327
18.2130012512 -3.5390000343 14.1049957275
14.6600008011 -0.5330001116 16.2829971313
8.1389999390 2.7870001793 4.9749908447
10.4600000381 0.4439999461 2.9059906006
7.4520001411 2.2740001678 2.8379898071
-5.3150000572 11.5500001907 4.6859893799
-1.5760000944 7.7570004463 2.6569900513
-4.5860004425 9.5820007324 2.6039962769
-5.4080004692 16.8750000000 13.3979949951
-1.8230000734 12.7930002213 11.2579956055
-5.7380003929 15.9250011444 11.1619949341
-12.0030002594 10.4260005951 6.9479904175
-11.0230007172 8.7150001526 4.6899948120
-12.3810005188 6.0180001259 6.8669967651
-17.2970008850 -5.5030002594 15.8429946899
-16.7400016785 -6.0620002747 13.4869918823
-18.4640007019 -10.7050008774 15.7279968262
-12.5390005112 15.2840003967 16.3469924927
-12.8360004425 14.3820009232 13.9629898071
-13.7430009842 10.0910005569 16.2189941406
-9.7160005569 3.3059999943 2.4489898682
-9.7920007706 -0.2140001059 2.4119949341
-11.4460000992 0.6970000267 4.5739898682
-10.0240001678 -10.7740001678 2.3149948120
-10.1030006409 -14.2940006256 2.2869949341
-12.2930002213 -15.3390007019 4.3949966431
-18.5680007935 -6.4230003357 30.4869956970
-20.7600002289 -11.0170001984 30.3639945984
-20.3080005646 -10.0390005112 32.9369926453
-16.6830005646 -11.5060005188 11.0799942017
-17.4320011139 -16.4630012512 10.9979934692
-18.6520004272 -16.2920017242 13.2889938354
-8.7750005722 -20.1260013580 7.4179916382
-7.1180005074 -19.0170001984 5.1959915161
-4.7580003738 -18.2710018158 7.3129959106
6.5500001907 -15.1290016174 16.0129928589
6.8490004539 -14.6820011139 13.7159957886
11.6420001984 -13.5500011444 15.8899917603
-13.8480005264 -21.3490009308 16.5199966431
-12.8320007324 -21.4530010223 14.2119903564
-8.7440004349 -19.8080005646 16.3969955444
0.0510000028 -15.4020004272 5.0189895630
-2.2410001755 -15.8270015717 2.9289932251
0.8490000367 -14.1380004883 2.8599929810
14.3700008392 -8.1350002289 4.7189941406
10.1120004654 -9.0610008240 2.6739959717
13.1980009079 -7.3670005798 2.6199951172
16.6730003357 -11.2450008392 13.4879913330
11.7520008087 -12.3120002747 11.3429946899
16.4230003357 -10.4920005798 11.2399902344
14.9820003510 -2.6620001793 25.7979927063
18.3010005951 -6.8290004730 25.9179954529
18.5750007629 -6.1790003777 23.4929924011
4.3780002594 11.5170001984 35.4199943542
6.7580003738 7.4030003548 35.5339927673
6.3730001450 8.1219997406 32.9469947815
13.8560009003 -4.9650001526 35.8689956665
16.2100009918 -9.0940008163 35.9709930420
16.8490009308 -8.5910005569 33.4009933472
11.3490009308 2.4419999123 20.8469924927
11.5380001068 2.0000000000 23.2439956665
15.0380010605 -1.5310001373 20.9769973755
-2.6300001144 18.2750015259 22.7349929810
0.2370000184 14.3190002441 20.4609909058
-3.4810001850 18.2650012970 20.3409957886
0.1600000113 17.1500015259 30.1559944153
1.0910000801 16.4510002136 32.7099952698
3.0560002327 12.9640007019 30.2759933472
-9.5630006790 16.8339996338 26.0509948730
-10.5000009537 16.7430000305 23.5949935913
-11.5210008621 11.8800001144 25.9399948120
-15.7050008774 -1.3170001507 33.1719932556
-17.3460006714 -4.9630002975 35.6579933167
-5.3520002365 15.5560007095 36.1639938354
-12.9430007935 11.2830009460 21.0389938354
-14.5440006256 6.1040000916 20.9109954834
-14.0790004730 6.5640001297 23.3549957275
-19.2890014648 -9.4540004730 20.5219955444
-20.8510017395 -14.6450004578 20.3989944458
-21.1240005493 -13.8320007324 22.8409957886
8.0850000381 -12.4620008469 83.1559982300
7.3310003281 -16.0220012665 83.2449951172
7.6050004959 -15.0890007019 79.9069976807
-16.1620006561 -19.1240005493 26.0179939270
-15.8400011063 -19.8870010376 23.5989952087
-10.8930006027 -18.3410015106 25.9049949646
3.0300002098 -15.5390014648 35.6219940186
3.4930002689 -15.7230014801 33.0429954529
7.7830004692 -15.5410003662 35.5069961548
-15.9830007553 -15.4549999237 36.0449943542
-16.2200012207 -16.4150009155 33.4829940796
-11.2300004959 -15.4860000610 35.9469947815
-5.2360000610 -17.8980007172 23.3599929810
-10.0610008240 -19.3430004120 21.0909957886
-4.7730002403 -18.1450004578 20.9659957886
15.9510011673 -13.8020009995 22.8449935913
11.0750007629 -14.4880008698 20.5759963989
16.3530006409 -13.2480010986 20.4499969482
13.3470010757 -15.3280010223 32.8049926758
9.0380001068 -15.4600009918 30.3789939880
14.1110010147 -15.0530014038 30.2569923401
11.9460000992 -6.9480004311 46.5739936829
13.3150005341 -10.6580009460 46.6609954834
14.0590009689 -10.3300008774 43.9249954224
7.6260004044 4.3509998322 57.6689949036
8.2210006714 1.1319999695 57.7489929199
8.1520004272 1.8240001202 54.8179969788
9.9840002060 -8.5280008316 57.9829940796
10.5650005341 -11.7500009537 58.0579948425
11.1970005035 -11.4870004654 55.1389961243
11.1020002365 -2.0640001297 41.0389938354
10.8500003815 -2.6610002518 43.7399940491
12.9530010223 -6.0120005608 41.1369934082
3.6380002499 13.7010002136 40.6219940186
4.3670001030 12.6490001678 43.3419952393
5.5130004883 9.7640008926 40.7269935608
6.1380004883 9.4600000381 51.7609939575
6.6050004959 8.4740009308 54.6529960632
7.1050004959 6.0150003433 51.8469963074
-2.3510000706 13.4040002823 44.1149940491
-3.9970002174 9.5500001907 46.7669944763
-1.4630000591 12.5850009918 46.8429946899
-8.5790004730 1.0720000267 57.8719940186
-9.2330007553 0.9300000072 54.9699935913
-11.0730009079 -1.0480000973 57.7929954529
1.4190000296 9.5260000229 58.1699981689
0.7910000086 10.2020006180 55.2749938965
-1.0830000639 7.4160003662 58.0989952087
-5.8070001602 10.6210002899 41.3449935913
-8.3100004196 7.0500001907 41.2569961548
-7.4020004272 6.8020000458 43.9519958496
-15.7940006256 -3.6800003052 40.9649963379
-18.2780017853 -7.2639999390 40.8609962463
-17.4630012512 -6.4350004196 43.5739936829
-12.4720001221 -1.7640001774 52.0259971619
-14.9790010452 -4.3160004616 51.9399948120
-14.2300004959 -3.7230000496 54.8069953918
-14.2620010376 -11.8450002670 46.7039947510
-14.7640008926 -12.6860008240 43.9759941101
-10.3650007248 -12.5160007477 46.6189956665
-0.1340000033 -13.4490003586 57.7649955750
0.2220000178 -13.6810007095 54.8419952393
2.9510002136 -14.5440006256 57.6859970093
-12.4600009918 -9.0340003967 58.0729980469
-12.8270006180 -9.6580009460 55.1599960327
-9.3810005188 -10.1430006027 57.9989929199
-6.5180001259 -13.7460002899 43.7959938049
-10.8890008926 -13.9540004730 41.1989936829
-6.5450000763 -14.3290004730 41.1029930115
9.9800004959 -15.8010005951 43.4009933472
6.4920001030 -15.4160003662 40.7949943542
10.8380002975 -15.7650012970 40.6899948120
6.7540001869 -15.6690006256 54.6759948730
4.0460000038 -14.8310003281 51.8779945374
7.5120005608 -15.7170009613 51.7909965515
8.6020002365 -10.0890007019 70.1549987793
8.5750007629 -13.1420001984 70.2289962769
8.9880008698 -12.7060003281 67.1100006104
-1.7230000496 18.0810012817 25.1679954529
-0.7850000262 17.7000007629 27.6419944763
5.4780001640 9.3390007019 27.8889923096
8.3240003586 5.6540002823 25.5459938049
-12.7520008087 7.1800003052 28.3169937134
-14.1600008011 2.7520000935 30.7259941101
11.0560007095 1.7870000601 82.8169937134
10.3190002441 -1.7760000229 82.8979949951
9.7120008469 -1.6600000858 79.5809936523
8.9230003357 -6.1960005760 63.8959960938
8.7470006943 -6.6180005074 66.9639968872
9.1920003891 -9.2690000534 63.9699935913
7.8130002022 6.0910000801 63.5979957581
8.2239999771 5.5570001602 66.6699981689
8.0950002670 3.0199999809 63.6719970703
10.7430009842 5.0580000877 79.4269943237
9.5800008774 1.7200000286 76.2389984131
9.9060001373 4.9280004501 76.1660003662
3.7230002880 8.0950002670 70.2049942017
3.1310000420 8.2160005569 67.1250000000
1.0660001040 6.5910000801 70.1309967041
-6.6860003471 5.0130000114 82.7159957886
-6.6340003014 3.9850001335 79.4349975586
-10.1380004883 3.8620002270 82.6429977417
7.1330003738 9.5860004425 83.0419998169
6.0390005112 8.9029998779 79.7500000000
3.6770002842 8.4479999542 82.9570007324
-2.0220000744 4.9640002251 66.9799957275
0.0380000025 6.7440004349 64.0229949951
-2.4900000095 4.9770002365 63.9499969482
-12.3060007095 -1.5740001202 66.6859970093
-10.0620002747 -0.3420000076 63.7269973755
-12.5820007324 -2.1200001240 63.6519966125
-12.9630002975 1.5069999695 79.2919998169
-9.5810003281 1.8489999771 76.1359939575
-12.5200004578 0.5239999890 76.0659942627
-12.2400007248 -6.7250003815 70.2350006104
-12.0610008240 -7.3170003891 67.1149978638
-9.6090002060 -8.2750005722 70.1619949341
17.6860008240 -2.9440002441 11.8269958496
16.9580001831 -2.4100000858 9.5749969482
4.4430003166 4.1030001640 2.7739944458
1.4340000153 5.9300003052 2.7129898071
-5.8550004959 14.7230005264 8.9649963379
-5.7260003090 13.2650003433 6.8059921265
1.7630001307 9.0300006866 9.1449966431
5.1570000648 5.6690001488 7.0529937744
-13.7390003204 2.5040001869 9.0589904785
-15.1750011444 -1.5940001011 11.2659912109
-14.9370002747 4.8950004578 16.0909957886
-16.1210002899 -0.3030000925 15.9649963379
-12.8730001450 13.2680006027 11.5959930420
-12.6080007553 11.9470005035 9.2539901733
-9.8690004349 -3.7340002060 2.3769912720
-9.9460000992 -7.2540006638 2.3449935913
11.6570005417 1.4990000725 25.6739921570
3.9490001202 10.3670005798 20.5869903564
3.4350001812 10.4390001297 18.2269973755
-8.6579999924 22.7290000916 20.7369918823
-4.2480001450 18.0360012054 17.9869918823
-6.4400005341 22.8190002441 25.7079925537
5.9440002441 8.7730007172 30.3979949951
-1.6030000448 20.4620018005 35.9519958496
1.9910000563 15.6280002594 35.3059959412
-11.3320007324 16.4600009918 21.1609954834
-13.4720010757 6.9230003357 25.8229942322
-8.5520000458 16.7450008392 28.5329933167
-4.1160001755 -13.1030006409 82.9309997559
-3.3830001354 -12.9920005798 79.6029968262
-1.3990000486 -15.5240001678 82.8479995728
-14.2490005493 -16.0230007172 6.5499954224
-15.9640007019 -16.3860015869 8.7509918213
-13.1300010681 -2.7980000973 6.7219924927
-14.8550004959 -6.9400005341 8.8909912109
-1.5250000954 -17.1820011139 9.4349899292
2.4030001163 -15.9340000153 11.5669937134
-3.6430001259 -18.2580013275 16.2689971924
1.4550000429 -16.6990013123 16.1409912109
-11.6430006027 -21.3080005646 11.9269943237
-10.2870006561 -20.8780002594 9.6619949341
3.9380002022 -12.4470005035 2.7939910889
7.0250000954 -10.7550001144 2.7319946289
15.9680004120 -9.7130002975 9.0289916992
15.2880010605 -8.9230003357 6.8559951782
7.2260003090 -13.4580011368 9.2199935913
3.2660002708 -14.5440006256 7.1149902344
8.8240003586 4.5770001411 30.5209960938
11.7090005875 0.9539999962 28.1399955750
9.1310005188 3.2840001583 35.6489944458
11.4970006943 -0.8390001059 35.7609939575
17.4210014343 -8.0420007706 30.8699951172
17.9100017548 -7.4530000687 28.3759956360
7.6530003548 6.4090003967 20.7169952393
1.7820000648 -9.9170007706 0.0009918213
1.3480000496 -12.1250009537 0.0079956055
-0.7620000243 -11.3860006332 0.0009918213
-3.3060002327 -12.8550004959 0.0009918213
-3.7140002251 -15.1090011597 0.0089950562
-5.8500003815 -14.3230009079 0.0009918213
16.8580017090 -4.3950004578 2.4229965210
13.4660005569 -1.3890001774 2.9779891968
8.7810001373 3.1310000420 7.1459960938
-16.1360015869 0.9210000038 20.7809906006
-17.7170009613 -4.2650003433 20.6499938965
-21.1880016327 -12.9370002747 25.3159942627
-21.0600013733 -11.9910001755 27.8229942322
-15.4150009155 1.9639999866 25.6989936829
-16.9240016937 -2.3980002403 28.0749931335
-5.9420003891 -17.1200008392 28.2459945679
-1.1110000610 -16.2460002899 30.6229934692
-6.4770002365 -15.5100002289 35.8429946899
-1.7230000496 -15.5279998779 35.7339935303
-16.3390007019 -17.3620014191 30.9579925537
-16.3250007629 -18.2730007172 28.4709930420
0.5120000243 -16.9360008240 20.8359909058
5.7950000763 -15.7170009613 20.7049942017
14.8120002747 -14.7060003281 27.7479934692
15.4310007095 -14.2890005112 25.2779922485
4.4370002747 -15.9330005646 27.9989929199
-0.3590000272 -16.7500000000 25.6609954834
9.0250005722 -0.8780001402 52.0189933777
10.2780008316 -3.7960000038 49.2719955444
8.8130006790 -2.0870001316 57.8279953003
9.4000005722 -5.3070001602 57.9059982300
11.8720006943 -11.2260007858 52.2669944763
12.5820007324 -10.9530010223 49.4409942627
7.3820004463 5.8240003586 40.8319931030
9.2450008392 1.8819999695 40.9359931946
5.0260000229 11.5740003586 46.1049957275
5.6150002480 10.5020008087 48.9109954834
7.9560003281 3.3560001850 49.0929946899
9.1930007935 0.4669999480 46.3909950256
-5.7030000687 6.1970000267 49.4589958191
-7.4490003586 3.3320000172 52.1929969788
-3.5840001106 5.3040003777 58.0249938965
-6.0830001831 3.1890001297 57.9489974976
-0.6440000534 11.7600002289 49.6119956970
0.1060000062 10.9560003281 52.4219970703
-10.8090009689 3.4760000706 41.1639938354
-13.3040008545 -0.1000000238 41.0669937134
-16.6220016479 -5.6670002937 46.3249931335
-15.7850008011 -4.9620003700 49.1129951477
-9.0580005646 3.4720001221 46.5999946594
-10.7510004044 0.6239999533 49.2909965515
-6.4050002098 -12.6460008621 49.3099937439
-2.8830001354 -13.0430002213 52.0499954224
-6.3000001907 -11.2490005493 57.9219970703
-3.2170002460 -12.3510007858 57.8439941406
-13.2670001984 -10.3310003281 52.2949943542
-13.7550010681 -11.0590009689 49.4769935608
-2.2000000477 -14.6980009079 41.0029945374
2.1460001469 -15.0600013733 40.8999938965
8.3070001602 -15.7650012970 48.9509963989
9.1330003738 -15.7970008850 46.1539955139
0.9490000606 -14.2150011063 49.1329956055
-2.5690000057 -13.8440008163 46.4389953613
8.9170007706 -4.6940002441 76.3919982910
8.5680007935 -7.4590005875 73.2500000000
9.5790004730 -5.3390002251 82.9819946289
8.8340005875 -8.9010000229 83.0690002441
7.8940005302 -14.3130006790 76.6259994507
8.2130002975 -13.6710004807 73.3999938965
8.3750000000 -0.0520000458 63.7469940186
8.6510000229 -3.1240000725 63.8219985962
8.6860008240 5.1800003052 69.7879943848
9.2340002060 4.9680004120 72.9529953003
8.9079999924 -1.2460000515 73.0989990234
8.6460008621 -3.9820003510 70.0069961548
-1.1750000715 5.3570003510 73.1829986572
-3.6980001926 4.4910001755 76.2829971313
0.2210000157 7.3070001602 82.8729934692
-3.2330000401 6.1610002518 82.7929992676
5.1370000839 8.4290008545 76.5149993896
4.3790001869 8.1620006561 73.3339996338
-5.0160002708 3.2070000172 63.8759956360
-7.5400004387 1.4340000153 63.8019943237
-12.2650003433 -0.2890000343 72.8909988403
-12.1960010529 -0.9750001431 69.7649993896
-6.7230005264 2.5399999619 73.0339965820
-4.2440004349 3.5730001926 69.9829940796
-7.4040002823 -9.4880008698 73.2589950562
-5.3580002785 -11.0260009766 76.4059982300
-9.5410003662 -8.2520008087 83.1029968262
-6.8300004005 -10.6790008545 83.0159988403
-13.1760005951 -5.3290004730 76.6409988403
-12.6060009003 -6.0740003586 73.4089965820
-3.6670000553 -11.7940006256 63.8289947510
-0.8690000176 -13.0910005569 63.7539978027
3.0230002403 -16.2800006866 72.9619979858
3.5710000992 -15.9830017090 69.7939987183
-2.1940000057 -12.8900003433 73.1079940796
-4.3420000076 -11.3670005798 70.0139923096
-3.3060002327 4.7720003128 0.0009918213
-5.8500003815 6.2410001755 0.0009918213
-3.7820000648 6.8780002594 0.0049896240
1.7820000648 1.8340001106 0.0009918213
-0.7620000243 3.3030002117 0.0009918213
1.3340001106 3.9850001335 0.0059890747
6.8700003624 -1.1040000916 0.0009918213
4.3260002136 0.3649999499 0.0009918213
6.4520001411 1.0920000076 0.0079956055
11.9590005875 -4.0410003662 0.0009918213
9.4150009155 -2.5720002651 0.0009918213
11.5700006485 -1.8010001183 0.0089950562
-7.2410001755 -12.8520002365 0.0019912720
-5.8500003815 -11.3860006332 0.0009918213
-5.8500003815 -8.4480009079 0.0009918213
-7.2750005722 -6.9750003815 0.0029907227
-5.8500003815 -5.5100002289 0.0009918213
-5.8500003815 -2.5720002651 0.0009918213
-7.3110003471 -1.0970001221 0.0029907227
-5.8500003815 0.3649999499 0.0009918213
-5.8500003815 3.3030002117 0.0009918213
-7.3480005264 4.7790002823 0.0039901733
11.4790000916 -6.1580004692 0.0049896240
9.4150009155 -5.5100002289 0.0009918213
6.8700003624 -6.9790005684 0.0009918213
6.4130001068 -9.1410007477 0.0069961548
4.3260002136 -8.4480009079 0.0009918213
-5.6250004768 -17.5500011444 25.7859954834
-22.9110012054 -19.3700008392 25.8079948425
3.9640002251 -15.8570003510 30.5019950867
11.6950006485 -15.6790008545 38.0209960938
12.5360002518 -15.5349998474 35.3929939270
2.5800001621 -15.3150005341 38.2409934998
-22.8300018311 -17.0470008850 30.8759956360
20.0960006714 -5.7650003433 6.7789916992
2.0880000591 9.6570005417 11.3609924316
-4.9010000229 17.5760002136 15.6729965210
22.0760002136 -7.4520006180 11.3129959106
11.0900001526 2.8150000572 18.4849929810
18.7160015106 -4.8400001526 18.7409973145
22.9190006256 -9.2520008087 15.9879913330
-8.7450008392 11.1210002899 2.1819915771
-10.7380008698 15.7100009918 6.5039901733
-11.1760005951 19.2190017700 11.0799942017
-10.3590002060 21.5610008240 15.8499908447
-9.6410007477 6.8260002136 2.4899902344
-12.7560005188 1.6100000143 6.7909927368
-15.9310007095 -6.5500001907 11.1689910889
-19.6250000000 -15.9090003967 15.6209945679
-20.3550014496 -15.3480014801 17.9919967651
-17.6160011292 -4.8970003128 18.2319946289
-14.8400011063 5.5450000763 18.4899902344
-12.0240001678 15.9760007858 18.7459945679
-9.3990001678 -18.8780002594 2.2829895020
-13.9310007095 -21.7260017395 6.6249923706
-17.6420001984 -22.8700008392 11.1909942627
-20.4000015259 -22.6200008392 15.9449920654
-5.3320002556 -17.5139999390 3.0009918213
-0.7450000644 -16.4110012054 7.2119903564
7.0790004730 -14.1260004044 11.4519958496
16.6200008392 -12.6330003738 18.0929946899
16.7320003510 -11.9620008469 15.7719955444
6.1950001717 -15.4720001221 18.3429946899
-4.2410001755 -18.2710018158 18.6029968262
-14.6870002747 -21.0310001373 18.8519973755
18.7190017700 -5.5110001564 21.1019973755
22.7950019836 -10.9900007248 20.7799911499
21.8990001678 -12.5380010605 25.6819953918
2.8430001736 14.7020006180 37.9429931641
7.0950002670 6.6310000420 38.1629943848
20.4290008545 -13.8180007935 30.7019958496
11.3200006485 -1.4540002346 38.3789939880
-16.3680000305 -1.8340001106 30.6079940796
-16.3940010071 -2.0750000477 76.1899948120
-12.0530004501 -7.8830003738 64.0489959717
-12.1940002441 -8.4480009079 61.0359954834
-6.3470001221 -10.8560009003 60.8879928589
-19.7270011902 -9.0770006180 35.5429954529
-19.0420017242 -8.1480007172 38.1849937439
13.1660003662 0.4589999914 9.4609909058
18.6389999390 -5.0270004272 4.5769958496
-1.4580000639 13.4870004654 13.5019912720
-0.4040000141 14.2400007248 18.1029968262
6.4280004501 6.6970005035 13.7319946289
14.2910003662 -0.1200000048 13.9799957275
14.9070005417 -1.0090000629 18.6139907837
22.6300010681 -8.3500003815 13.6349945068
9.0110006332 -0.3550000191 0.0079956055
4.7780003548 4.9809999466 4.8949966431
11.4990005493 0.5899999738 5.0589904785
-1.2250000238 5.4310002327 0.0059890747
-9.9510002136 13.5450010300 4.3099899292
-1.9500000477 9.3620004654 4.7509918213
-2.0450000763 11.8780002594 9.0509948730
-10.9020004272 20.5390014648 13.4459915161
-11.2350006104 4.7060003281 4.6299896240
15.5220003128 -9.5520000458 38.5809936523
18.5760002136 -14.7960004807 35.8519935608
-4.3060002327 14.9150009155 38.7769927979
-22.1420001984 -21.3330001831 20.8299942017
-6.5340003967 -14.9210004807 38.4529953003
-15.6480007172 -14.5030012131 38.6479949951
-22.0680007935 -14.6180009842 36.0509948730
-15.3500003815 -20.5330009460 21.2109909058
-12.0810003281 -11.3300008774 4.4339904785
-15.4100008011 -11.6630010605 8.8179931641
-11.6570005417 -3.3120002747 4.5229949951
1.9340001345 -16.3880004883 13.8389968872
-7.9070005417 -19.7740001678 14.0889968872
-5.9040002823 -19.0330009460 9.5479965210
10.7920007706 -9.9550008774 4.7869949341
11.5980005264 -11.5870008469 9.1219940186
3.6330001354 -13.5890007019 4.9369964600
9.0020008087 3.9510002136 33.0649948120
14.8000011444 -9.9620008469 41.2319946289
16.5220012665 -15.4790000916 41.1439933777
10.5720005035 -3.2400002480 46.4839935303
14.4280004501 -15.9180011749 46.5849952698
8.0670003891 2.5690002441 51.9329948425
7.0270004272 7.5690002441 57.5899963379
7.4220004082 6.7680001259 60.5719947815
8.2899999619 0.5039999485 60.7239952087
12.4300003052 -16.2020015717 52.1829948425
9.1440000534 -5.7610001564 60.8769950867
9.9830007553 -12.0290002823 61.0249938965
10.6290006638 -16.4590015411 57.9439964294
0.6140000224 18.4390010834 41.2599945068
2.5370001793 16.1730003357 46.7079963684
4.1390004158 13.9200010300 52.2999954224
5.4710001945 11.9310007095 58.0369949341
-3.3010001183 14.1900005341 41.4269943237
-6.5290002823 6.5120000839 46.6859931946
-9.9620008469 0.7860000134 52.1099967957
-13.0080003738 -2.6440002918 60.6619949341
-13.5650005341 -3.1720004082 57.7139968872
-8.0120000839 1.2330000401 60.8149948120
-3.0070002079 5.0980000496 60.9649963379
2.0060000420 8.9530010223 61.1089935303
-20.8240013123 -12.2770004272 41.3479957581
-19.3250007629 -10.1550006866 46.7779960632
-17.8180007935 -8.3110008240 52.3499946594
-16.5510005951 -6.7270002365 58.0659942627
-15.2330007553 -13.5750007629 41.2909965515
-6.4670004845 -13.1820011139 46.5309944153
0.5810000300 -13.9390010834 51.9639968872
5.3640003204 -15.6310005188 60.5829963684
6.0370001793 -15.6340007782 57.6069946289
-0.4940000176 -13.2500009537 60.7359962463
9.4570007324 -12.3420009613 64.0419921875
9.0790004730 -16.8470001221 63.8749961853
8.6260004044 -7.0350008011 70.0820007324
7.7780003548 -17.5490016937 69.9839935303
9.2500000000 -1.4870002270 76.3149948120
6.6580004692 -18.7590007782 76.2859954834
6.6660003662 10.4320001602 63.9179954529
7.9400005341 9.6030006409 69.9499969482
9.5880002975 9.5610008240 76.1589965820
11.9810009003 10.3460006714 82.5869979858
11.7880001068 5.3520002365 82.7379989624
2.5680000782 8.5080003738 64.0939941406
-1.5900000334 5.0830001831 70.0569915771
-6.6400003433 3.1710000038 76.2079925537
-15.7620010376 -5.3010001183 63.9319953918
-15.6570005417 -3.8430004120 69.9629974365
-18.0680007935 0.3729999661 82.6559982300
-13.5900011063 2.7080001831 82.5739974976
-6.9770002365 -9.8230009079 70.0879974365
-2.7480001450 -12.9190006256 76.3289947510
8.3920001984 -10.5650005341 73.3249969482
8.4000005722 -17.1470012665 66.9059982300
10.2290000916 1.6990001202 79.5029983521
9.1920003891 -5.0180001259 79.6609954834
8.1380004883 -11.7330007553 79.8249969482
6.1250004768 -19.6150016785 79.5149993896
5.5780000687 -20.6720008850 82.8009948730
1.3210000992 -17.9420013428 82.7689971924
-9.4950008392 1.1269999743 72.9609985352
-17.1110000610 -0.9630000591 79.3909988403
-9.7990007401 2.7470002174 79.3619995117
-9.3660001755 -8.7360000610 67.0429992676
-10.0060005188 -7.7829999924 73.3339996338
-15.6130008698 -4.5910000801 66.9249954224
-0.7330000401 -15.1200008392 79.5239944458
-6.0310001373 -10.8610010147 79.6839981079
-11.3170003891 -6.5890002251 79.8479995728
-9.2710008621 -9.6530008316 60.9629974365
-3.9700002670 -11.5660009384 66.8959960938
2.4340000153 -14.4420003891 60.6589965820
-15.7760009766 -0.9490001202 13.5989913940
-13.8250007629 9.2740001678 13.8379898071
-13.1760005951 7.2260003090 9.1539916992
14.2400007248 -4.4060001373 33.2939949036
14.8130006790 -3.2470002174 28.2609939575
0.9230000377 14.2160005569 22.8569946289
2.3500001431 13.5220003128 27.7639923096
8.0080003738 6.0790004730 23.1139907837
-13.3930006027 3.0390000343 33.2849960327
-8.7500000000 11.7410001755 33.4939956665
-10.6550006866 11.9640007019 28.4289932251
-19.3770008087 -8.7280006409 22.9669952393
-18.9960002899 -7.1920003891 27.9489936829
-15.8550004959 1.4700000286 23.2269935608
-1.4350000620 -15.9070014954 33.1599960327
-11.2920007706 -16.2520008087 33.3809928894
-11.1330003738 -17.7000007629 28.3619956970
10.6570005417 -14.8410005569 22.9719924927
9.6250000000 -15.3250007629 27.8729934692
0.0640000030 -16.8889999390 23.2319946289
8.9190006256 -1.5020000935 54.9009971619
10.4410009384 -8.1579999924 55.0609970093
11.4320001602 -7.3740005493 49.3579940796
5.9960002899 8.8250007629 43.4419937134
6.7880001068 6.9300003052 49.0019950867
9.2370004654 1.1699999571 43.6419944763
-6.7310004234 3.2520000935 55.0499954224
-1.7190001011 7.8880004883 55.2029953003
-3.1750001907 8.9790000916 49.5379943848
-14.9540004730 -3.1210002899 43.6729965210
-13.2700004578 -2.1670000553 49.2029953003
-9.9230003357 3.4970002174 43.8629951477
-3.0420000553 -12.6810007095 54.9239959717
-9.5659999847 -10.6690006256 55.0829963684
-10.0800008774 -11.8540010452 49.3949966431
5.8540000916 -15.2960014343 43.5009956360
4.6280002594 -14.9930009842 49.0419960022
-2.3950002193 -14.2690010071 43.6999931335
8.3600006104 2.5139999390 66.7429962158
9.0729999542 1.8610000610 73.0249938965
8.6210002899 -3.5740003586 66.8899993896
-3.4680001736 5.2200002670 79.5109939575
2.8690001965 7.6790003777 79.6689987183
1.6010000706 6.7610001564 73.2579956055
-9.7370004654 0.0649999380 66.7589950562
-4.5960001945 3.3340001106 66.9069976807
1.4330000877 -14.3840007782 66.7479934692
0.4130000174 -14.5870008469 73.0339965820
-7.2580003738 -9.9130001068 0.0019912720
-7.3290004730 1.8410000801 0.0029907227
8.9460000992 -7.6500005722 0.0059890747
-1.1830000877 -13.6170005798 0.0079956055
8.6960000992 9.4790000916 73.0299987793
-5.5110001564 3.1670000553 60.8909950256
-15.9120006561 -3.0180001259 73.0489959717
-3.9500002861 3.9500000477 73.1079940796
-4.8000001907 -11.1910009384 73.1829986572
-3.4210002422 -12.0550003052 60.8119964600
7.2020001411 -18.0780010223 73.1099929810
-17.6979999542 -11.1760005951 13.3839950562
-18.9900016785 -10.1210002899 18.1079940796
-13.4370002747 10.7620000839 18.6189956665
-11.7580003738 -20.5330009460 4.4259948730
-19.1460018158 -22.8980007172 13.5479965210
-3.5320000648 -17.2110004425 5.1059951782
11.7620000839 -12.9670009613 13.5989913940
11.4080009460 -14.0570011139 18.2149963379
-9.4630002975 -19.6560001373 18.7299957275
15.0600004196 -2.0860002041 23.3709945679
22.4310016632 -11.7940006256 23.2169952393
3.7360000610 12.2890005112 32.8279953003
4.9730000496 10.6690006256 38.0519943237
13.4240007401 -5.5010004044 38.4829940796
19.5390014648 -14.3460006714 33.2599945068
-7.5930004120 22.8990001678 23.2119941711
-2.7920000553 21.3050003052 33.3469924927
-12.2930002213 11.6550006866 23.4779930115
-18.0100002289 -5.6760001183 33.0559959412
-16.5990009308 -4.2960004807 38.2939949036
-6.7730002403 11.0780000687 38.6919937134
-22.6420001984 -20.4150009155 23.3079948425
-22.5220012665 -15.8320007324 33.4489936829
-10.5370006561 -18.8960018158 23.4829940796
8.4200000763 -15.5300006866 32.9239959717
7.1370005608 -15.5010013580 38.1309928894
-11.0910005569 -14.7150011063 38.5529937744
12.4570007324 -6.4940004349 43.8339958191
15.4710006714 -15.7240009308 43.8449935913
7.3800001144 5.1490001678 54.7359962463
7.8580002785 3.6360001564 60.6479949951
9.5650005341 -8.8950004578 60.9519958496
11.5000009537 -16.3240013123 55.0429954529
1.6160000563 17.3200016022 43.9659957886
4.8320002556 12.8770008087 55.1509971619
-4.8780002594 10.1040000916 44.0359954834
-11.7330007553 -1.3950002193 54.8889961243
-10.5110006332 -0.7040001154 60.7389984131
-0.5020000339 7.0260004997 61.0379943848
-20.0910015106 -11.1830005646 44.0459938049
-17.1389999390 -7.4910001755 55.1899948120
-10.6410007477 -13.2180004120 43.8879966736
3.4880001545 -14.6770009995 54.7589950562
17.5640010834 -15.1720008850 38.4799957275
-1.9770001173 -15.1210002899 38.3489952087
-22.9670009613 -18.2360000610 28.3299942017
-21.4920005798 -13.4270009995 38.6829948425
8.8690004349 -9.6620006561 67.0369949341
7.2770004272 9.9250001907 66.9139938354
10.6660003662 9.8510007858 79.3419952393
0.5540000200 6.5910000801 67.0529937744
-8.2280006409 3.4110000134 49.3759956360
3.3770000935 15.0290002823 49.4859962463
-16.0830001831 -6.0040001869 60.9799957275
6.0740003586 11.1070003510 60.9589958191
-11.6950006485 3.3970000744 38.5029945374
3.8930001259 2.5380001068 0.0069961548
-7.2930002213 -4.0360002518 0.0029907227
3.8800001144 -10.6330003738 0.0069961548
5.5670003891 6.1780004501 9.2449951172
7.2660002708 6.6300001144 18.3539962769
21.2370014191 -6.5820002556 9.0259933472
-11.1340007782 17.6060009003 8.7629928589
-14.2980003357 -2.2180001736 8.9719924927
-16.2330017090 0.3259999752 18.3599929810
-15.8980007172 -22.4930019379 8.8809967041
2.8520002365 -15.3229999542 9.3249969482
0.9780000448 -16.8770008087 18.4729919434
8.5980005264 5.1490001678 28.0149955750
9.2110004425 2.5900001526 38.2719955444
21.2230014801 -13.2150011063 28.1769943237
-5.2360000610 22.5100002289 28.2279930115
-14.8420009613 2.3930001259 28.1979942322
-0.7520000339 -16.5310001373 28.1239929199
9.1200008392 -0.2190001011 49.1829948425
8.7190008163 -2.6280002594 60.8009948730
13.4100008011 -16.0720005035 49.3639945984
-18.5570011139 -9.1970005035 49.5469932556
-2.7280001640 -13.4330005646 49.2219963074
8.7400007248 -4.3520002365 73.1739959717
-7.0000004768 8.3170003891 0.0039901733
14.5200004578 -3.8700003624 0.0089950562
-6.7640004158 -16.6060009003 0.0069961548
-9.5950002670 22.2880001068 18.2819900513
22.9660015106 -10.1380004883 18.3699951172
-21.3970012665 -22.0830001831 18.3739929199
-0.4630000293 19.4970016479 38.5889930725
9.8210000992 -16.6250000000 60.8879928589
-16.0676136017 -1.5176792145 87.1999969482
-19.1110382080 2.3570826054 87.1999969482
-19.1746826172 2.3232440948 87.1999969482
-14.1286630630 4.1005573273 87.1999969482
-14.3392219543 4.0315942764 87.1999969482
-15.6951074600 -1.9767687321 87.1999969482
-13.2753229141 -4.4318919182 87.1999969482
-10.1826248169 -7.4951677322 87.1999969482
-10.3032112122 5.1117954254 87.1999969482
-10.4951190948 -7.2150888443 87.1999969482
-10.5382776260 5.0348396301 87.1999969482
-12.9396934509 -4.7327427864 87.1999969482
4.6204905510 9.0469274521 87.1999969482
1.1530057192 8.1463565826 87.1999969482
0.8688946962 -18.5935115814 87.1999969482
4.6360230446 -21.8038825989 87.1999969482
9.6614551544 -5.9112248421 87.1999969482
8.8797788620 10.1292581558 87.1999969482
8.7200908661 -9.3228216171 87.1999969482
6.4806089401 -17.4178371429 87.1999969482
4.9635305405 9.1593084335 87.1999969482
4.7729039192 -21.8912563324 87.1999969482
-2.6612219810 7.1346535683 87.1999969482
-2.9483814240 7.0405640602 87.1999969482
-4.6614785194 -13.0343637466 87.1999969482
-2.1424741745 -15.5921897888 87.1999969482
-6.4797768593 6.1221723557 87.1999969482
-6.7406153679 6.0368037224 87.1999969482
-7.4232406616 -10.2620315552 87.1999969482
-4.9281816483 -12.7953367233 87.1999969482
0.8381026983 8.0433368683 87.1999969482
0.6453298330 -18.3932189941 87.1999969482
8.6363334656 -9.7213144302 87.1999969482
8.3965749741 10.0506811142 87.1999969482
7.7042226791 -13.0975112915 87.1999969482
6.6921958923 -16.8676319122 87.1999969482
7.6140651703 -13.5262813568 87.1999969482
-7.7125720978 -10.0027561188 87.1999969482
-1.8973345757 -15.8118877411 87.1999969482
9.7389163971 -5.5429377556 87.1999969482
10.6902866364 -2.0983526707 87.1999969482
10.7614402771 -1.7596805096 87.1999969482
11.7213497162 1.7180055380 87.1999969482
11.7866525650 2.0284171104 87.1999969482
12.7548732758 5.5374116898 87.1999969482
12.8142890930 5.8204226494 87.1999969482
13.7336063385 10.8709459305 87.1999969482
13.7375841141 10.9505643845 87.1999969482
3 0 1 2
3 3 4 5
3 6 7 8
3 9 10 11
3 12 13 14
3 15 16 17
3 18 19 20
3 21 22 23
3 24 25 26
3 27 28 29
3 30 31 32
3 33 34 35
3 36 37 38
3 39 40 41
3 42 43 44
3 45 46 47
3 48 49 50
3 51 52 53
3 54 55 56
3 57 58 59
3 60 61 62
3 63 64 65
3 66 67 68
3 69 70 71
3 72 73 74
3 75 76 77
3 78 79 80
3 81 82 83
3 84 85 86
3 87 88 89
3 32 90 91
3 92 30 93
3 94 95 96
3 97 98 99
3 100 101 102
3 103 104 105
3 106 107 108
3 109 110 111
3 112 113 114
3 115 116 117
3 118 119 120
3 121 122 123
3 124 125 126
3 127 128 129
3 130 131 132
3 133 134 135
3 136 137 138
3 139 140 141
3 142 143 144
3 145 146 147
3 148 149 150
3 151 152 153
3 154 155 156
3 157 158 159
3 160 161 162
3 163 164 165
3 166 167 168
3 169 170 171
3 172 173 174
3 4 175 176
3 8 9 177
3 178 179 180
3 181 182 183
3 184 185 186
3 187 188 189
3 190 191 192
3 193 194 195
3 196 197 198
3 199 200 201
3 202 203 204
3 205 206 207
3 208 209 210
3 211 212 213
3 214 215 216
3 217 218 219
3 220 221 222
3 223 224 225
3 226 227 228
3 229 230 231
3 232 233 234
3 235 236 237
3 238 239 240
3 241 242 243
3 244 245 246
3 247 248 249
3 250 251 252
3 253 254 255
3 256 257 258
3 259 260 261
3 262 263 21
3 22 264 265
3 49 266 267
3 268 269 270
3 271 272 273
3 274 275 276
3 277 278 279
3 280 281 282
3 283 284 285
3 286 287 288
3 289 290 291
3 292 293 294
3 295 296 297
3 298 299 300
3 301 302 31
3 52 303 304
3 305 53 306
3 307 308 51
3 28 309 310
3 311 29 312
3 313 314 27
3 315 316 55
3 265 317 164
3 167 318 319
3 320 168 321
3 322 262 166
3 171 323 264
3 6 169 263
3 324 325 170
3 320 326 173
3 174 327 266
3 322 172 328
3 329 330 331
3 56 332 333
3 334 54 335
3 20 336 337
3 338 18 339
3 340 341 19
3 25 342 343
3 344 26 345
3 346 347 24
3 348 15 349
3 350 351 16
3 17 352 353
3 318 23 354
3 355 356 357
3 358 359 360
3 98 361 362
3 90 99 363
3 50 3 10
3 328 48 7
3 364 365 46
3 47 366 367
3 368 45 369
3 44 370 371
3 372 42 373
3 374 375 43
3 13 376 377
3 378 14 379
3 380 381 12
3 382 39 383
3 384 385 40
3 41 386 387
3 388 38 389
3 390 391 36
3 37 392 393
3 394 395 34
3 396 35 397
3 398 33 399
3 400 401 1
3 2 402 403
3 404 0 405
3 71 406 407
3 408 69 409
3 410 411 70
3 67 412 413
3 414 68 415
3 416 417 66
3 418 63 419
3 420 421 64
3 65 422 423
3 424 74 425
3 426 427 72
3 73 428 429
3 59 430 431
3 432 57 433
3 434 435 58
3 61 436 437
3 438 62 439
3 440 441 60
3 77 442 443
3 444 75 445
3 446 447 76
3 95 448 449
3 450 96 451
3 452 453 94
3 454 455 456
3 457 458 459
3 460 461 462
3 463 464 465
3 360 466 467
3 468 469 470
3 471 472 473
3 474 475 455
3 463 476 477
3 478 479 480
3 370 189 481
3 375 482 187
3 191 371 483
3 484 192 485
3 486 373 190
3 194 487 374
3 302 488 97
3 101 91 489
3 321 102 490
3 319 93 100
3 301 104 491
3 492 105 92
3 103 493 494
3 362 465 107
3 108 462 303
3 363 106 308
3 304 459 110
3 111 456 495
3 306 109 496
3 489 307 113
3 114 305 497
3 498 490 112
3 495 499 116
3 117 500 309
3 496 115 314
3 310 501 119
3 120 502 503
3 312 118 504
3 497 313 122
3 123 311 505
3 498 121 506
3 499 475 124
3 472 315 125
3 500 126 334
3 469 127 316
3 466 507 128
3 129 508 332
3 501 335 133
3 333 509 134
3 502 135 510
3 137 507 511
3 336 138 512
3 341 508 136
3 140 337 513
3 514 141 515
3 516 339 139
3 143 509 340
3 517 144 338
3 518 510 142
3 511 359 146
3 147 356 342
3 512 145 347
3 343 479 149
3 150 476 361
3 345 148 488
3 513 346 152
3 491 153 344
3 494 515 151
3 519 156 520
3 317 349 154
3 155 353 521
3 323 159 348
3 325 522 157
3 158 523 350
3 352 162 524
3 351 525 160
3 267 526 175
3 527 446 79
3 528 529 82
3 83 530 448
3 176 531 532
3 533 97 99
3 97 534 98
3 102 101 535
3 536 100 102
3 100 537 101
3 105 104 538
3 539 103 105
3 104 103 540
3 107 541 108
3 106 108 542
3 543 107 106
3 110 544 111
3 109 111 545
3 546 110 109
3 113 547 114
3 548 112 114
3 535 113 112
3 116 549 117
3 161 550 551
3 165 519 493
3 354 163 492
3 324 177 552
3 326 506 178
3 179 505 364
3 327 180 368
3 365 504 181
3 182 503 553
3 366 183 482
3 526 369 130
3 131 367 487
3 554 195 372
3 555 556 193
3 557 518 197
3 198 517 376
3 481 196 381
3 377 516 200
3 520 201 514
3 55 558 56
3 54 56 559
3 560 55 54
3 18 20 561
3 562 19 18
3 19 563 20
3 26 25 564
3 565 24 26
3 24 566 25
3 567 16 15
3 531 132 556
3 188 553 557
3 521 379 199
3 483 380 203
3 524 204 378
3 551 485 202
3 568 207 569
3 570 383 205
3 206 387 571
3 572 210 382
3 573 574 208
3 209 575 384
3 386 213 576
3 385 577 211
3 212 578 579
3 216 568 550
3 389 214 525
3 393 570 215
3 219 388 523
3 580 217 522
3 581 390 218
3 222 572 392
3 582 220 391
3 583 573 221
3 580 584 223
3 224 585 394
3 398 581 225
3 395 586 227
3 587 228 588
3 589 397 226
3 230 582 399
3 590 231 396
3 591 583 229
3 552 232 584
3 11 400 233
3 234 404 585
3 401 5 235
3 236 532 592
3 402 237 593
3 586 405 238
3 239 403 594
3 588 240 595
3 242 592 596
3 406 243 597
3 411 593 241
3 245 407 598
3 599 246 600
3 601 409 244
3 248 594 410
3 530 249 408
3 529 595 247
3 596 555 251
3 252 554 412
3 597 250 417
3 413 486 254
3 569 255 484
3 571 415 253
3 598 416 257
3 576 258 414
3 579 600 256
3 602 261 603
3 604 419 259
3 260 423 605
3 606 270 418
3 422 186 607
3 273 602 578
3 425 271 577
3 429 604 272
3 276 424 575
3 608 274 574
3 609 426 275
3 278 606 428
3 610 279 427
3 611 612 277
3 281 608 613
3 430 282 614
3 435 609 280
3 284 431 615
3 287 610 434
3 613 591 290
3 291 590 436
3 614 289 441
3 437 589 293
3 294 587 616
3 617 439 292
3 615 440 296
3 527 297 438
3 618 619 295
3 299 616 528
3 442 300 620
3 447 617 298
3 330 443 621
3 259 622 260
3 261 260 623
3 268 270 624
3 270 269 625
3 626 184 186
3 186 185 627
3 620 81 453
3 449 601 85
3 603 86 599
3 605 451 84
3 621 452 88
3 607 89 450
3 628 629 87
3 30 32 537
3 538 31 30
3 31 533 32
3 53 52 546
3 547 51 53
3 296 630 297
3 631 295 297
3 632 296 295
3 300 299 633
3 634 298 300
3 298 635 299
3 331 330 636
3 329 637 330
3 80 79 638
3 631 79 78
3 82 639 83
3 81 83 640
3 633 82 81
3 85 641 86
3 51 542 52
3 29 28 642
3 643 27 29
3 27 644 28
3 16 645 17
3 15 17 646
3 647 21 23
3 21 648 22
3 23 22 649
3 50 49 650
3 48 50 651
3 652 49 48
3 46 653 47
3 45 47 654
3 655 46 45
3 42 44 656
3 657 43 42
3 43 658 44
3 14 13 659
3 660 12 14
3 12 661 13
3 662 40 39
3 40 663 41
3 39 41 664
3 665 36 38
3 36 666 37
3 38 37 667
3 35 34 668
3 669 33 35
3 670 34 33
3 1 671 2
3 0 2 672
3 673 1 0
3 69 71 674
3 675 70 69
3 70 676 71
3 68 67 677
3 678 66 68
3 66 679 67
3 625 64 63
3 64 626 65
3 63 65 622
3 680 72 74
3 72 681 73
3 74 73 682
3 57 59 683
3 684 58 57
3 58 685 59
3 62 61 686
3 630 60 62
3 60 687 61
3 75 77 637
3 638 76 75
3 76 634 77
3 96 95 688
3 689 94 96
3 94 640 95
3 458 454 544
3 464 460 541
3 467 690 468
3 473 691 474
3 477 692 478
3 357 693 358
3 432 684 57
3 58 435 685
3 684 434 58
3 434 694 435
3 436 695 437
3 61 437 686
3 687 436 61
3 62 686 439
3 696 438 439
3 630 62 438
3 441 687 60
3 440 60 630
3 697 441 440
3 443 442 698
3 637 77 443
3 77 634 442
3 445 75 637
3 444 638 75
3 76 447 634
3 638 446 76
3 446 696 447
3 448 699 449
3 95 449 688
3 640 448 95
3 96 688 451
3 700 450 451
3 689 96 450
3 453 640 94
3 452 94 689
3 698 453 452
3 99 98 543
3 115 117 644
3 545 116 115
3 119 701 120
3 118 120 702
3 642 119 118
3 122 643 123
3 121 123 703
3 548 122 121
3 124 691 125
3 126 125 560
3 549 124 126
3 690 128 127
3 128 704 129
3 127 129 558
3 133 559 134
3 135 134 705
3 701 133 135
3 138 137 706
3 563 136 138
3 136 704 137
3 141 140 707
3 708 139 141
3 139 561 140
3 144 143 562
3 709 142 144
3 142 705 143
3 146 693 147
3 145 147 566
3 706 146 145
3 149 692 150
3 148 150 534
3 564 149 148
3 152 565 153
3 540 151 153
3 707 152 151
3 710 154 156
3 154 646 155
3 156 155 711
3 712 157 159
3 157 713 158
3 159 158 567
3 645 160 162
3 160 714 161
3 162 161 715
3 163 165 539
3 649 164 163
3 164 710 165
3 168 167 536
3 716 166 168
3 166 647 167
3 169 171 648
3 717 170 169
3 170 712 171
3 173 718 174
3 172 174 652
3 716 173 172
3 175 719 176
3 4 176 720
3 650 175 4
3 8 651 9
3 177 9 721
3 717 8 177
3 178 703 179
3 180 179 655
3 718 178 180
3 181 702 182
3 183 182 722
3 653 181 183
3 130 654 131
3 132 131 723
3 719 130 132
3 189 188 724
3 658 187 189
3 187 722 188
3 192 191 725
3 726 190 192
3 190 656 191
3 195 194 657
3 727 193 195
3 193 723 194
3 197 709 198
3 196 198 661
3 724 197 196
3 200 708 201
3 711 199 201
3 659 200 199
3 203 660 204
3 715 202 204
3 725 203 202
3 728 205 207
3 205 664 206
3 207 206 729
3 730 208 210
3 208 731 209
3 210 209 662
3 663 211 213
3 211 732 212
3 213 212 733
3 214 216 714
3 667 215 214
3 215 728 216
3 217 219 713
3 734 218 217
3 218 665 219
3 220 222 666
3 735 221 220
3 221 730 222
3 223 736 224
3 225 224 670
3 225 734 223
3 228 227 737
3 738 226 228
3 226 668 227
3 231 230 669
3 739 229 231
3 229 735 230
3 721 233 232
3 233 673 234
3 232 234 736
3 235 720 236
3 237 236 740
3 671 235 237
3 238 672 239
3 240 239 741
3 737 238 240
3 243 242 742
3 676 241 243
3 241 740 242
3 246 245 743
3 641 244 246
3 244 674 245
3 249 248 675
3 639 247 249
3 247 741 248
3 251 727 252
3 250 252 679
3 742 251 250
3 254 726 255
3 729 253 255
3 677 254 253
3 257 678 258
3 744 485 551
3 744 484 485
3 726 192 484
3 373 656 190
3 486 190 726
3 745 373 486
3 374 487 746
3 194 374 657
3 194 723 487
3 195 657 372
3 554 372 745
3 727 195 554
3 556 723 193
3 555 193 727
3 747 556 555
3 197 518 709
3 733 256 258
3 743 257 256
3 748 259 261
3 271 273 732
3 682 272 271
3 272 748 273
3 274 276 731
3 749 275 274
3 275 680 276
3 279 278 681
3 750 277 279
3 277 624 278
3 282 281 751
3 685 280 282
3 280 749 281
3 285 284 632
3 283 683 284
3 288 287 684
3 286 750 287
3 290 739 291
3 289 291 687
3 585 752 394
3 224 394 670
3 225 581 734
3 225 670 398
3 398 753 581
3 752 405 586
3 752 586 395
3 586 238 737
3 227 586 737
3 668 395 227
3 588 737 240
3 228 737 588
3 588 595 754
3 587 588 754
3 738 228 587
3 397 668 226
3 589 226 738
3 695 397 589
3 399 582 753
3 230 399 669
3 230 735 582
3 231 669 396
3 590 396 695
3 739 231 590
3 229 583 735
3 591 229 739
3 591 755 583
3 552 721 232
3 721 11 233
3 11 756 400
3 233 400 673
3 234 673 404
3 756 5 401
3 751 290 289
3 293 738 294
3 635 292 294
3 686 293 292
3 623 84 86
3 688 85 84
3 88 689 89
3 627 87 89
3 636 88 87
3 461 457 757
3 470 758 471
3 480 759 355
3 91 90 760
3 537 32 91
3 32 533 90
3 93 30 537
3 761 92 93
3 92 538 30
3 31 302 533
3 538 301 31
3 301 762 302
3 303 757 304
3 52 304 546
3 542 303 52
3 53 546 306
3 305 306 763
3 547 53 305
3 308 542 51
3 307 51 547
3 760 308 307
3 309 764 310
3 28 310 642
3 644 309 28
3 29 642 312
3 311 312 765
3 643 29 311
3 314 644 27
3 313 27 643
3 763 314 313
3 758 316 315
3 316 558 55
3 560 315 55
3 558 332 56
3 332 766 333
3 56 333 559
3 334 560 54
3 335 54 559
3 764 334 335
3 337 336 767
3 561 20 337
3 20 563 336
3 339 18 561
3 768 338 339
3 338 562 18
3 19 341 563
3 562 340 19
3 340 766 341
3 342 759 343
3 25 343 564
3 566 342 25
3 26 564 345
3 344 345 762
3 565 26 344
3 347 566 24
3 346 24 565
3 767 347 346
3 769 348 349
3 348 567 15
3 349 15 646
3 567 350 16
3 350 770 351
3 16 351 645
3 646 17 353
3 17 645 352
3 353 352 771
3 318 354 761
3 647 23 318
3 23 649 354
3 262 21 647
3 772 263 262
3 263 648 21
3 22 265 649
3 648 264 22
3 264 769 265
3 266 773 267
3 49 267 650
3 652 266 49
3 50 650 3
3 10 3 756
3 651 50 10
3 328 652 48
3 7 48 651
3 772 328 7
3 364 765 365
3 46 365 653
3 655 364 46
3 47 653 366
3 367 366 746
3 654 47 367
3 368 655 45
3 369 45 654
3 773 368 369
3 371 370 774
3 656 44 371
3 44 658 370
3 373 42 656
3 745 372 373
3 372 657 42
3 43 375 658
3 657 374 43
3 374 746 375
3 376 768 377
3 13 377 659
3 661 376 13
3 14 659 379
3 771 378 379
3 660 14 378
3 381 661 12
3 380 12 660
3 774 381 380
3 775 382 383
3 382 662 39
3 383 39 664
3 662 384 40
3 384 776 385
3 40 385 663
3 664 41 387
3 41 663 386
3 387 386 777
3 388 389 770
3 665 38 388
3 38 667 389
3 390 36 665
3 753 391 390
3 391 666 36
3 37 393 667
3 666 392 37
3 392 775 393
3 394 752 395
3 34 395 668
3 670 394 34
3 397 35 668
3 695 396 397
3 396 669 35
3 398 670 33
3 399 33 669
3 399 753 398
3 400 756 401
3 1 401 671
3 673 400 1
3 2 671 402
3 403 402 778
3 672 2 403
3 673 0 404
3 405 0 672
3 404 405 752
3 407 406 779
3 674 71 407
3 71 676 406
3 409 69 674
3 699 408 409
3 408 675 69
3 70 411 676
3 675 410 70
3 410 778 411
3 412 745 413
3 67 413 677
3 679 412 67
3 68 677 415
3 777 414 415
3 678 68 414
3 417 679 66
3 416 66 678
3 779 417 416
3 780 418 419
3 418 625 63
3 419 63 622
3 625 420 64
3 64 421 626
3 622 65 423
3 65 626 422
3 423 422 700
3 424 425 776
3 680 74 424
3 74 682 425
3 426 72 680
3 694 427 426
3 427 681 72
3 73 429 682
3 681 428 73
3 428 780 429
3 431 430 697
3 683 59 431
3 59 685 430
3 433 57 683
3 455 475 781
3 456 455 781
3 544 454 456
3 459 458 544
3 757 457 459
3 462 461 757
3 541 460 462
3 465 464 541
3 782 476 463
3 782 463 465
3 359 783 360
3 360 783 466
3 467 466 690
3 468 690 469
3 470 469 758
3 471 758 472
3 473 472 691
3 474 691 475
3 476 692 477
3 692 479 478
3 479 759 480
3 759 356 355
3 356 693 357
3 693 359 358
3 362 782 465
3 362 361 782
3 543 362 107
3 98 362 543
3 98 534 361
3 363 543 106
3 99 543 363
3 760 363 308
3 90 363 760
3 533 99 90
3 97 488 534
3 302 97 533
3 302 762 488
3 489 760 307
3 91 760 489
3 535 489 113
3 101 489 535
3 537 91 101
3 490 535 112
3 102 535 490
3 784 490 498
3 784 321 490
3 536 102 321
3 93 537 100
3 319 100 536
3 761 93 319
3 301 491 762
3 104 301 538
3 104 540 491
3 105 538 92
3 492 92 761
3 539 105 492
3 103 494 540
3 493 103 539
3 493 785 494
3 107 465 541
3 108 541 462
3 303 462 757
3 542 108 303
3 308 106 542
3 304 757 459
3 110 459 544
3 546 304 110
3 111 544 456
3 495 456 781
3 545 111 495
3 306 546 109
3 496 109 545
3 763 306 496
3 113 307 547
3 114 547 305
3 497 305 763
3 548 114 497
3 498 112 548
3 781 475 499
3 495 781 499
3 499 124 549
3 116 499 549
3 545 495 116
3 549 126 500
3 117 549 500
3 500 334 764
3 309 500 764
3 644 117 309
3 496 545 115
3 314 115 644
3 763 496 314
3 764 335 501
3 310 764 501
3 501 133 701
3 119 501 701
3 642 310 119
3 701 135 502
3 120 701 502
3 502 510 786
3 503 502 786
3 702 120 503
3 312 642 118
3 504 118 702
3 765 312 504
3 497 763 313
3 122 313 643
3 548 497 122
3 123 643 311
3 505 311 765
3 703 123 505
3 498 548 121
3 506 121 703
3 784 498 506
3 475 691 124
3 472 125 691
3 758 315 472
3 125 315 560
3 126 560 334
3 469 316 758
3 690 127 469
3 316 127 558
3 466 128 690
3 783 507 466
3 507 704 128
3 558 129 332
3 704 508 129
3 332 508 766
3 335 559 133
3 559 333 134
3 333 766 509
3 134 509 705
3 135 705 510
3 511 783 359
3 511 507 783
3 706 511 146
3 137 511 706
3 137 704 507
3 512 706 145
3 138 706 512
3 767 512 347
3 336 512 767
3 563 138 336
3 136 508 704
3 341 136 563
3 341 766 508
3 513 767 346
3 337 767 513
3 707 513 152
3 140 513 707
3 561 337 140
3 515 707 151
3 141 707 515
3 785 515 494
3 785 514 515
3 708 141 514
3 339 561 139
3 516 139 708
3 768 339 516
3 340 509 766
3 143 340 562
3 143 705 509
3 144 562 338
3 517 338 768
3 709 144 517
3 142 510 705
3 518 142 709
3 518 786 510
3 146 359 693
3 147 693 356
3 342 356 759
3 566 147 342
3 347 145 566
3 343 759 479
3 149 479 692
3 564 343 149
3 150 692 476
3 361 476 782
3 534 150 361
3 345 564 148
3 488 148 534
3 762 345 488
3 152 346 565
3 153 565 344
3 491 344 762
3 540 153 491
3 494 151 540
3 493 519 785
3 519 520 785
3 165 710 519
3 710 156 519
3 156 711 520
3 164 317 710
3 317 154 710
3 265 769 317
3 769 349 317
3 349 646 154
3 155 521 711
3 646 353 155
3 353 771 521
3 264 323 769
3 323 348 769
3 171 712 323
3 712 159 323
3 159 567 348
3 170 325 712
3 325 157 712
3 324 787 325
3 787 522 325
3 522 713 157
3 158 350 567
3 713 523 158
3 523 770 350
3 352 524 771
3 645 162 352
3 162 715 524
3 351 160 645
3 770 525 351
3 525 714 160
3 161 551 715
3 714 550 161
3 550 744 551
3 539 165 493
3 492 163 539
3 761 354 492
3 354 649 163
3 649 265 164
3 319 318 761
3 167 319 536
3 167 647 318
3 168 536 321
3 320 321 784
3 716 168 320
3 166 262 647
3 322 166 716
3 772 262 322
3 648 171 264
3 263 169 648
3 772 6 263
3 6 717 169
3 717 324 170
3 784 506 326
3 320 784 326
3 326 178 718
3 173 326 718
3 716 320 173
3 718 180 327
3 174 718 327
3 327 368 773
3 266 327 773
3 652 174 266
3 716 172 322
3 172 652 328
3 322 328 772
3 773 369 526
3 267 773 526
3 526 130 719
3 175 526 719
3 650 267 175
3 719 132 531
3 176 719 531
3 531 556 747
3 532 531 747
3 720 176 532
3 3 650 4
3 5 4 720
3 756 3 5
3 772 7 6
3 7 651 8
3 6 8 717
3 651 10 9
3 10 756 11
3 9 11 721
3 717 177 324
3 177 721 552
3 324 552 787
3 506 703 178
3 703 505 179
3 505 765 364
3 179 364 655
3 180 655 368
3 765 504 365
3 504 702 181
3 365 181 653
3 702 503 182
3 503 786 553
3 182 553 722
3 653 183 366
3 183 722 482
3 366 482 746
3 369 654 130
3 654 367 131
3 367 746 487
3 131 487 723
3 132 723 556
3 557 786 518
3 557 553 786
3 724 557 197
3 188 557 724
3 188 722 553
3 481 724 196
3 189 724 481
3 774 481 381
3 370 481 774
3 658 189 370
3 187 482 722
3 375 187 658
3 375 746 482
3 483 774 380
3 371 774 483
3 725 483 203
3 191 483 725
3 656 371 191
3 485 725 202
3 192 725 485
3 198 709 517
3 376 517 768
3 661 198 376
3 381 196 661
3 377 768 516
3 200 516 708
3 659 377 200
3 201 708 514
3 520 514 785
3 711 201 520
3 379 659 199
3 521 199 711
3 771 379 521
3 203 380 660
3 204 660 378
3 524 378 771
3 715 204 524
3 551 202 715
3 550 568 744
3 568 569 744
3 216 728 568
3 728 207 568
3 207 729 569
3 215 570 728
3 570 205 728
3 393 775 570
3 775 383 570
3 383 664 205
3 206 571 729
3 664 387 206
3 387 777 571
3 392 572 775
3 572 382 775
3 222 730 572
3 730 210 572
3 210 662 382
3 221 573 730
3 573 208 730
3 583 755 573
3 755 574 573
3 574 731 208
3 209 384 662
3 731 575 209
3 575 776 384
3 386 576 777
3 663 213 386
3 213 733 576
3 385 211 663
3 776 577 385
3 577 732 211
3 212 579 733
3 732 578 212
3 578 788 579
3 714 216 550
3 525 214 714
3 770 389 525
3 389 667 214
3 667 393 215
3 523 388 770
3 713 219 523
3 219 665 388
3 522 217 713
3 787 580 522
3 580 734 217
3 218 390 665
3 734 581 218
3 581 753 390
3 666 222 392
3 391 220 666
3 753 582 391
3 582 735 220
3 735 583 221
3 787 552 584
3 787 584 580
3 584 232 736
3 584 736 223
3 223 734 580
3 736 234 585
3 736 585 224
3 585 404 752
3 5 720 235
3 401 235 671
3 720 532 236
3 532 747 592
3 236 592 740
3 671 237 402
3 237 740 593
3 402 593 778
3 405 672 238
3 672 403 239
3 403 778 594
3 239 594 741
3 240 741 595
3 596 747 555
3 592 747 596
3 742 596 251
3 242 596 742
3 740 592 242
3 597 742 250
3 243 742 597
3 779 597 417
3 406 597 779
3 676 243 406
3 593 740 241
3 411 241 676
3 778 593 411
3 598 779 416
3 407 779 598
3 743 598 257
3 245 598 743
3 674 407 245
3 600 743 256
3 246 743 600
3 788 600 579
3 788 599 600
3 641 246 599
3 409 674 244
3 601 244 641
3 699 409 601
3 594 778 410
3 248 410 675
3 741 594 248
3 249 675 408
3 530 408 699
3 639 249 530
3 247 595 741
3 529 247 639
3 529 754 595
3 251 555 727
3 252 727 554
3 412 554 745
3 679 252 412
3 417 250 679
3 413 745 486
3 254 486 726
3 677 413 254
3 255 726 484
3 569 484 744
3 729 255 569
3 415 677 253
3 571 253 729
3 777 415 571
3 257 416 678
3 258 678 414
3 576 414 777
3 733 258 576
3 579 256 733
3 578 602 788
3 602 603 788
3 273 748 602
3 748 261 602
3 261 623 603
3 272 604 748
3 604 259 748
3 429 780 604
3 780 419 604
3 419 622 259
3 260 605 623
3 622 423 260
3 423 700 605
3 428 606 780
3 606 418 780
3 278 624 606
3 624 270 606
3 270 625 418
3 612 624 277
3 612 268 624
3 269 420 625
3 422 607 700
3 626 186 422
3 186 627 607
3 421 184 626
3 185 628 627
3 732 273 578
3 577 271 732
3 776 425 577
3 425 682 271
3 682 429 272
3 575 424 776
3 731 276 575
3 276 680 424
3 574 274 731
3 755 608 574
3 608 749 274
3 275 426 680
3 749 609 275
3 609 694 426
3 681 278 428
3 427 279 681
3 610 427 694
3 750 279 610
3 611 277 750
3 613 755 591
3 613 608 755
3 751 613 290
3 281 613 751
3 281 749 608
3 614 751 289
3 282 751 614
3 697 614 441
3 430 614 697
3 685 282 430
3 280 609 749
3 435 280 685
3 435 694 609
3 615 697 440
3 431 697 615
3 632 615 296
3 284 615 632
3 683 431 284
3 619 632 295
3 285 632 619
3 433 683 283
3 434 610 694
3 287 434 684
3 287 750 610
3 288 684 432
3 286 611 750
3 290 591 739
3 291 739 590
3 436 590 695
3 687 291 436
3 441 289 687
3 437 695 589
3 293 589 738
3 686 437 293
3 294 738 587
3 587 754 616
3 294 616 635
3 439 686 292
3 617 292 635
3 696 439 617
3 296 440 630
3 297 630 438
3 527 438 696
3 631 297 527
3 618 295 631
3 528 754 529
3 528 616 754
3 633 528 82
3 299 528 633
3 299 635 616
3 620 633 81
3 300 633 620
3 698 620 453
3 442 620 698
3 634 300 442
3 298 617 635
3 447 298 634
3 447 696 617
3 621 698 452
3 443 698 621
3 636 621 88
3 330 621 636
3 637 443 330
3 629 636 87
3 331 636 629
3 445 637 329
3 527 696 446
3 79 446 638
3 631 527 79
3 80 638 444
3 618 631 78
3 82 529 639
3 83 639 530
3 448 530 699
3 640 83 448
3 453 81 640
3 449 699 601
3 85 601 641
3 688 449 85
3 86 641 599
3 603 599 788
3 623 86 603
3 451 688 84
3 605 84 623
3 700 451 605
3 88 452 689
3 89 689 450
3 607 450 700
3 627 89 607
3 628 87 627
3 463 477 464
3 477 478 464
3 464 478 460
3 460 478 461
3 478 480 461
3 358 360 467
3 358 467 468
3 357 358 468
3 355 357 468
3 355 468 470
3 480 355 470
3 480 470 471
3 480 471 461
3 461 471 457
3 457 471 473
3 457 473 458
3 458 473 454
3 454 473 474
3 454 474 455
3 789 790 791
3 792 793 794
3 795 792 794
3 796 797 798
3 798 799 800
3 801 802 803
3 804 801 803
3 805 806 807
3 808 809 810
3 811 812 813
3 814 811 813
3 815 816 817
3 818 815 817
3 803 819 820
3 821 822 823
3 815 818 813
3 815 813 812
3 819 803 802
3 809 808 824
3 809 824 825
3 809 825 823
3 809 823 822
3 797 796 826
3 797 826 817
3 797 817 816
3 799 798 797
3 811 814 827
3 811 827 820
3 811 820 819
3 801 804 810
3 801 810 809
3 822 821 807
3 822 807 806
3 806 805 828
3 806 828 829
3 806 829 830
3 806 830 831
3 806 831 832
3 806 832 833
3 806 833 834
3 806 834 835
3 806 835 836
3 790 789 794
3 790 794 793
3 792 795 800
3 792 800 799
3 80 444 796
3 80 796 798
3 618 78 794
3 618 794 789
3 268 612 834
3 268 834 833
3 420 269 830
3 420 830 829
3 184 421 807
3 184 807 821
3 628 185 824
3 628 824 808
3 285 619 793
3 285 793 792
3 433 283 816
3 433 816 815
3 288 432 819
3 288 819 802
3 611 286 822
3 611 822 806
3 331 629 803
3 331 803 820
3 445 329 813
3 445 813 818
3 269 268 832
3 269 832 831
3 185 184 823
3 185 823 825
3 329 331 827
3 329 827 814
3 78 80 800
3 78 800 795
3 444 445 817
3 444 817 826
3 283 285 799
3 283 799 797
3 286 288 801
3 286 801 809
3 421 420 828
3 421 828 805
3 432 433 812
3 432 812 811
3 612 611 836
3 612 836 835
3 835 834 612
3 833 832 268
3 831 830 269
3 829 828 420
3 805 807 421
3 821 823 184
3 825 824 185
3 808 810 628
3 619 618 791
3 619 791 790
3 790 793 619
3 792 799 285
3 797 816 283
3 815 812 433
3 811 819 432
3 802 801 288
3 809 822 286
3 806 836 611
3 629 628 810
3 629 810 804
3 804 803 629
3 820 827 331
3 814 813 329
3 818 817 445
3 826 796 444
3 798 800 80
3 795 794 78
3 789 791 618
