OFF
26 48 0
0.000000 0.000000 5.000000
0.000000 0.000000 -5.000000
3.535534 0.000000 3.535534
2.500000 2.500000 3.535534
0.000000 3.535534 3.535534
-2.500000 2.500000 3.535534
-3.535534 0.000000 3.535534
-2.500000 -2.500000 3.535534
-0.000000 -3.535534 3.535534
2.500000 -2.500000 3.535534
5.000000 0.000000 0.000000
3.535534 3.535534 0.000000
0.000000 5.000000 0.000000
-3.535534 3.535534 0.000000
-5.000000 0.000000 0.000000
-3.535534 -3.535534 0.000000
-0.000000 -5.000000 0.000000
3.535534 -3.535534 0.000000
3.535534 0.000000 -3.535534
2.500000 2.500000 -3.535534
0.000000 3.535534 -3.535534
-2.500000 2.500000 -3.535534
-3.535534 0.000000 -3.535534
-2.500000 -2.500000 -3.535534
-0.000000 -3.535534 -3.535534
2.500000 -2.500000 -3.535534
3 0 2 3
3 1 19 18
3 0 3 4
3 1 20 19
3 0 4 5
3 1 21 20
3 0 5 6
3 1 22 21
3 0 6 7
3 1 23 22
3 0 7 8
3 1 24 23
3 0 8 9
3 1 25 24
3 0 9 2
3 1 18 25
3 2 10 3
3 3 10 11
3 3 11 4
3 4 11 12
3 4 12 5
3 5 12 13
3 5 13 6
3 6 13 14
3 6 14 7
3 7 14 15
3 7 15 8
3 8 15 16
3 8 16 9
3 9 16 17
3 9 17 2
3 2 17 10
3 10 18 11
3 11 18 19
3 11 19 12
3 12 19 20
3 12 20 13
3 13 20 21
3 13 21 14
3 14 21 22
3 14 22 15
3 15 22 23
3 15 23 16
3 16 23 24
3 16 24 17
3 17 24 25
3 17 25 10
3 10 25 18
