OFF
114 224 0
0.000000 0.000000 5.000000
0.000000 0.000000 -5.000000
2.219564 0.000000 5.358501
1.567767 0.649390 4.096772
1.352990 1.352990 4.619398
0.815076 1.967767 5.142023
0.000000 1.607270 3.880294
-0.815076 1.967767 5.142023
-1.352990 1.352990 4.619398
-1.567767 0.649390 4.096772
-2.219564 0.000000 5.358501
-1.567767 -0.649390 4.096772
-1.352990 -1.352990 4.619398
-0.815076 -1.967767 5.142023
-0.000000 -1.607270 3.880294
0.815076 -1.967767 5.142023
1.352990 -1.352990 4.619398
1.567767 -0.649390 4.096772
3.535534 0.000000 3.535534
3.266407 1.352990 3.535534
2.500000 2.500000 3.535534
1.352990 3.266407 3.535534
0.000000 3.535534 3.535534
-1.352990 3.266407 3.535534
-2.500000 2.500000 3.535534
-3.266407 1.352990 3.535534
-3.535534 0.000000 3.535534
-3.266407 -1.352990 3.535534
-2.500000 -2.500000 3.535534
-1.352990 -3.266407 3.535534
-0.000000 -3.535534 3.535534
1.352990 -3.266407 3.535534
2.500000 -2.500000 3.535534
3.266407 -1.352990 3.535534
3.880294 0.000000 1.607270
4.750610 1.967767 2.129896
3.266407 3.266407 1.913417
1.567767 3.784924 1.696939
0.000000 5.358501 2.219564
-1.567767 3.784924 1.696939
-3.266407 3.266407 1.913417
-4.750610 1.967767 2.129896
-3.880294 0.000000 1.607270
-4.750610 -1.967767 2.129896
-3.266407 -3.266407 1.913417
-1.567767 -3.784924 1.696939
-0.000000 -5.358501 2.219564
1.567767 -3.784924 1.696939
3.266407 -3.266407 1.913417
4.750610 -1.967767 2.129896
5.000000 0.000000 0.000000
4.619398 1.913417 0.000000
3.535534 3.535534 0.000000
1.913417 4.619398 0.000000
0.000000 5.000000 0.000000
-1.913417 4.619398 0.000000
-3.535534 3.535534 0.000000
-4.619398 1.913417 0.000000
-5.000000 0.000000 0.000000
-4.619398 -1.913417 0.000000
-3.535534 -3.535534 0.000000
-1.913417 -4.619398 0.000000
-0.000000 -5.000000 0.000000
1.913417 -4.619398 0.000000
3.535534 -3.535534 0.000000
4.619398 -1.913417 0.000000
5.358501 0.000000 -2.219564
3.784924 1.567767 -1.696939
3.266407 3.266407 -1.913417
1.967767 4.750610 -2.129896
0.000000 3.880294 -1.607270
-1.967767 4.750610 -2.129896
-3.266407 3.266407 -1.913417
-3.784924 1.567767 -1.696939
-5.358501 0.000000 -2.219564
-3.784924 -1.567767 -1.696939
-3.266407 -3.266407 -1.913417
-1.967767 -4.750610 -2.129896
-0.000000 -3.880294 -1.607270
1.967767 -4.750610 -2.129896
3.266407 -3.266407 -1.913417
3.784924 -1.567767 -1.696939
3.535534 0.000000 -3.535534
3.266407 1.352990 -3.535534
2.500000 2.500000 -3.535534
1.352990 3.266407 -3.535534
0.000000 3.535534 -3.535534
-1.352990 3.266407 -3.535534
-2.500000 2.500000 -3.535534
-3.266407 1.352990 -3.535534
-3.535534 0.000000 -3.535534
-3.266407 -1.352990 -3.535534
-2.500000 -2.500000 -3.535534
-1.352990 -3.266407 -3.535534
-0.000000 -3.535534 -3.535534
1.352990 -3.266407 -3.535534
2.500000 -2.500000 -3.535534
3.266407 -1.352990 -3.535534
1.607270 0.000000 -3.880294
1.967767 0.815076 -5.142023
1.352990 1.352990 -4.619398
0.649390 1.567767 -4.096772
0.000000 2.219564 -5.358501
-0.649390 1.567767 -4.096772
-1.352990 1.352990 -4.619398
-1.967767 0.815076 -5.142023
-1.607270 0.000000 -3.880294
-1.967767 -0.815076 -5.142023
-1.352990 -1.352990 -4.619398
-0.649390 -1.567767 -4.096772
-0.000000 -2.219564 -5.358501
0.649390 -1.567767 -4.096772
1.352990 -1.352990 -4.619398
1.967767 -0.815076 -5.142023
3 0 2 3
3 1 99 98
3 0 3 4
3 1 100 99
3 0 4 5
3 1 101 100
3 0 5 6
3 1 102 101
3 0 6 7
3 1 103 102
3 0 7 8
3 1 104 103
3 0 8 9
3 1 105 104
3 0 9 10
3 1 106 105
3 0 10 11
3 1 107 106
3 0 11 12
3 1 108 107
3 0 12 13
3 1 109 108
3 0 13 14
3 1 110 109
3 0 14 15
3 1 111 110
3 0 15 16
3 1 112 111
3 0 16 17
3 1 113 112
3 0 17 2
3 1 98 113
3 2 18 3
3 3 18 19
3 3 19 4
3 4 19 20
3 4 20 5
3 5 20 21
3 5 21 6
3 6 21 22
3 6 22 7
3 7 22 23
3 7 23 8
3 8 23 24
3 8 24 9
3 9 24 25
3 9 25 10
3 10 25 26
3 10 26 11
3 11 26 27
3 11 27 12
3 12 27 28
3 12 28 13
3 13 28 29
3 13 29 14
3 14 29 30
3 14 30 15
3 15 30 31
3 15 31 16
3 16 31 32
3 16 32 17
3 17 32 33
3 17 33 2
3 2 33 18
3 18 34 19
3 19 34 35
3 19 35 20
3 20 35 36
3 20 36 21
3 21 36 37
3 21 37 22
3 22 37 38
3 22 38 23
3 23 38 39
3 23 39 24
3 24 39 40
3 24 40 25
3 25 40 41
3 25 41 26
3 26 41 42
3 26 42 27
3 27 42 43
3 27 43 28
3 28 43 44
3 28 44 29
3 29 44 45
3 29 45 30
3 30 45 46
3 30 46 31
3 31 46 47
3 31 47 32
3 32 47 48
3 32 48 33
3 33 48 49
3 33 49 18
3 18 49 34
3 34 50 35
3 35 50 51
3 35 51 36
3 36 51 52
3 36 52 37
3 37 52 53
3 37 53 38
3 38 53 54
3 38 54 39
3 39 54 55
3 39 55 40
3 40 55 56
3 40 56 41
3 41 56 57
3 41 57 42
3 42 57 58
3 42 58 43
3 43 58 59
3 43 59 44
3 44 59 60
3 44 60 45
3 45 60 61
3 45 61 46
3 46 61 62
3 46 62 47
3 47 62 63
3 47 63 48
3 48 63 64
3 48 64 49
3 49 64 65
3 49 65 34
3 34 65 50
3 50 66 51
3 51 66 67
3 51 67 52
3 52 67 68
3 52 68 53
3 53 68 69
3 53 69 54
3 54 69 70
3 54 70 55
3 55 70 71
3 55 71 56
3 56 71 72
3 56 72 57
3 57 72 73
3 57 73 58
3 58 73 74
3 58 74 59
3 59 74 75
3 59 75 60
3 60 75 76
3 60 76 61
3 61 76 77
3 61 77 62
3 62 77 78
3 62 78 63
3 63 78 79
3 63 79 64
3 64 79 80
3 64 80 65
3 65 80 81
3 65 81 50
3 50 81 66
3 66 82 67
3 67 82 83
3 67 83 68
3 68 83 84
3 68 84 69
3 69 84 85
3 69 85 70
3 70 85 86
3 70 86 71
3 71 86 87
3 71 87 72
3 72 87 88
3 72 88 73
3 73 88 89
3 73 89 74
3 74 89 90
3 74 90 75
3 75 90 91
3 75 91 76
3 76 91 92
3 76 92 77
3 77 92 93
3 77 93 78
3 78 93 94
3 78 94 79
3 79 94 95
3 79 95 80
3 80 95 96
3 80 96 81
3 81 96 97
3 81 97 66
3 66 97 82
3 82 98 83
3 83 98 99
3 83 99 84
3 84 99 100
3 84 100 85
3 85 100 101
3 85 101 86
3 86 101 102
3 86 102 87
3 87 102 103
3 87 103 88
3 88 103 104
3 88 104 89
3 89 104 105
3 89 105 90
3 90 105 106
3 90 106 91
3 91 106 107
3 91 107 92
3 92 107 108
3 92 108 93
3 93 108 109
3 93 109 94
3 94 109 110
3 94 110 95
3 95 110 111
3 95 111 96
3 96 111 112
3 96 112 97
3 97 112 113
3 97 113 82
3 82 113 98
