OFF
482 960 0
0.000000 0.000000 5.000000
0.000000 0.000000 -5.000000
1.085811 0.000000 5.458742
0.998130 0.198540 5.116245
0.829104 0.343426 4.511612
0.726282 0.485286 4.391343
0.689748 0.689748 4.903926
0.598577 0.895834 5.416509
0.403152 0.973296 5.296241
0.182062 0.915287 4.691608
0.000000 0.865092 4.349110
-0.182062 0.915287 4.691608
-0.403152 0.973296 5.296241
-0.598577 0.895834 5.416509
-0.689748 0.689748 4.903926
-0.726282 0.485286 4.391343
-0.829104 0.343426 4.511612
-0.998130 0.198540 5.116245
-1.085811 0.000000 5.458742
-0.998130 -0.198540 5.116245
-0.829104 -0.343426 4.511612
-0.726282 -0.485286 4.391343
-0.689748 -0.689748 4.903926
-0.598577 -0.895834 5.416509
-0.403152 -0.973296 5.296241
-0.182062 -0.915287 4.691608
-0.000000 -0.865092 4.349110
0.182062 -0.915287 4.691608
0.403152 -0.973296 5.296241
0.598577 -0.895834 5.416509
0.689748 -0.689748 4.903926
0.726282 -0.485286 4.391343
0.829104 -0.343426 4.511612
0.998130 -0.198540 5.116245
2.219564 0.000000 5.358501
1.991558 0.396145 4.902240
1.567767 0.649390 4.096772
1.355773 0.905899 3.936555
1.352990 1.352990 4.619398
1.220177 1.826123 5.302240
0.815076 1.967767 5.142023
0.350433 1.761745 4.336555
0.000000 1.607270 3.880294
-0.350433 1.761745 4.336555
-0.815076 1.967767 5.142023
-1.220177 1.826123 5.302240
-1.352990 1.352990 4.619398
-1.355773 0.905899 3.936555
-1.567767 0.649390 4.096772
-1.991558 0.396145 4.902240
-2.219564 0.000000 5.358501
-1.991558 -0.396145 4.902240
-1.567767 -0.649390 4.096772
-1.355773 -0.905899 3.936555
-1.352990 -1.352990 4.619398
-1.220177 -1.826123 5.302240
-0.815076 -1.967767 5.142023
-0.350433 -1.761745 4.336555
-0.000000 -1.607270 3.880294
0.350433 -1.761745 4.336555
0.815076 -1.967767 5.142023
1.220177 -1.826123 5.302240
1.352990 -1.352990 4.619398
1.355773 -0.905899 3.936555
1.567767 -0.649390 4.096772
1.991558 -0.396145 4.902240
3.092129 0.000000 4.627698
2.842434 0.565395 4.337343
2.361088 0.977995 3.824760
2.068277 1.381979 3.722801
1.964237 1.964237 4.157348
1.704604 2.551120 4.591895
1.148081 2.771712 4.489936
0.518469 2.606517 3.977353
0.000000 2.463573 3.686998
-0.518469 2.606517 3.977353
-1.148081 2.771712 4.489936
-1.704604 2.551120 4.591895
-1.964237 1.964237 4.157348
-2.068277 1.381979 3.722801
-2.361088 0.977995 3.824760
-2.842434 0.565395 4.337343
-3.092129 0.000000 4.627698
-2.842434 -0.565395 4.337343
-2.361088 -0.977995 3.824760
-2.068277 -1.381979 3.722801
-1.964237 -1.964237 4.157348
-1.704604 -2.551120 4.591895
-1.148081 -2.771712 4.489936
-0.518469 -2.606517 3.977353
-0.000000 -2.463573 3.686998
0.518469 -2.606517 3.977353
1.148081 -2.771712 4.489936
1.704604 -2.551120 4.591895
1.964237 -1.964237 4.157348
2.068277 -1.381979 3.722801
2.361088 -0.977995 3.824760
2.842434 -0.565395 4.337343
3.535534 0.000000 3.535534
3.467600 0.689748 3.535534
3.266407 1.352990 3.535534
2.939689 1.964237 3.535534
2.500000 2.500000 3.535534
1.964237 2.939689 3.535534
1.352990 3.266407 3.535534
0.689748 3.467600 3.535534
0.000000 3.535534 3.535534
-0.689748 3.467600 3.535534
-1.352990 3.266407 3.535534
-1.964237 2.939689 3.535534
-2.500000 2.500000 3.535534
-2.939689 1.964237 3.535534
-3.266407 1.352990 3.535534
-3.467600 0.689748 3.535534
-3.535534 0.000000 3.535534
-3.467600 -0.689748 3.535534
-3.266407 -1.352990 3.535534
-2.939689 -1.964237 3.535534
-2.500000 -2.500000 3.535534
-1.964237 -2.939689 3.535534
-1.352990 -3.266407 3.535534
-0.689748 -3.467600 3.535534
-0.000000 -3.535534 3.535534
0.689748 -3.467600 3.535534
1.352990 -3.266407 3.535534
1.964237 -2.939689 3.535534
2.500000 -2.500000 3.535534
2.939689 -1.964237 3.535534
3.266407 -1.352990 3.535534
3.467600 -0.689748 3.535534
3.686998 0.000000 2.463573
3.900929 0.775943 2.657582
4.148160 1.718224 3.000079
3.818021 2.551120 3.068206
2.939689 2.939689 2.777851
2.068277 3.095396 2.487496
1.463672 3.533618 2.555623
0.846174 4.254002 2.898120
0.000000 4.627698 3.092129
-0.846174 4.254002 2.898120
-1.463672 3.533618 2.555623
-2.068277 3.095396 2.487496
-2.939689 2.939689 2.777851
-3.818021 2.551120 3.068206
-4.148160 1.718224 3.000079
-3.900929 0.775943 2.657582
-3.686998 0.000000 2.463573
-3.900929 -0.775943 2.657582
-4.148160 -1.718224 3.000079
-3.818021 -2.551120 3.068206
-2.939689 -2.939689 2.777851
-2.068277 -3.095396 2.487496
-1.463672 -3.533618 2.555623
-0.846174 -4.254002 2.898120
-0.000000 -4.627698 3.092129
0.846174 -4.254002 2.898120
1.463672 -3.533618 2.555623
2.068277 -3.095396 2.487496
2.939689 -2.939689 2.777851
3.818021 -2.551120 3.068206
4.148160 -1.718224 3.000079
3.900929 -0.775943 2.657582
3.880294 0.000000 1.607270
4.253229 0.846020 1.796260
4.750610 1.967767 2.129896
4.408652 2.945767 2.196260
3.266407 3.266407 1.913417
2.187033 3.273126 1.630574
1.567767 3.784924 1.696939
0.956380 4.808045 2.030574
0.000000 5.358501 2.219564
-0.956380 4.808045 2.030574
-1.567767 3.784924 1.696939
-2.187033 3.273126 1.630574
-3.266407 3.266407 1.913417
-4.408652 2.945767 2.196260
-4.750610 1.967767 2.129896
-4.253229 0.846020 1.796260
-3.880294 0.000000 1.607270
-4.253229 -0.846020 1.796260
-4.750610 -1.967767 2.129896
-4.408652 -2.945767 2.196260
-3.266407 -3.266407 1.913417
-2.187033 -3.273126 1.630574
-1.567767 -3.784924 1.696939
-0.956380 -4.808045 2.030574
-0.000000 -5.358501 2.219564
0.956380 -4.808045 2.030574
1.567767 -3.784924 1.696939
2.187033 -3.273126 1.630574
3.266407 -3.266407 1.913417
4.408652 -2.945767 2.196260
4.750610 -1.967767 2.129896
4.253229 -0.846020 1.796260
4.349110 0.000000 0.865092
4.601460 0.915287 0.933219
4.893088 2.026783 1.053488
4.503663 3.009251 1.077411
3.467600 3.467600 0.975452
2.439700 3.651269 0.873492
1.726519 4.168186 0.897415
0.998130 5.017938 1.017684
0.000000 5.458742 1.085811
-0.998130 5.017938 1.017684
-1.726519 4.168186 0.897415
-2.439700 3.651269 0.873492
-3.467600 3.467600 0.975452
-4.503663 3.009251 1.077411
-4.893088 2.026783 1.053488
-4.601460 0.915287 0.933219
-4.349110 0.000000 0.865092
-4.601460 -0.915287 0.933219
-4.893088 -2.026783 1.053488
-4.503663 -3.009251 1.077411
-3.467600 -3.467600 0.975452
-2.439700 -3.651269 0.873492
-1.726519 -4.168186 0.897415
-0.998130 -5.017938 1.017684
-0.000000 -5.458742 1.085811
0.998130 -5.017938 1.017684
1.726519 -4.168186 0.897415
2.439700 -3.651269 0.873492
3.467600 -3.467600 0.975452
4.503663 -3.009251 1.077411
4.893088 -2.026783 1.053488
4.601460 -0.915287 0.933219
5.000000 0.000000 0.000000
4.903926 0.975452 0.000000
4.619398 1.913417 0.000000
4.157348 2.777851 0.000000
3.535534 3.535534 0.000000
2.777851 4.157348 0.000000
1.913417 4.619398 0.000000
0.975452 4.903926 0.000000
0.000000 5.000000 0.000000
-0.975452 4.903926 0.000000
-1.913417 4.619398 0.000000
-2.777851 4.157348 0.000000
-3.535534 3.535534 0.000000
-4.157348 2.777851 0.000000
-4.619398 1.913417 0.000000
-4.903926 0.975452 0.000000
-5.000000 0.000000 0.000000
-4.903926 -0.975452 0.000000
-4.619398 -1.913417 0.000000
-4.157348 -2.777851 0.000000
-3.535534 -3.535534 0.000000
-2.777851 -4.157348 0.000000
-1.913417 -4.619398 0.000000
-0.975452 -4.903926 0.000000
-0.000000 -5.000000 0.000000
0.975452 -4.903926 0.000000
1.913417 -4.619398 0.000000
2.777851 -4.157348 0.000000
3.535534 -3.535534 0.000000
4.157348 -2.777851 0.000000
4.619398 -1.913417 0.000000
4.903926 -0.975452 0.000000
5.458742 0.000000 -1.085811
5.017938 0.998130 -1.017684
4.168186 1.726519 -0.897415
3.651269 2.439700 -0.873492
3.467600 3.467600 -0.975452
3.009251 4.503663 -1.077411
2.026783 4.893088 -1.053488
0.915287 4.601460 -0.933219
0.000000 4.349110 -0.865092
-0.915287 4.601460 -0.933219
-2.026783 4.893088 -1.053488
-3.009251 4.503663 -1.077411
-3.467600 3.467600 -0.975452
-3.651269 2.439700 -0.873492
-4.168186 1.726519 -0.897415
-5.017938 0.998130 -1.017684
-5.458742 0.000000 -1.085811
-5.017938 -0.998130 -1.017684
-4.168186 -1.726519 -0.897415
-3.651269 -2.439700 -0.873492
-3.467600 -3.467600 -0.975452
-3.009251 -4.503663 -1.077411
-2.026783 -4.893088 -1.053488
-0.915287 -4.601460 -0.933219
-0.000000 -4.349110 -0.865092
0.915287 -4.601460 -0.933219
2.026783 -4.893088 -1.053488
3.009251 -4.503663 -1.077411
3.467600 -3.467600 -0.975452
3.651269 -2.439700 -0.873492
4.168186 -1.726519 -0.897415
5.017938 -0.998130 -1.017684
5.358501 0.000000 -2.219564
4.808045 0.956380 -2.030574
3.784924 1.567767 -1.696939
3.273126 2.187033 -1.630574
3.266407 3.266407 -1.913417
2.945767 4.408652 -2.196260
1.967767 4.750610 -2.129896
0.846020 4.253229 -1.796260
0.000000 3.880294 -1.607270
-0.846020 4.253229 -1.796260
-1.967767 4.750610 -2.129896
-2.945767 4.408652 -2.196260
-3.266407 3.266407 -1.913417
-3.273126 2.187033 -1.630574
-3.784924 1.567767 -1.696939
-4.808045 0.956380 -2.030574
-5.358501 0.000000 -2.219564
-4.808045 -0.956380 -2.030574
-3.784924 -1.567767 -1.696939
-3.273126 -2.187033 -1.630574
-3.266407 -3.266407 -1.913417
-2.945767 -4.408652 -2.196260
-1.967767 -4.750610 -2.129896
-0.846020 -4.253229 -1.796260
-0.000000 -3.880294 -1.607270
0.846020 -4.253229 -1.796260
1.967767 -4.750610 -2.129896
2.945767 -4.408652 -2.196260
3.266407 -3.266407 -1.913417
3.273126 -2.187033 -1.630574
3.784924 -1.567767 -1.696939
4.808045 -0.956380 -2.030574
4.627698 0.000000 -3.092129
4.254002 0.846174 -2.898120
3.533618 1.463672 -2.555623
3.095396 2.068277 -2.487496
2.939689 2.939689 -2.777851
2.551120 3.818021 -3.068206
1.718224 4.148160 -3.000079
0.775943 3.900929 -2.657582
0.000000 3.686998 -2.463573
-0.775943 3.900929 -2.657582
-1.718224 4.148160 -3.000079
-2.551120 3.818021 -3.068206
-2.939689 2.939689 -2.777851
-3.095396 2.068277 -2.487496
-3.533618 1.463672 -2.555623
-4.254002 0.846174 -2.898120
-4.627698 0.000000 -3.092129
-4.254002 -0.846174 -2.898120
-3.533618 -1.463672 -2.555623
-3.095396 -2.068277 -2.487496
-2.939689 -2.939689 -2.777851
-2.551120 -3.818021 -3.068206
-1.718224 -4.148160 -3.000079
-0.775943 -3.900929 -2.657582
-0.000000 -3.686998 -2.463573
0.775943 -3.900929 -2.657582
1.718224 -4.148160 -3.000079
2.551120 -3.818021 -3.068206
2.939689 -2.939689 -2.777851
3.095396 -2.068277 -2.487496
3.533618 -1.463672 -2.555623
4.254002 -0.846174 -2.898120
3.535534 0.000000 -3.535534
3.467600 0.689748 -3.535534
3.266407 1.352990 -3.535534
2.939689 1.964237 -3.535534
2.500000 2.500000 -3.535534
1.964237 2.939689 -3.535534
1.352990 3.266407 -3.535534
0.689748 3.467600 -3.535534
0.000000 3.535534 -3.535534
-0.689748 3.467600 -3.535534
-1.352990 3.266407 -3.535534
-1.964237 2.939689 -3.535534
-2.500000 2.500000 -3.535534
-2.939689 1.964237 -3.535534
-3.266407 1.352990 -3.535534
-3.467600 0.689748 -3.535534
-3.535534 0.000000 -3.535534
-3.467600 -0.689748 -3.535534
-3.266407 -1.352990 -3.535534
-2.939689 -1.964237 -3.535534
-2.500000 -2.500000 -3.535534
-1.964237 -2.939689 -3.535534
-1.352990 -3.266407 -3.535534
-0.689748 -3.467600 -3.535534
-0.000000 -3.535534 -3.535534
0.689748 -3.467600 -3.535534
1.352990 -3.266407 -3.535534
1.964237 -2.939689 -3.535534
2.500000 -2.500000 -3.535534
2.939689 -1.964237 -3.535534
3.266407 -1.352990 -3.535534
3.467600 -0.689748 -3.535534
2.463573 0.000000 -3.686998
2.606517 0.518469 -3.977353
2.771712 1.148081 -4.489936
2.551120 1.704604 -4.591895
1.964237 1.964237 -4.157348
1.381979 2.068277 -3.722801
0.977995 2.361088 -3.824760
0.565395 2.842434 -4.337343
0.000000 3.092129 -4.627698
-0.565395 2.842434 -4.337343
-0.977995 2.361088 -3.824760
-1.381979 2.068277 -3.722801
-1.964237 1.964237 -4.157348
-2.551120 1.704604 -4.591895
-2.771712 1.148081 -4.489936
-2.606517 0.518469 -3.977353
-2.463573 0.000000 -3.686998
-2.606517 -0.518469 -3.977353
-2.771712 -1.148081 -4.489936
-2.551120 -1.704604 -4.591895
-1.964237 -1.964237 -4.157348
-1.381979 -2.068277 -3.722801
-0.977995 -2.361088 -3.824760
-0.565395 -2.842434 -4.337343
-0.000000 -3.092129 -4.627698
0.565395 -2.842434 -4.337343
0.977995 -2.361088 -3.824760
1.381979 -2.068277 -3.722801
1.964237 -1.964237 -4.157348
2.551120 -1.704604 -4.591895
2.771712 -1.148081 -4.489936
2.606517 -0.518469 -3.977353
1.607270 0.000000 -3.880294
1.761745 0.350433 -4.336555
1.967767 0.815076 -5.142023
1.826123 1.220177 -5.302240
1.352990 1.352990 -4.619398
0.905899 1.355773 -3.936555
0.649390 1.567767 -4.096772
0.396145 1.991558 -4.902240
0.000000 2.219564 -5.358501
-0.396145 1.991558 -4.902240
-0.649390 1.567767 -4.096772
-0.905899 1.355773 -3.936555
-1.352990 1.352990 -4.619398
-1.826123 1.220177 -5.302240
-1.967767 0.815076 -5.142023
-1.761745 0.350433 -4.336555
-1.607270 0.000000 -3.880294
-1.761745 -0.350433 -4.336555
-1.967767 -0.815076 -5.142023
-1.826123 -1.220177 -5.302240
-1.352990 -1.352990 -4.619398
-0.905899 -1.355773 -3.936555
-0.649390 -1.567767 -4.096772
-0.396145 -1.991558 -4.902240
-0.000000 -2.219564 -5.358501
0.396145 -1.991558 -4.902240
0.649390 -1.567767 -4.096772
0.905899 -1.355773 -3.936555
1.352990 -1.352990 -4.619398
1.826123 -1.220177 -5.302240
1.967767 -0.815076 -5.142023
1.761745 -0.350433 -4.336555
0.865092 0.000000 -4.349110
0.915287 0.182062 -4.691608
0.973296 0.403152 -5.296241
0.895834 0.598577 -5.416509
0.689748 0.689748 -4.903926
0.485286 0.726282 -4.391343
0.343426 0.829104 -4.511612
0.198540 0.998130 -5.116245
0.000000 1.085811 -5.458742
-0.198540 0.998130 -5.116245
-0.343426 0.829104 -4.511612
-0.485286 0.726282 -4.391343
-0.689748 0.689748 -4.903926
-0.895834 0.598577 -5.416509
-0.973296 0.403152 -5.296241
-0.915287 0.182062 -4.691608
-0.865092 0.000000 -4.349110
-0.915287 -0.182062 -4.691608
-0.973296 -0.403152 -5.296241
-0.895834 -0.598577 -5.416509
-0.689748 -0.689748 -4.903926
-0.485286 -0.726282 -4.391343
-0.343426 -0.829104 -4.511612
-0.198540 -0.998130 -5.116245
-0.000000 -1.085811 -5.458742
0.198540 -0.998130 -5.116245
0.343426 -0.829104 -4.511612
0.485286 -0.726282 -4.391343
0.689748 -0.689748 -4.903926
0.895834 -0.598577 -5.416509
0.973296 -0.403152 -5.296241
0.915287 -0.182062 -4.691608
3 0 2 3
3 1 451 450
3 0 3 4
3 1 452 451
3 0 4 5
3 1 453 452
3 0 5 6
3 1 454 453
3 0 6 7
3 1 455 454
3 0 7 8
3 1 456 455
3 0 8 9
3 1 457 456
3 0 9 10
3 1 458 457
3 0 10 11
3 1 459 458
3 0 11 12
3 1 460 459
3 0 12 13
3 1 461 460
3 0 13 14
3 1 462 461
3 0 14 15
3 1 463 462
3 0 15 16
3 1 464 463
3 0 16 17
3 1 465 464
3 0 17 18
3 1 466 465
3 0 18 19
3 1 467 466
3 0 19 20
3 1 468 467
3 0 20 21
3 1 469 468
3 0 21 22
3 1 470 469
3 0 22 23
3 1 471 470
3 0 23 24
3 1 472 471
3 0 24 25
3 1 473 472
3 0 25 26
3 1 474 473
3 0 26 27
3 1 475 474
3 0 27 28
3 1 476 475
3 0 28 29
3 1 477 476
3 0 29 30
3 1 478 477
3 0 30 31
3 1 479 478
3 0 31 32
3 1 480 479
3 0 32 33
3 1 481 480
3 0 33 2
3 1 450 481
3 2 34 3
3 3 34 35
3 3 35 4
3 4 35 36
3 4 36 5
3 5 36 37
3 5 37 6
3 6 37 38
3 6 38 7
3 7 38 39
3 7 39 8
3 8 39 40
3 8 40 9
3 9 40 41
3 9 41 10
3 10 41 42
3 10 42 11
3 11 42 43
3 11 43 12
3 12 43 44
3 12 44 13
3 13 44 45
3 13 45 14
3 14 45 46
3 14 46 15
3 15 46 47
3 15 47 16
3 16 47 48
3 16 48 17
3 17 48 49
3 17 49 18
3 18 49 50
3 18 50 19
3 19 50 51
3 19 51 20
3 20 51 52
3 20 52 21
3 21 52 53
3 21 53 22
3 22 53 54
3 22 54 23
3 23 54 55
3 23 55 24
3 24 55 56
3 24 56 25
3 25 56 57
3 25 57 26
3 26 57 58
3 26 58 27
3 27 58 59
3 27 59 28
3 28 59 60
3 28 60 29
3 29 60 61
3 29 61 30
3 30 61 62
3 30 62 31
3 31 62 63
3 31 63 32
3 32 63 64
3 32 64 33
3 33 64 65
3 33 65 2
3 2 65 34
3 34 66 35
3 35 66 67
3 35 67 36
3 36 67 68
3 36 68 37
3 37 68 69
3 37 69 38
3 38 69 70
3 38 70 39
3 39 70 71
3 39 71 40
3 40 71 72
3 40 72 41
3 41 72 73
3 41 73 42
3 42 73 74
3 42 74 43
3 43 74 75
3 43 75 44
3 44 75 76
3 44 76 45
3 45 76 77
3 45 77 46
3 46 77 78
3 46 78 47
3 47 78 79
3 47 79 48
3 48 79 80
3 48 80 49
3 49 80 81
3 49 81 50
3 50 81 82
3 50 82 51
3 51 82 83
3 51 83 52
3 52 83 84
3 52 84 53
3 53 84 85
3 53 85 54
3 54 85 86
3 54 86 55
3 55 86 87
3 55 87 56
3 56 87 88
3 56 88 57
3 57 88 89
3 57 89 58
3 58 89 90
3 58 90 59
3 59 90 91
3 59 91 60
3 60 91 92
3 60 92 61
3 61 92 93
3 61 93 62
3 62 93 94
3 62 94 63
3 63 94 95
3 63 95 64
3 64 95 96
3 64 96 65
3 65 96 97
3 65 97 34
3 34 97 66
3 66 98 67
3 67 98 99
3 67 99 68
3 68 99 100
3 68 100 69
3 69 100 101
3 69 101 70
3 70 101 102
3 70 102 71
3 71 102 103
3 71 103 72
3 72 103 104
3 72 104 73
3 73 104 105
3 73 105 74
3 74 105 106
3 74 106 75
3 75 106 107
3 75 107 76
3 76 107 108
3 76 108 77
3 77 108 109
3 77 109 78
3 78 109 110
3 78 110 79
3 79 110 111
3 79 111 80
3 80 111 112
3 80 112 81
3 81 112 113
3 81 113 82
3 82 113 114
3 82 114 83
3 83 114 115
3 83 115 84
3 84 115 116
3 84 116 85
3 85 116 117
3 85 117 86
3 86 117 118
3 86 118 87
3 87 118 119
3 87 119 88
3 88 119 120
3 88 120 89
3 89 120 121
3 89 121 90
3 90 121 122
3 90 122 91
3 91 122 123
3 91 123 92
3 92 123 124
3 92 124 93
3 93 124 125
3 93 125 94
3 94 125 126
3 94 126 95
3 95 126 127
3 95 127 96
3 96 127 128
3 96 128 97
3 97 128 129
3 97 129 66
3 66 129 98
3 98 130 99
3 99 130 131
3 99 131 100
3 100 131 132
3 100 132 101
3 101 132 133
3 101 133 102
3 102 133 134
3 102 134 103
3 103 134 135
3 103 135 104
3 104 135 136
3 104 136 105
3 105 136 137
3 105 137 106
3 106 137 138
3 106 138 107
3 107 138 139
3 107 139 108
3 108 139 140
3 108 140 109
3 109 140 141
3 109 141 110
3 110 141 142
3 110 142 111
3 111 142 143
3 111 143 112
3 112 143 144
3 112 144 113
3 113 144 145
3 113 145 114
3 114 145 146
3 114 146 115
3 115 146 147
3 115 147 116
3 116 147 148
3 116 148 117
3 117 148 149
3 117 149 118
3 118 149 150
3 118 150 119
3 119 150 151
3 119 151 120
3 120 151 152
3 120 152 121
3 121 152 153
3 121 153 122
3 122 153 154
3 122 154 123
3 123 154 155
3 123 155 124
3 124 155 156
3 124 156 125
3 125 156 157
3 125 157 126
3 126 157 158
3 126 158 127
3 127 158 159
3 127 159 128
3 128 159 160
3 128 160 129
3 129 160 161
3 129 161 98
3 98 161 130
3 130 162 131
3 131 162 163
3 131 163 132
3 132 163 164
3 132 164 133
3 133 164 165
3 133 165 134
3 134 165 166
3 134 166 135
3 135 166 167
3 135 167 136
3 136 167 168
3 136 168 137
3 137 168 169
3 137 169 138
3 138 169 170
3 138 170 139
3 139 170 171
3 139 171 140
3 140 171 172
3 140 172 141
3 141 172 173
3 141 173 142
3 142 173 174
3 142 174 143
3 143 174 175
3 143 175 144
3 144 175 176
3 144 176 145
3 145 176 177
3 145 177 146
3 146 177 178
3 146 178 147
3 147 178 179
3 147 179 148
3 148 179 180
3 148 180 149
3 149 180 181
3 149 181 150
3 150 181 182
3 150 182 151
3 151 182 183
3 151 183 152
3 152 183 184
3 152 184 153
3 153 184 185
3 153 185 154
3 154 185 186
3 154 186 155
3 155 186 187
3 155 187 156
3 156 187 188
3 156 188 157
3 157 188 189
3 157 189 158
3 158 189 190
3 158 190 159
3 159 190 191
3 159 191 160
3 160 191 192
3 160 192 161
3 161 192 193
3 161 193 130
3 130 193 162
3 162 194 163
3 163 194 195
3 163 195 164
3 164 195 196
3 164 196 165
3 165 196 197
3 165 197 166
3 166 197 198
3 166 198 167
3 167 198 199
3 167 199 168
3 168 199 200
3 168 200 169
3 169 200 201
3 169 201 170
3 170 201 202
3 170 202 171
3 171 202 203
3 171 203 172
3 172 203 204
3 172 204 173
3 173 204 205
3 173 205 174
3 174 205 206
3 174 206 175
3 175 206 207
3 175 207 176
3 176 207 208
3 176 208 177
3 177 208 209
3 177 209 178
3 178 209 210
3 178 210 179
3 179 210 211
3 179 211 180
3 180 211 212
3 180 212 181
3 181 212 213
3 181 213 182
3 182 213 214
3 182 214 183
3 183 214 215
3 183 215 184
3 184 215 216
3 184 216 185
3 185 216 217
3 185 217 186
3 186 217 218
3 186 218 187
3 187 218 219
3 187 219 188
3 188 219 220
3 188 220 189
3 189 220 221
3 189 221 190
3 190 221 222
3 190 222 191
3 191 222 223
3 191 223 192
3 192 223 224
3 192 224 193
3 193 224 225
3 193 225 162
3 162 225 194
3 194 226 195
3 195 226 227
3 195 227 196
3 196 227 228
3 196 228 197
3 197 228 229
3 197 229 198
3 198 229 230
3 198 230 199
3 199 230 231
3 199 231 200
3 200 231 232
3 200 232 201
3 201 232 233
3 201 233 202
3 202 233 234
3 202 234 203
3 203 234 235
3 203 235 204
3 204 235 236
3 204 236 205
3 205 236 237
3 205 237 206
3 206 237 238
3 206 238 207
3 207 238 239
3 207 239 208
3 208 239 240
3 208 240 209
3 209 240 241
3 209 241 210
3 210 241 242
3 210 242 211
3 211 242 243
3 211 243 212
3 212 243 244
3 212 244 213
3 213 244 245
3 213 245 214
3 214 245 246
3 214 246 215
3 215 246 247
3 215 247 216
3 216 247 248
3 216 248 217
3 217 248 249
3 217 249 218
3 218 249 250
3 218 250 219
3 219 250 251
3 219 251 220
3 220 251 252
3 220 252 221
3 221 252 253
3 221 253 222
3 222 253 254
3 222 254 223
3 223 254 255
3 223 255 224
3 224 255 256
3 224 256 225
3 225 256 257
3 225 257 194
3 194 257 226
3 226 258 227
3 227 258 259
3 227 259 228
3 228 259 260
3 228 260 229
3 229 260 261
3 229 261 230
3 230 261 262
3 230 262 231
3 231 262 263
3 231 263 232
3 232 263 264
3 232 264 233
3 233 264 265
3 233 265 234
3 234 265 266
3 234 266 235
3 235 266 267
3 235 267 236
3 236 267 268
3 236 268 237
3 237 268 269
3 237 269 238
3 238 269 270
3 238 270 239
3 239 270 271
3 239 271 240
3 240 271 272
3 240 272 241
3 241 272 273
3 241 273 242
3 242 273 274
3 242 274 243
3 243 274 275
3 243 275 244
3 244 275 276
3 244 276 245
3 245 276 277
3 245 277 246
3 246 277 278
3 246 278 247
3 247 278 279
3 247 279 248
3 248 279 280
3 248 280 249
3 249 280 281
3 249 281 250
3 250 281 282
3 250 282 251
3 251 282 283
3 251 283 252
3 252 283 284
3 252 284 253
3 253 284 285
3 253 285 254
3 254 285 286
3 254 286 255
3 255 286 287
3 255 287 256
3 256 287 288
3 256 288 257
3 257 288 289
3 257 289 226
3 226 289 258
3 258 290 259
3 259 290 291
3 259 291 260
3 260 291 292
3 260 292 261
3 261 292 293
3 261 293 262
3 262 293 294
3 262 294 263
3 263 294 295
3 263 295 264
3 264 295 296
3 264 296 265
3 265 296 297
3 265 297 266
3 266 297 298
3 266 298 267
3 267 298 299
3 267 299 268
3 268 299 300
3 268 300 269
3 269 300 301
3 269 301 270
3 270 301 302
3 270 302 271
3 271 302 303
3 271 303 272
3 272 303 304
3 272 304 273
3 273 304 305
3 273 305 274
3 274 305 306
3 274 306 275
3 275 306 307
3 275 307 276
3 276 307 308
3 276 308 277
3 277 308 309
3 277 309 278
3 278 309 310
3 278 310 279
3 279 310 311
3 279 311 280
3 280 311 312
3 280 312 281
3 281 312 313
3 281 313 282
3 282 313 314
3 282 314 283
3 283 314 315
3 283 315 284
3 284 315 316
3 284 316 285
3 285 316 317
3 285 317 286
3 286 317 318
3 286 318 287
3 287 318 319
3 287 319 288
3 288 319 320
3 288 320 289
3 289 320 321
3 289 321 258
3 258 321 290
3 290 322 291
3 291 322 323
3 291 323 292
3 292 323 324
3 292 324 293
3 293 324 325
3 293 325 294
3 294 325 326
3 294 326 295
3 295 326 327
3 295 327 296
3 296 327 328
3 296 328 297
3 297 328 329
3 297 329 298
3 298 329 330
3 298 330 299
3 299 330 331
3 299 331 300
3 300 331 332
3 300 332 301
3 301 332 333
3 301 333 302
3 302 333 334
3 302 334 303
3 303 334 335
3 303 335 304
3 304 335 336
3 304 336 305
3 305 336 337
3 305 337 306
3 306 337 338
3 306 338 307
3 307 338 339
3 307 339 308
3 308 339 340
3 308 340 309
3 309 340 341
3 309 341 310
3 310 341 342
3 310 342 311
3 311 342 343
3 311 343 312
3 312 343 344
3 312 344 313
3 313 344 345
3 313 345 314
3 314 345 346
3 314 346 315
3 315 346 347
3 315 347 316
3 316 347 348
3 316 348 317
3 317 348 349
3 317 349 318
3 318 349 350
3 318 350 319
3 319 350 351
3 319 351 320
3 320 351 352
3 320 352 321
3 321 352 353
3 321 353 290
3 290 353 322
3 322 354 323
3 323 354 355
3 323 355 324
3 324 355 356
3 324 356 325
3 325 356 357
3 325 357 326
3 326 357 358
3 326 358 327
3 327 358 359
3 327 359 328
3 328 359 360
3 328 360 329
3 329 360 361
3 329 361 330
3 330 361 362
3 330 362 331
3 331 362 363
3 331 363 332
3 332 363 364
3 332 364 333
3 333 364 365
3 333 365 334
3 334 365 366
3 334 366 335
3 335 366 367
3 335 367 336
3 336 367 368
3 336 368 337
3 337 368 369
3 337 369 338
3 338 369 370
3 338 370 339
3 339 370 371
3 339 371 340
3 340 371 372
3 340 372 341
3 341 372 373
3 341 373 342
3 342 373 374
3 342 374 343
3 343 374 375
3 343 375 344
3 344 375 376
3 344 376 345
3 345 376 377
3 345 377 346
3 346 377 378
3 346 378 347
3 347 378 379
3 347 379 348
3 348 379 380
3 348 380 349
3 349 380 381
3 349 381 350
3 350 381 382
3 350 382 351
3 351 382 383
3 351 383 352
3 352 383 384
3 352 384 353
3 353 384 385
3 353 385 322
3 322 385 354
3 354 386 355
3 355 386 387
3 355 387 356
3 356 387 388
3 356 388 357
3 357 388 389
3 357 389 358
3 358 389 390
3 358 390 359
3 359 390 391
3 359 391 360
3 360 391 392
3 360 392 361
3 361 392 393
3 361 393 362
3 362 393 394
3 362 394 363
3 363 394 395
3 363 395 364
3 364 395 396
3 364 396 365
3 365 396 397
3 365 397 366
3 366 397 398
3 366 398 367
3 367 398 399
3 367 399 368
3 368 399 400
3 368 400 369
3 369 400 401
3 369 401 370
3 370 401 402
3 370 402 371
3 371 402 403
3 371 403 372
3 372 403 404
3 372 404 373
3 373 404 405
3 373 405 374
3 374 405 406
3 374 406 375
3 375 406 407
3 375 407 376
3 376 407 408
3 376 408 377
3 377 408 409
3 377 409 378
3 378 409 410
3 378 410 379
3 379 410 411
3 379 411 380
3 380 411 412
3 380 412 381
3 381 412 413
3 381 413 382
3 382 413 414
3 382 414 383
3 383 414 415
3 383 415 384
3 384 415 416
3 384 416 385
3 385 416 417
3 385 417 354
3 354 417 386
3 386 418 387
3 387 418 419
3 387 419 388
3 388 419 420
3 388 420 389
3 389 420 421
3 389 421 390
3 390 421 422
3 390 422 391
3 391 422 423
3 391 423 392
3 392 423 424
3 392 424 393
3 393 424 425
3 393 425 394
3 394 425 426
3 394 426 395
3 395 426 427
3 395 427 396
3 396 427 428
3 396 428 397
3 397 428 429
3 397 429 398
3 398 429 430
3 398 430 399
3 399 430 431
3 399 431 400
3 400 431 432
3 400 432 401
3 401 432 433
3 401 433 402
3 402 433 434
3 402 434 403
3 403 434 435
3 403 435 404
3 404 435 436
3 404 436 405
3 405 436 437
3 405 437 406
3 406 437 438
3 406 438 407
3 407 438 439
3 407 439 408
3 408 439 440
3 408 440 409
3 409 440 441
3 409 441 410
3 410 441 442
3 410 442 411
3 411 442 443
3 411 443 412
3 412 443 444
3 412 444 413
3 413 444 445
3 413 445 414
3 414 445 446
3 414 446 415
3 415 446 447
3 415 447 416
3 416 447 448
3 416 448 417
3 417 448 449
3 417 449 386
3 386 449 418
3 418 450 419
3 419 450 451
3 419 451 420
3 420 451 452
3 420 452 421
3 421 452 453
3 421 453 422
3 422 453 454
3 422 454 423
3 423 454 455
3 423 455 424
3 424 455 456
3 424 456 425
3 425 456 457
3 425 457 426
3 426 457 458
3 426 458 427
3 427 458 459
3 427 459 428
3 428 459 460
3 428 460 429
3 429 460 461
3 429 461 430
3 430 461 462
3 430 462 431
3 431 462 463
3 431 463 432
3 432 463 464
3 432 464 433
3 433 464 465
3 433 465 434
3 434 465 466
3 434 466 435
3 435 466 467
3 435 467 436
3 436 467 468
3 436 468 437
3 437 468 469
3 437 469 438
3 438 469 470
3 438 470 439
3 439 470 471
3 439 471 440
3 440 471 472
3 440 472 441
3 441 472 473
3 441 473 442
3 442 473 474
3 442 474 443
3 443 474 475
3 443 475 444
3 444 475 476
3 444 476 445
3 445 476 477
3 445 477 446
3 446 477 478
3 446 478 447
3 447 478 479
3 447 479 448
3 448 479 480
3 448 480 449
3 449 480 481
3 449 481 418
3 418 481 450
