OFF
38 72 0
0.000000 0.000000 8.000000
0.000000 0.000000 -8.000000
1.500000 0.000000 -8.000000
0.000000 1.500000 -8.000000
-1.500000 0.000000 -8.000000
-0.000000 -1.500000 -8.000000
1.500494 0.000000 -6.000000
0.000000 1.500494 -6.000000
-1.500494 0.000000 -6.000000
-0.000000 -1.500494 -6.000000
1.573263 0.000000 -4.000000
0.000000 1.573263 -4.000000
-1.573263 0.000000 -4.000000
-0.000000 -1.573263 -4.000000
2.971518 0.000000 -2.000000
0.000000 2.971518 -2.000000
-2.971518 0.000000 -2.000000
-0.000000 -2.971518 -2.000000
5.500000 0.000000 0.000000
0.000000 5.500000 0.000000
-5.500000 0.000000 0.000000
-0.000000 -5.500000 0.000000
2.971518 0.000000 2.000000
0.000000 2.971518 2.000000
-2.971518 0.000000 2.000000
-0.000000 -2.971518 2.000000
1.573263 0.000000 4.000000
0.000000 1.573263 4.000000
-1.573263 0.000000 4.000000
-0.000000 -1.573263 4.000000
1.500494 0.000000 6.000000
0.000000 1.500494 6.000000
-1.500494 0.000000 6.000000
-0.000000 -1.500494 6.000000
1.500000 0.000000 8.000000
0.000000 1.500000 8.000000
-1.500000 0.000000 8.000000
-0.000000 -1.500000 8.000000
3 1 3 2
3 0 34 35
3 1 4 3
3 0 35 36
3 1 5 4
3 0 36 37
3 1 2 5
3 0 37 34
3 2 3 6
3 3 7 6
3 3 4 7
3 4 8 7
3 4 5 8
3 5 9 8
3 5 2 9
3 2 6 9
3 6 7 10
3 7 11 10
3 7 8 11
3 8 12 11
3 8 9 12
3 9 13 12
3 9 6 13
3 6 10 13
3 10 11 14
3 11 15 14
3 11 12 15
3 12 16 15
3 12 13 16
3 13 17 16
3 13 10 17
3 10 14 17
3 14 15 18
3 15 19 18
3 15 16 19
3 16 20 19
3 16 17 20
3 17 21 20
3 17 14 21
3 14 18 21
3 18 19 22
3 19 23 22
3 19 20 23
3 20 24 23
3 20 21 24
3 21 25 24
3 21 18 25
3 18 22 25
3 22 23 26
3 23 27 26
3 23 24 27
3 24 28 27
3 24 25 28
3 25 29 28
3 25 22 29
3 22 26 29
3 26 27 30
3 27 31 30
3 27 28 31
3 28 32 31
3 28 29 32
3 29 33 32
3 29 26 33
3 26 30 33
3 30 31 34
3 31 35 34
3 31 32 35
3 32 36 35
3 32 33 36
3 33 37 36
3 33 30 37
3 30 34 37
