OFF
138 272 0
0.000000 0.000000 8.000000
0.000000 0.000000 -8.000000
1.500000 0.000000 -8.000000
1.060660 1.060660 -8.000000
0.000000 1.500000 -8.000000
-1.060660 1.060660 -8.000000
-1.500000 0.000000 -8.000000
-1.060660 -1.060660 -8.000000
-0.000000 -1.500000 -8.000000
1.060660 -1.060660 -8.000000
1.500019 0.000000 -7.000000
1.060674 1.060674 -7.000000
0.000000 1.500019 -7.000000
-1.060674 1.060674 -7.000000
-1.500019 0.000000 -7.000000
-1.060674 -1.060674 -7.000000
-0.000000 -1.500019 -7.000000
1.060674 -1.060674 -7.000000
1.500494 0.000000 -6.000000
1.061009 1.061009 -6.000000
0.000000 1.500494 -6.000000
-1.061009 1.061009 -6.000000
-1.500494 0.000000 -6.000000
-1.061009 -1.061009 -6.000000
-0.000000 -1.500494 -6.000000
1.061009 -1.061009 -6.000000
1.507722 0.000000 -5.000000
1.066120 1.066120 -5.000000
0.000000 1.507722 -5.000000
-1.066120 1.066120 -5.000000
-1.507722 0.000000 -5.000000
-1.066120 -1.066120 -5.000000
-0.000000 -1.507722 -5.000000
1.066120 -1.066120 -5.000000
1.573263 0.000000 -4.000000
1.112465 1.112465 -4.000000
0.000000 1.573263 -4.000000
-1.112465 1.112465 -4.000000
-1.573263 0.000000 -4.000000
-1.112465 -1.112465 -4.000000
-0.000000 -1.573263 -4.000000
1.112465 -1.112465 -4.000000
1.921597 0.000000 -3.000000
1.358774 1.358774 -3.000000
0.000000 1.921597 -3.000000
-1.358774 1.358774 -3.000000
-1.921597 0.000000 -3.000000
-1.358774 -1.358774 -3.000000
-0.000000 -1.921597 -3.000000
1.358774 -1.358774 -3.000000
2.971518 0.000000 -2.000000
2.101180 2.101180 -2.000000
0.000000 2.971518 -2.000000
-2.101180 2.101180 -2.000000
-2.971518 0.000000 -2.000000
-2.101180 -2.101180 -2.000000
-0.000000 -2.971518 -2.000000
2.101180 -2.101180 -2.000000
4.615203 0.000000 -1.000000
3.263441 3.263441 -1.000000
0.000000 4.615203 -1.000000
-3.263441 3.263441 -1.000000
-4.615203 0.000000 -1.000000
-3.263441 -3.263441 -1.000000
-0.000000 -4.615203 -1.000000
3.263441 -3.263441 -1.000000
5.500000 0.000000 0.000000
3.889087 3.889087 0.000000
0.000000 5.500000 0.000000
-3.889087 3.889087 0.000000
-5.500000 0.000000 0.000000
-3.889087 -3.889087 0.000000
-0.000000 -5.500000 0.000000
3.889087 -3.889087 0.000000
4.615203 0.000000 1.000000
3.263441 3.263441 1.000000
0.000000 4.615203 1.000000
-3.263441 3.263441 1.000000
-4.615203 0.000000 1.000000
-3.263441 -3.263441 1.000000
-0.000000 -4.615203 1.000000
3.263441 -3.263441 1.000000
2.971518 0.000000 2.000000
2.101180 2.101180 2.000000
0.000000 2.971518 2.000000
-2.101180 2.101180 2.000000
-2.971518 0.000000 2.000000
-2.101180 -2.101180 2.000000
-0.000000 -2.971518 2.000000
2.101180 -2.101180 2.000000
1.921597 0.000000 3.000000
1.358774 1.358774 3.000000
0.000000 1.921597 3.000000
-1.358774 1.358774 3.000000
-1.921597 0.000000 3.000000
-1.358774 -1.358774 3.000000
-0.000000 -1.921597 3.000000
1.358774 -1.358774 3.000000
1.573263 0.000000 4.000000
1.112465 1.112465 4.000000
0.000000 1.573263 4.000000
-1.112465 1.112465 4.000000
-1.573263 0.000000 4.000000
-1.112465 -1.112465 4.000000
-0.000000 -1.573263 4.000000
1.112465 -1.112465 4.000000
1.507722 0.000000 5.000000
1.066120 1.066120 5.000000
0.000000 1.507722 5.000000
-1.066120 1.066120 5.000000
-1.507722 0.000000 5.000000
-1.066120 -1.066120 5.000000
-0.000000 -1.507722 5.000000
1.066120 -1.066120 5.000000
1.500494 0.000000 6.000000
1.061009 1.061009 6.000000
0.000000 1.500494 6.000000
-1.061009 1.061009 6.000000
-1.500494 0.000000 6.000000
-1.061009 -1.061009 6.000000
-0.000000 -1.500494 6.000000
1.061009 -1.061009 6.000000
1.500019 0.000000 7.000000
1.060674 1.060674 7.000000
0.000000 1.500019 7.000000
-1.060674 1.060674 7.000000
-1.500019 0.000000 7.000000
-1.060674 -1.060674 7.000000
-0.000000 -1.500019 7.000000
1.060674 -1.060674 7.000000
1.500000 0.000000 8.000000
1.060660 1.060660 8.000000
0.000000 1.500000 8.000000
-1.060660 1.060660 8.000000
-1.500000 0.000000 8.000000
-1.060660 -1.060660 8.000000
-0.000000 -1.500000 8.000000
1.060660 -1.060660 8.000000
3 1 3 2
3 0 130 131
3 1 4 3
3 0 131 132
3 1 5 4
3 0 132 133
3 1 6 5
3 0 133 134
3 1 7 6
3 0 134 135
3 1 8 7
3 0 135 136
3 1 9 8
3 0 136 137
3 1 2 9
3 0 137 130
3 2 3 10
3 3 11 10
3 3 4 11
3 4 12 11
3 4 5 12
3 5 13 12
3 5 6 13
3 6 14 13
3 6 7 14
3 7 15 14
3 7 8 15
3 8 16 15
3 8 9 16
3 9 17 16
3 9 2 17
3 2 10 17
3 10 11 18
3 11 19 18
3 11 12 19
3 12 20 19
3 12 13 20
3 13 21 20
3 13 14 21
3 14 22 21
3 14 15 22
3 15 23 22
3 15 16 23
3 16 24 23
3 16 17 24
3 17 25 24
3 17 10 25
3 10 18 25
3 18 19 26
3 19 27 26
3 19 20 27
3 20 28 27
3 20 21 28
3 21 29 28
3 21 22 29
3 22 30 29
3 22 23 30
3 23 31 30
3 23 24 31
3 24 32 31
3 24 25 32
3 25 33 32
3 25 18 33
3 18 26 33
3 26 27 34
3 27 35 34
3 27 28 35
3 28 36 35
3 28 29 36
3 29 37 36
3 29 30 37
3 30 38 37
3 30 31 38
3 31 39 38
3 31 32 39
3 32 40 39
3 32 33 40
3 33 41 40
3 33 26 41
3 26 34 41
3 34 35 42
3 35 43 42
3 35 36 43
3 36 44 43
3 36 37 44
3 37 45 44
3 37 38 45
3 38 46 45
3 38 39 46
3 39 47 46
3 39 40 47
3 40 48 47
3 40 41 48
3 41 49 48
3 41 34 49
3 34 42 49
3 42 43 50
3 43 51 50
3 43 44 51
3 44 52 51
3 44 45 52
3 45 53 52
3 45 46 53
3 46 54 53
3 46 47 54
3 47 55 54
3 47 48 55
3 48 56 55
3 48 49 56
3 49 57 56
3 49 42 57
3 42 50 57
3 50 51 58
3 51 59 58
3 51 52 59
3 52 60 59
3 52 53 60
3 53 61 60
3 53 54 61
3 54 62 61
3 54 55 62
3 55 63 62
3 55 56 63
3 56 64 63
3 56 57 64
3 57 65 64
3 57 50 65
3 50 58 65
3 58 59 66
3 59 67 66
3 59 60 67
3 60 68 67
3 60 61 68
3 61 69 68
3 61 62 69
3 62 70 69
3 62 63 70
3 63 71 70
3 63 64 71
3 64 72 71
3 64 65 72
3 65 73 72
3 65 58 73
3 58 66 73
3 66 67 74
3 67 75 74
3 67 68 75
3 68 76 75
3 68 69 76
3 69 77 76
3 69 70 77
3 70 78 77
3 70 71 78
3 71 79 78
3 71 72 79
3 72 80 79
3 72 73 80
3 73 81 80
3 73 66 81
3 66 74 81
3 74 75 82
3 75 83 82
3 75 76 83
3 76 84 83
3 76 77 84
3 77 85 84
3 77 78 85
3 78 86 85
3 78 79 86
3 79 87 86
3 79 80 87
3 80 88 87
3 80 81 88
3 81 89 88
3 81 74 89
3 74 82 89
3 82 83 90
3 83 91 90
3 83 84 91
3 84 92 91
3 84 85 92
3 85 93 92
3 85 86 93
3 86 94 93
3 86 87 94
3 87 95 94
3 87 88 95
3 88 96 95
3 88 89 96
3 89 97 96
3 89 82 97
3 82 90 97
3 90 91 98
3 91 99 98
3 91 92 99
3 92 100 99
3 92 93 100
3 93 101 100
3 93 94 101
3 94 102 101
3 94 95 102
3 95 103 102
3 95 96 103
3 96 104 103
3 96 97 104
3 97 105 104
3 97 90 105
3 90 98 105
3 98 99 106
3 99 107 106
3 99 100 107
3 100 108 107
3 100 101 108
3 101 109 108
3 101 102 109
3 102 110 109
3 102 103 110
3 103 111 110
3 103 104 111
3 104 112 111
3 104 105 112
3 105 113 112
3 105 98 113
3 98 106 113
3 106 107 114
3 107 115 114
3 107 108 115
3 108 116 115
3 108 109 116
3 109 117 116
3 109 110 117
3 110 118 117
3 110 111 118
3 111 119 118
3 111 112 119
3 112 120 119
3 112 113 120
3 113 121 120
3 113 106 121
3 106 114 121
3 114 115 122
3 115 123 122
3 115 116 123
3 116 124 123
3 116 117 124
3 117 125 124
3 117 118 125
3 118 126 125
3 118 119 126
3 119 127 126
3 119 120 127
3 120 128 127
3 120 121 128
3 121 129 128
3 121 114 129
3 114 122 129
3 122 123 130
3 123 131 130
3 123 124 131
3 124 132 131
3 124 125 132
3 125 133 132
3 125 126 133
3 126 134 133
3 126 127 134
3 127 135 134
3 127 128 135
3 128 136 135
3 128 129 136
3 129 137 136
3 129 122 137
3 122 130 137
