OFF
530 1056 0
0.000000 0.000000 8.000000
0.000000 0.000000 -8.000000
1.500000 0.000000 -8.000000
1.385820 0.574025 -8.000000
1.060660 1.060660 -8.000000
0.574025 1.385820 -8.000000
0.000000 1.500000 -8.000000
-0.574025 1.385820 -8.000000
-1.060660 1.060660 -8.000000
-1.385820 0.574025 -8.000000
-1.500000 0.000000 -8.000000
-1.385820 -0.574025 -8.000000
-1.060660 -1.060660 -8.000000
-0.574025 -1.385820 -8.000000
-0.000000 -1.500000 -8.000000
0.574025 -1.385820 -8.000000
1.060660 -1.060660 -8.000000
1.385820 -0.574025 -8.000000
1.500003 0.000000 -7.500000
1.385822 0.574026 -7.500000
1.060662 1.060662 -7.500000
0.574026 1.385822 -7.500000
0.000000 1.500003 -7.500000
-0.574026 1.385822 -7.500000
-1.060662 1.060662 -7.500000
-1.385822 0.574026 -7.500000
-1.500003 0.000000 -7.500000
-1.385822 -0.574026 -7.500000
-1.060662 -1.060662 -7.500000
-0.574026 -1.385822 -7.500000
-0.000000 -1.500003 -7.500000
0.574026 -1.385822 -7.500000
1.060662 -1.060662 -7.500000
1.385822 -0.574026 -7.500000
1.500019 0.000000 -7.000000
1.385837 0.574032 -7.000000
1.060674 1.060674 -7.000000
0.574032 1.385837 -7.000000
0.000000 1.500019 -7.000000
-0.574032 1.385837 -7.000000
-1.060674 1.060674 -7.000000
-1.385837 0.574032 -7.000000
-1.500019 0.000000 -7.000000
-1.385837 -0.574032 -7.000000
-1.060674 -1.060674 -7.000000
-0.574032 -1.385837 -7.000000
-0.000000 -1.500019 -7.000000
0.574032 -1.385837 -7.000000
1.060674 -1.060674 -7.000000
1.385837 -0.574032 -7.000000
1.500103 0.000000 -6.500000
1.385915 0.574065 -6.500000
1.060733 1.060733 -6.500000
0.574065 1.385915 -6.500000
0.000000 1.500103 -6.500000
-0.574065 1.385915 -6.500000
-1.060733 1.060733 -6.500000
-1.385915 0.574065 -6.500000
-1.500103 0.000000 -6.500000
-1.385915 -0.574065 -6.500000
-1.060733 -1.060733 -6.500000
-0.574065 -1.385915 -6.500000
-0.000000 -1.500103 -6.500000
0.574065 -1.385915 -6.500000
1.060733 -1.060733 -6.500000
1.385915 -0.574065 -6.500000
1.500494 0.000000 -6.000000
1.386275 0.574214 -6.000000
1.061009 1.061009 -6.000000
0.574214 1.386275 -6.000000
0.000000 1.500494 -6.000000
-0.574214 1.386275 -6.000000
-1.061009 1.061009 -6.000000
-1.386275 0.574214 -6.000000
-1.500494 0.000000 -6.000000
-1.386275 -0.574214 -6.000000
-1.061009 -1.061009 -6.000000
-0.574214 -1.386275 -6.000000
-0.000000 -1.500494 -6.000000
0.574214 -1.386275 -6.000000
1.061009 -1.061009 -6.000000
1.386275 -0.574214 -6.000000
1.502078 0.000000 -5.500000
1.387739 0.574820 -5.500000
1.062130 1.062130 -5.500000
0.574820 1.387739 -5.500000
0.000000 1.502078 -5.500000
-0.574820 1.387739 -5.500000
-1.062130 1.062130 -5.500000
-1.387739 0.574820 -5.500000
-1.502078 0.000000 -5.500000
-1.387739 -0.574820 -5.500000
-1.062130 -1.062130 -5.500000
-0.574820 -1.387739 -5.500000
-0.000000 -1.502078 -5.500000
0.574820 -1.387739 -5.500000
1.062130 -1.062130 -5.500000
1.387739 -0.574820 -5.500000
1.507722 0.000000 -5.000000
1.392953 0.576980 -5.000000
1.066120 1.066120 -5.000000
0.576980 1.392953 -5.000000
0.000000 1.507722 -5.000000
-0.576980 1.392953 -5.000000
-1.066120 1.066120 -5.000000
-1.392953 0.576980 -5.000000
-1.507722 0.000000 -5.000000
-1.392953 -0.576980 -5.000000
-1.066120 -1.066120 -5.000000
-0.576980 -1.392953 -5.000000
-0.000000 -1.507722 -5.000000
0.576980 -1.392953 -5.000000
1.066120 -1.066120 -5.000000
1.392953 -0.576980 -5.000000
1.525319 0.000000 -4.500000
1.409211 0.583714 -4.500000
1.078563 1.078563 -4.500000
0.583714 1.409211 -4.500000
0.000000 1.525319 -4.500000
-0.583714 1.409211 -4.500000
-1.078563 1.078563 -4.500000
-1.409211 0.583714 -4.500000
-1.525319 0.000000 -4.500000
-1.409211 -0.583714 -4.500000
-1.078563 -1.078563 -4.500000
-0.583714 -1.409211 -4.500000
-0.000000 -1.525319 -4.500000
0.583714 -1.409211 -4.500000
1.078563 -1.078563 -4.500000
1.409211 -0.583714 -4.500000
1.573263 0.000000 -4.000000
1.453505 0.602062 -4.000000
1.112465 1.112465 -4.000000
0.602062 1.453505 -4.000000
0.000000 1.573263 -4.000000
-0.602062 1.453505 -4.000000
-1.112465 1.112465 -4.000000
-1.453505 0.602062 -4.000000
-1.573263 0.000000 -4.000000
-1.453505 -0.602062 -4.000000
-1.112465 -1.112465 -4.000000
-0.602062 -1.453505 -4.000000
-0.000000 -1.573263 -4.000000
0.602062 -1.453505 -4.000000
1.112465 -1.112465 -4.000000
1.453505 -0.602062 -4.000000
1.687082 0.000000 -3.500000
1.558661 0.645619 -3.500000
1.192947 1.192947 -3.500000
0.645619 1.558661 -3.500000
0.000000 1.687082 -3.500000
-0.645619 1.558661 -3.500000
-1.192947 1.192947 -3.500000
-1.558661 0.645619 -3.500000
-1.687082 0.000000 -3.500000
-1.558661 -0.645619 -3.500000
-1.192947 -1.192947 -3.500000
-0.645619 -1.558661 -3.500000
-0.000000 -1.687082 -3.500000
0.645619 -1.558661 -3.500000
1.192947 -1.192947 -3.500000
1.558661 -0.645619 -3.500000
1.921597 0.000000 -3.000000
1.775324 0.735363 -3.000000
1.358774 1.358774 -3.000000
0.735363 1.775324 -3.000000
0.000000 1.921597 -3.000000
-0.735363 1.775324 -3.000000
-1.358774 1.358774 -3.000000
-1.775324 0.735363 -3.000000
-1.921597 0.000000 -3.000000
-1.775324 -0.735363 -3.000000
-1.358774 -1.358774 -3.000000
-0.735363 -1.775324 -3.000000
-0.000000 -1.921597 -3.000000
0.735363 -1.775324 -3.000000
1.358774 -1.358774 -3.000000
1.775324 -0.735363 -3.000000
2.338446 0.000000 -2.500000
2.160442 0.894884 -2.500000
1.653531 1.653531 -2.500000
0.894884 2.160442 -2.500000
0.000000 2.338446 -2.500000
-0.894884 2.160442 -2.500000
-1.653531 1.653531 -2.500000
-2.160442 0.894884 -2.500000
-2.338446 0.000000 -2.500000
-2.160442 -0.894884 -2.500000
-1.653531 -1.653531 -2.500000
-0.894884 -2.160442 -2.500000
-0.000000 -2.338446 -2.500000
0.894884 -2.160442 -2.500000
1.653531 -1.653531 -2.500000
2.160442 -0.894884 -2.500000
2.971518 0.000000 -2.000000
2.745324 1.137151 -2.000000
2.101180 2.101180 -2.000000
1.137151 2.745324 -2.000000
0.000000 2.971518 -2.000000
-1.137151 2.745324 -2.000000
-2.101180 2.101180 -2.000000
-2.745324 1.137151 -2.000000
-2.971518 0.000000 -2.000000
-2.745324 -1.137151 -2.000000
-2.101180 -2.101180 -2.000000
-1.137151 -2.745324 -2.000000
-0.000000 -2.971518 -2.000000
1.137151 -2.745324 -2.000000
2.101180 -2.101180 -2.000000
2.745324 -1.137151 -2.000000
3.779131 0.000000 -1.500000
3.491462 1.446211 -1.500000
2.672249 2.672249 -1.500000
1.446211 3.491462 -1.500000
0.000000 3.779131 -1.500000
-1.446211 3.491462 -1.500000
-2.672249 2.672249 -1.500000
-3.491462 1.446211 -1.500000
-3.779131 0.000000 -1.500000
-3.491462 -1.446211 -1.500000
-2.672249 -2.672249 -1.500000
-1.446211 -3.491462 -1.500000
-0.000000 -3.779131 -1.500000
1.446211 -3.491462 -1.500000
2.672249 -2.672249 -1.500000
3.491462 -1.446211 -1.500000
4.615203 0.000000 -1.000000
4.263892 1.766162 -1.000000
3.263441 3.263441 -1.000000
1.766162 4.263892 -1.000000
0.000000 4.615203 -1.000000
-1.766162 4.263892 -1.000000
-3.263441 3.263441 -1.000000
-4.263892 1.766162 -1.000000
-4.615203 0.000000 -1.000000
-4.263892 -1.766162 -1.000000
-3.263441 -3.263441 -1.000000
-1.766162 -4.263892 -1.000000
-0.000000 -4.615203 -1.000000
1.766162 -4.263892 -1.000000
3.263441 -3.263441 -1.000000
4.263892 -1.766162 -1.000000
5.257652 0.000000 -0.500000
4.857437 2.012016 -0.500000
3.717722 3.717722 -0.500000
2.012016 4.857437 -0.500000
0.000000 5.257652 -0.500000
-2.012016 4.857437 -0.500000
-3.717722 3.717722 -0.500000
-4.857437 2.012016 -0.500000
-5.257652 0.000000 -0.500000
-4.857437 -2.012016 -0.500000
-3.717722 -3.717722 -0.500000
-2.012016 -4.857437 -0.500000
-0.000000 -5.257652 -0.500000
2.012016 -4.857437 -0.500000
3.717722 -3.717722 -0.500000
4.857437 -2.012016 -0.500000
5.500000 0.000000 0.000000
5.081337 2.104759 0.000000
3.889087 3.889087 0.000000
2.104759 5.081337 0.000000
0.000000 5.500000 0.000000
-2.104759 5.081337 0.000000
-3.889087 3.889087 0.000000
-5.081337 2.104759 0.000000
-5.500000 0.000000 0.000000
-5.081337 -2.104759 0.000000
-3.889087 -3.889087 0.000000
-2.104759 -5.081337 0.000000
-0.000000 -5.500000 0.000000
2.104759 -5.081337 0.000000
3.889087 -3.889087 0.000000
5.081337 -2.104759 0.000000
5.257652 0.000000 0.500000
4.857437 2.012016 0.500000
3.717722 3.717722 0.500000
2.012016 4.857437 0.500000
0.000000 5.257652 0.500000
-2.012016 4.857437 0.500000
-3.717722 3.717722 0.500000
-4.857437 2.012016 0.500000
-5.257652 0.000000 0.500000
-4.857437 -2.012016 0.500000
-3.717722 -3.717722 0.500000
-2.012016 -4.857437 0.500000
-0.000000 -5.257652 0.500000
2.012016 -4.857437 0.500000
3.717722 -3.717722 0.500000
4.857437 -2.012016 0.500000
4.615203 0.000000 1.000000
4.263892 1.766162 1.000000
3.263441 3.263441 1.000000
1.766162 4.263892 1.000000
0.000000 4.615203 1.000000
-1.766162 4.263892 1.000000
-3.263441 3.263441 1.000000
-4.263892 1.766162 1.000000
-4.615203 0.000000 1.000000
-4.263892 -1.766162 1.000000
-3.263441 -3.263441 1.000000
-1.766162 -4.263892 1.000000
-0.000000 -4.615203 1.000000
1.766162 -4.263892 1.000000
3.263441 -3.263441 1.000000
4.263892 -1.766162 1.000000
3.779131 0.000000 1.500000
3.491462 1.446211 1.500000
2.672249 2.672249 1.500000
1.446211 3.491462 1.500000
0.000000 3.779131 1.500000
-1.446211 3.491462 1.500000
-2.672249 2.672249 1.500000
-3.491462 1.446211 1.500000
-3.779131 0.000000 1.500000
-3.491462 -1.446211 1.500000
-2.672249 -2.672249 1.500000
-1.446211 -3.491462 1.500000
-0.000000 -3.779131 1.500000
1.446211 -3.491462 1.500000
2.672249 -2.672249 1.500000
3.491462 -1.446211 1.500000
2.971518 0.000000 2.000000
2.745324 1.137151 2.000000
2.101180 2.101180 2.000000
1.137151 2.745324 2.000000
0.000000 2.971518 2.000000
-1.137151 2.745324 2.000000
-2.101180 2.101180 2.000000
-2.745324 1.137151 2.000000
-2.971518 0.000000 2.000000
-2.745324 -1.137151 2.000000
-2.101180 -2.101180 2.000000
-1.137151 -2.745324 2.000000
-0.000000 -2.971518 2.000000
1.137151 -2.745324 2.000000
2.101180 -2.101180 2.000000
2.745324 -1.137151 2.000000
2.338446 0.000000 2.500000
2.160442 0.894884 2.500000
1.653531 1.653531 2.500000
0.894884 2.160442 2.500000
0.000000 2.338446 2.500000
-0.894884 2.160442 2.500000
-1.653531 1.653531 2.500000
-2.160442 0.894884 2.500000
-2.338446 0.000000 2.500000
-2.160442 -0.894884 2.500000
-1.653531 -1.653531 2.500000
-0.894884 -2.160442 2.500000
-0.000000 -2.338446 2.500000
0.894884 -2.160442 2.500000
1.653531 -1.653531 2.500000
2.160442 -0.894884 2.500000
1.921597 0.000000 3.000000
1.775324 0.735363 3.000000
1.358774 1.358774 3.000000
0.735363 1.775324 3.000000
0.000000 1.921597 3.000000
-0.735363 1.775324 3.000000
-1.358774 1.358774 3.000000
-1.775324 0.735363 3.000000
-1.921597 0.000000 3.000000
-1.775324 -0.735363 3.000000
-1.358774 -1.358774 3.000000
-0.735363 -1.775324 3.000000
-0.000000 -1.921597 3.000000
0.735363 -1.775324 3.000000
1.358774 -1.358774 3.000000
1.775324 -0.735363 3.000000
1.687082 0.000000 3.500000
1.558661 0.645619 3.500000
1.192947 1.192947 3.500000
0.645619 1.558661 3.500000
0.000000 1.687082 3.500000
-0.645619 1.558661 3.500000
-1.192947 1.192947 3.500000
-1.558661 0.645619 3.500000
-1.687082 0.000000 3.500000
-1.558661 -0.645619 3.500000
-1.192947 -1.192947 3.500000
-0.645619 -1.558661 3.500000
-0.000000 -1.687082 3.500000
0.645619 -1.558661 3.500000
1.192947 -1.192947 3.500000
1.558661 -0.645619 3.500000
1.573263 0.000000 4.000000
1.453505 0.602062 4.000000
1.112465 1.112465 4.000000
0.602062 1.453505 4.000000
0.000000 1.573263 4.000000
-0.602062 1.453505 4.000000
-1.112465 1.112465 4.000000
-1.453505 0.602062 4.000000
-1.573263 0.000000 4.000000
-1.453505 -0.602062 4.000000
-1.112465 -1.112465 4.000000
-0.602062 -1.453505 4.000000
-0.000000 -1.573263 4.000000
0.602062 -1.453505 4.000000
1.112465 -1.112465 4.000000
1.453505 -0.602062 4.000000
1.525319 0.000000 4.500000
1.409211 0.583714 4.500000
1.078563 1.078563 4.500000
0.583714 1.409211 4.500000
0.000000 1.525319 4.500000
-0.583714 1.409211 4.500000
-1.078563 1.078563 4.500000
-1.409211 0.583714 4.500000
-1.525319 0.000000 4.500000
-1.409211 -0.583714 4.500000
-1.078563 -1.078563 4.500000
-0.583714 -1.409211 4.500000
-0.000000 -1.525319 4.500000
0.583714 -1.409211 4.500000
1.078563 -1.078563 4.500000
1.409211 -0.583714 4.500000
1.507722 0.000000 5.000000
1.392953 0.576980 5.000000
1.066120 1.066120 5.000000
0.576980 1.392953 5.000000
0.000000 1.507722 5.000000
-0.576980 1.392953 5.000000
-1.066120 1.066120 5.000000
-1.392953 0.576980 5.000000
-1.507722 0.000000 5.000000
-1.392953 -0.576980 5.000000
-1.066120 -1.066120 5.000000
-0.576980 -1.392953 5.000000
-0.000000 -1.507722 5.000000
0.576980 -1.392953 5.000000
1.066120 -1.066120 5.000000
1.392953 -0.576980 5.000000
1.502078 0.000000 5.500000
1.387739 0.574820 5.500000
1.062130 1.062130 5.500000
0.574820 1.387739 5.500000
0.000000 1.502078 5.500000
-0.574820 1.387739 5.500000
-1.062130 1.062130 5.500000
-1.387739 0.574820 5.500000
-1.502078 0.000000 5.500000
-1.387739 -0.574820 5.500000
-1.062130 -1.062130 5.500000
-0.574820 -1.387739 5.500000
-0.000000 -1.502078 5.500000
0.574820 -1.387739 5.500000
1.062130 -1.062130 5.500000
1.387739 -0.574820 5.500000
1.500494 0.000000 6.000000
1.386275 0.574214 6.000000
1.061009 1.061009 6.000000
0.574214 1.386275 6.000000
0.000000 1.500494 6.000000
-0.574214 1.386275 6.000000
-1.061009 1.061009 6.000000
-1.386275 0.574214 6.000000
-1.500494 0.000000 6.000000
-1.386275 -0.574214 6.000000
-1.061009 -1.061009 6.000000
-0.574214 -1.386275 6.000000
-0.000000 -1.500494 6.000000
0.574214 -1.386275 6.000000
1.061009 -1.061009 6.000000
1.386275 -0.574214 6.000000
1.500103 0.000000 6.500000
1.385915 0.574065 6.500000
1.060733 1.060733 6.500000
0.574065 1.385915 6.500000
0.000000 1.500103 6.500000
-0.574065 1.385915 6.500000
-1.060733 1.060733 6.500000
-1.385915 0.574065 6.500000
-1.500103 0.000000 6.500000
-1.385915 -0.574065 6.500000
-1.060733 -1.060733 6.500000
-0.574065 -1.385915 6.500000
-0.000000 -1.500103 6.500000
0.574065 -1.385915 6.500000
1.060733 -1.060733 6.500000
1.385915 -0.574065 6.500000
1.500019 0.000000 7.000000
1.385837 0.574032 7.000000
1.060674 1.060674 7.000000
0.574032 1.385837 7.000000
0.000000 1.500019 7.000000
-0.574032 1.385837 7.000000
-1.060674 1.060674 7.000000
-1.385837 0.574032 7.000000
-1.500019 0.000000 7.000000
-1.385837 -0.574032 7.000000
-1.060674 -1.060674 7.000000
-0.574032 -1.385837 7.000000
-0.000000 -1.500019 7.000000
0.574032 -1.385837 7.000000
1.060674 -1.060674 7.000000
1.385837 -0.574032 7.000000
1.500003 0.000000 7.500000
1.385822 0.574026 7.500000
1.060662 1.060662 7.500000
0.574026 1.385822 7.500000
0.000000 1.500003 7.500000
-0.574026 1.385822 7.500000
-1.060662 1.060662 7.500000
-1.385822 0.574026 7.500000
-1.500003 0.000000 7.500000
-1.385822 -0.574026 7.500000
-1.060662 -1.060662 7.500000
-0.574026 -1.385822 7.500000
-0.000000 -1.500003 7.500000
0.574026 -1.385822 7.500000
1.060662 -1.060662 7.500000
1.385822 -0.574026 7.500000
1.500000 0.000000 8.000000
1.385820 0.574025 8.000000
1.060660 1.060660 8.000000
0.574025 1.385820 8.000000
0.000000 1.500000 8.000000
-0.574025 1.385820 8.000000
-1.060660 1.060660 8.000000
-1.385820 0.574025 8.000000
-1.500000 0.000000 8.000000
-1.385820 -0.574025 8.000000
-1.060660 -1.060660 8.000000
-0.574025 -1.385820 8.000000
-0.000000 -1.500000 8.000000
0.574025 -1.385820 8.000000
1.060660 -1.060660 8.000000
1.385820 -0.574025 8.000000
3 1 3 2
3 0 514 515
3 1 4 3
3 0 515 516
3 1 5 4
3 0 516 517
3 1 6 5
3 0 517 518
3 1 7 6
3 0 518 519
3 1 8 7
3 0 519 520
3 1 9 8
3 0 520 521
3 1 10 9
3 0 521 522
3 1 11 10
3 0 522 523
3 1 12 11
3 0 523 524
3 1 13 12
3 0 524 525
3 1 14 13
3 0 525 526
3 1 15 14
3 0 526 527
3 1 16 15
3 0 527 528
3 1 17 16
3 0 528 529
3 1 2 17
3 0 529 514
3 2 3 18
3 3 19 18
3 3 4 19
3 4 20 19
3 4 5 20
3 5 21 20
3 5 6 21
3 6 22 21
3 6 7 22
3 7 23 22
3 7 8 23
3 8 24 23
3 8 9 24
3 9 25 24
3 9 10 25
3 10 26 25
3 10 11 26
3 11 27 26
3 11 12 27
3 12 28 27
3 12 13 28
3 13 29 28
3 13 14 29
3 14 30 29
3 14 15 30
3 15 31 30
3 15 16 31
3 16 32 31
3 16 17 32
3 17 33 32
3 17 2 33
3 2 18 33
3 18 19 34
3 19 35 34
3 19 20 35
3 20 36 35
3 20 21 36
3 21 37 36
3 21 22 37
3 22 38 37
3 22 23 38
3 23 39 38
3 23 24 39
3 24 40 39
3 24 25 40
3 25 41 40
3 25 26 41
3 26 42 41
3 26 27 42
3 27 43 42
3 27 28 43
3 28 44 43
3 28 29 44
3 29 45 44
3 29 30 45
3 30 46 45
3 30 31 46
3 31 47 46
3 31 32 47
3 32 48 47
3 32 33 48
3 33 49 48
3 33 18 49
3 18 34 49
3 34 35 50
3 35 51 50
3 35 36 51
3 36 52 51
3 36 37 52
3 37 53 52
3 37 38 53
3 38 54 53
3 38 39 54
3 39 55 54
3 39 40 55
3 40 56 55
3 40 41 56
3 41 57 56
3 41 42 57
3 42 58 57
3 42 43 58
3 43 59 58
3 43 44 59
3 44 60 59
3 44 45 60
3 45 61 60
3 45 46 61
3 46 62 61
3 46 47 62
3 47 63 62
3 47 48 63
3 48 64 63
3 48 49 64
3 49 65 64
3 49 34 65
3 34 50 65
3 50 51 66
3 51 67 66
3 51 52 67
3 52 68 67
3 52 53 68
3 53 69 68
3 53 54 69
3 54 70 69
3 54 55 70
3 55 71 70
3 55 56 71
3 56 72 71
3 56 57 72
3 57 73 72
3 57 58 73
3 58 74 73
3 58 59 74
3 59 75 74
3 59 60 75
3 60 76 75
3 60 61 76
3 61 77 76
3 61 62 77
3 62 78 77
3 62 63 78
3 63 79 78
3 63 64 79
3 64 80 79
3 64 65 80
3 65 81 80
3 65 50 81
3 50 66 81
3 66 67 82
3 67 83 82
3 67 68 83
3 68 84 83
3 68 69 84
3 69 85 84
3 69 70 85
3 70 86 85
3 70 71 86
3 71 87 86
3 71 72 87
3 72 88 87
3 72 73 88
3 73 89 88
3 73 74 89
3 74 90 89
3 74 75 90
3 75 91 90
3 75 76 91
3 76 92 91
3 76 77 92
3 77 93 92
3 77 78 93
3 78 94 93
3 78 79 94
3 79 95 94
3 79 80 95
3 80 96 95
3 80 81 96
3 81 97 96
3 81 66 97
3 66 82 97
3 82 83 98
3 83 99 98
3 83 84 99
3 84 100 99
3 84 85 100
3 85 101 100
3 85 86 101
3 86 102 101
3 86 87 102
3 87 103 102
3 87 88 103
3 88 104 103
3 88 89 104
3 89 105 104
3 89 90 105
3 90 106 105
3 90 91 106
3 91 107 106
3 91 92 107
3 92 108 107
3 92 93 108
3 93 109 108
3 93 94 109
3 94 110 109
3 94 95 110
3 95 111 110
3 95 96 111
3 96 112 111
3 96 97 112
3 97 113 112
3 97 82 113
3 82 98 113
3 98 99 114
3 99 115 114
3 99 100 115
3 100 116 115
3 100 101 116
3 101 117 116
3 101 102 117
3 102 118 117
3 102 103 118
3 103 119 118
3 103 104 119
3 104 120 119
3 104 105 120
3 105 121 120
3 105 106 121
3 106 122 121
3 106 107 122
3 107 123 122
3 107 108 123
3 108 124 123
3 108 109 124
3 109 125 124
3 109 110 125
3 110 126 125
3 110 111 126
3 111 127 126
3 111 112 127
3 112 128 127
3 112 113 128
3 113 129 128
3 113 98 129
3 98 114 129
3 114 115 130
3 115 131 130
3 115 116 131
3 116 132 131
3 116 117 132
3 117 133 132
3 117 118 133
3 118 134 133
3 118 119 134
3 119 135 134
3 119 120 135
3 120 136 135
3 120 121 136
3 121 137 136
3 121 122 137
3 122 138 137
3 122 123 138
3 123 139 138
3 123 124 139
3 124 140 139
3 124 125 140
3 125 141 140
3 125 126 141
3 126 142 141
3 126 127 142
3 127 143 142
3 127 128 143
3 128 144 143
3 128 129 144
3 129 145 144
3 129 114 145
3 114 130 145
3 130 131 146
3 131 147 146
3 131 132 147
3 132 148 147
3 132 133 148
3 133 149 148
3 133 134 149
3 134 150 149
3 134 135 150
3 135 151 150
3 135 136 151
3 136 152 151
3 136 137 152
3 137 153 152
3 137 138 153
3 138 154 153
3 138 139 154
3 139 155 154
3 139 140 155
3 140 156 155
3 140 141 156
3 141 157 156
3 141 142 157
3 142 158 157
3 142 143 158
3 143 159 158
3 143 144 159
3 144 160 159
3 144 145 160
3 145 161 160
3 145 130 161
3 130 146 161
3 146 147 162
3 147 163 162
3 147 148 163
3 148 164 163
3 148 149 164
3 149 165 164
3 149 150 165
3 150 166 165
3 150 151 166
3 151 167 166
3 151 152 167
3 152 168 167
3 152 153 168
3 153 169 168
3 153 154 169
3 154 170 169
3 154 155 170
3 155 171 170
3 155 156 171
3 156 172 171
3 156 157 172
3 157 173 172
3 157 158 173
3 158 174 173
3 158 159 174
3 159 175 174
3 159 160 175
3 160 176 175
3 160 161 176
3 161 177 176
3 161 146 177
3 146 162 177
3 162 163 178
3 163 179 178
3 163 164 179
3 164 180 179
3 164 165 180
3 165 181 180
3 165 166 181
3 166 182 181
3 166 167 182
3 167 183 182
3 167 168 183
3 168 184 183
3 168 169 184
3 169 185 184
3 169 170 185
3 170 186 185
3 170 171 186
3 171 187 186
3 171 172 187
3 172 188 187
3 172 173 188
3 173 189 188
3 173 174 189
3 174 190 189
3 174 175 190
3 175 191 190
3 175 176 191
3 176 192 191
3 176 177 192
3 177 193 192
3 177 162 193
3 162 178 193
3 178 179 194
3 179 195 194
3 179 180 195
3 180 196 195
3 180 181 196
3 181 197 196
3 181 182 197
3 182 198 197
3 182 183 198
3 183 199 198
3 183 184 199
3 184 200 199
3 184 185 200
3 185 201 200
3 185 186 201
3 186 202 201
3 186 187 202
3 187 203 202
3 187 188 203
3 188 204 203
3 188 189 204
3 189 205 204
3 189 190 205
3 190 206 205
3 190 191 206
3 191 207 206
3 191 192 207
3 192 208 207
3 192 193 208
3 193 209 208
3 193 178 209
3 178 194 209
3 194 195 210
3 195 211 210
3 195 196 211
3 196 212 211
3 196 197 212
3 197 213 212
3 197 198 213
3 198 214 213
3 198 199 214
3 199 215 214
3 199 200 215
3 200 216 215
3 200 201 216
3 201 217 216
3 201 202 217
3 202 218 217
3 202 203 218
3 203 219 218
3 203 204 219
3 204 220 219
3 204 205 220
3 205 221 220
3 205 206 221
3 206 222 221
3 206 207 222
3 207 223 222
3 207 208 223
3 208 224 223
3 208 209 224
3 209 225 224
3 209 194 225
3 194 210 225
3 210 211 226
3 211 227 226
3 211 212 227
3 212 228 227
3 212 213 228
3 213 229 228
3 213 214 229
3 214 230 229
3 214 215 230
3 215 231 230
3 215 216 231
3 216 232 231
3 216 217 232
3 217 233 232
3 217 218 233
3 218 234 233
3 218 219 234
3 219 235 234
3 219 220 235
3 220 236 235
3 220 221 236
3 221 237 236
3 221 222 237
3 222 238 237
3 222 223 238
3 223 239 238
3 223 224 239
3 224 240 239
3 224 225 240
3 225 241 240
3 225 210 241
3 210 226 241
3 226 227 242
3 227 243 242
3 227 228 243
3 228 244 243
3 228 229 244
3 229 245 244
3 229 230 245
3 230 246 245
3 230 231 246
3 231 247 246
3 231 232 247
3 232 248 247
3 232 233 248
3 233 249 248
3 233 234 249
3 234 250 249
3 234 235 250
3 235 251 250
3 235 236 251
3 236 252 251
3 236 237 252
3 237 253 252
3 237 238 253
3 238 254 253
3 238 239 254
3 239 255 254
3 239 240 255
3 240 256 255
3 240 241 256
3 241 257 256
3 241 226 257
3 226 242 257
3 242 243 258
3 243 259 258
3 243 244 259
3 244 260 259
3 244 245 260
3 245 261 260
3 245 246 261
3 246 262 261
3 246 247 262
3 247 263 262
3 247 248 263
3 248 264 263
3 248 249 264
3 249 265 264
3 249 250 265
3 250 266 265
3 250 251 266
3 251 267 266
3 251 252 267
3 252 268 267
3 252 253 268
3 253 269 268
3 253 254 269
3 254 270 269
3 254 255 270
3 255 271 270
3 255 256 271
3 256 272 271
3 256 257 272
3 257 273 272
3 257 242 273
3 242 258 273
3 258 259 274
3 259 275 274
3 259 260 275
3 260 276 275
3 260 261 276
3 261 277 276
3 261 262 277
3 262 278 277
3 262 263 278
3 263 279 278
3 263 264 279
3 264 280 279
3 264 265 280
3 265 281 280
3 265 266 281
3 266 282 281
3 266 267 282
3 267 283 282
3 267 268 283
3 268 284 283
3 268 269 284
3 269 285 284
3 269 270 285
3 270 286 285
3 270 271 286
3 271 287 286
3 271 272 287
3 272 288 287
3 272 273 288
3 273 289 288
3 273 258 289
3 258 274 289
3 274 275 290
3 275 291 290
3 275 276 291
3 276 292 291
3 276 277 292
3 277 293 292
3 277 278 293
3 278 294 293
3 278 279 294
3 279 295 294
3 279 280 295
3 280 296 295
3 280 281 296
3 281 297 296
3 281 282 297
3 282 298 297
3 282 283 298
3 283 299 298
3 283 284 299
3 284 300 299
3 284 285 300
3 285 301 300
3 285 286 301
3 286 302 301
3 286 287 302
3 287 303 302
3 287 288 303
3 288 304 303
3 288 289 304
3 289 305 304
3 289 274 305
3 274 290 305
3 290 291 306
3 291 307 306
3 291 292 307
3 292 308 307
3 292 293 308
3 293 309 308
3 293 294 309
3 294 310 309
3 294 295 310
3 295 311 310
3 295 296 311
3 296 312 311
3 296 297 312
3 297 313 312
3 297 298 313
3 298 314 313
3 298 299 314
3 299 315 314
3 299 300 315
3 300 316 315
3 300 301 316
3 301 317 316
3 301 302 317
3 302 318 317
3 302 303 318
3 303 319 318
3 303 304 319
3 304 320 319
3 304 305 320
3 305 321 320
3 305 290 321
3 290 306 321
3 306 307 322
3 307 323 322
3 307 308 323
3 308 324 323
3 308 309 324
3 309 325 324
3 309 310 325
3 310 326 325
3 310 311 326
3 311 327 326
3 311 312 327
3 312 328 327
3 312 313 328
3 313 329 328
3 313 314 329
3 314 330 329
3 314 315 330
3 315 331 330
3 315 316 331
3 316 332 331
3 316 317 332
3 317 333 332
3 317 318 333
3 318 334 333
3 318 319 334
3 319 335 334
3 319 320 335
3 320 336 335
3 320 321 336
3 321 337 336
3 321 306 337
3 306 322 337
3 322 323 338
3 323 339 338
3 323 324 339
3 324 340 339
3 324 325 340
3 325 341 340
3 325 326 341
3 326 342 341
3 326 327 342
3 327 343 342
3 327 328 343
3 328 344 343
3 328 329 344
3 329 345 344
3 329 330 345
3 330 346 345
3 330 331 346
3 331 347 346
3 331 332 347
3 332 348 347
3 332 333 348
3 333 349 348
3 333 334 349
3 334 350 349
3 334 335 350
3 335 351 350
3 335 336 351
3 336 352 351
3 336 337 352
3 337 353 352
3 337 322 353
3 322 338 353
3 338 339 354
3 339 355 354
3 339 340 355
3 340 356 355
3 340 341 356
3 341 357 356
3 341 342 357
3 342 358 357
3 342 343 358
3 343 359 358
3 343 344 359
3 344 360 359
3 344 345 360
3 345 361 360
3 345 346 361
3 346 362 361
3 346 347 362
3 347 363 362
3 347 348 363
3 348 364 363
3 348 349 364
3 349 365 364
3 349 350 365
3 350 366 365
3 350 351 366
3 351 367 366
3 351 352 367
3 352 368 367
3 352 353 368
3 353 369 368
3 353 338 369
3 338 354 369
3 354 355 370
3 355 371 370
3 355 356 371
3 356 372 371
3 356 357 372
3 357 373 372
3 357 358 373
3 358 374 373
3 358 359 374
3 359 375 374
3 359 360 375
3 360 376 375
3 360 361 376
3 361 377 376
3 361 362 377
3 362 378 377
3 362 363 378
3 363 379 378
3 363 364 379
3 364 380 379
3 364 365 380
3 365 381 380
3 365 366 381
3 366 382 381
3 366 367 382
3 367 383 382
3 367 368 383
3 368 384 383
3 368 369 384
3 369 385 384
3 369 354 385
3 354 370 385
3 370 371 386
3 371 387 386
3 371 372 387
3 372 388 387
3 372 373 388
3 373 389 388
3 373 374 389
3 374 390 389
3 374 375 390
3 375 391 390
3 375 376 391
3 376 392 391
3 376 377 392
3 377 393 392
3 377 378 393
3 378 394 393
3 378 379 394
3 379 395 394
3 379 380 395
3 380 396 395
3 380 381 396
3 381 397 396
3 381 382 397
3 382 398 397
3 382 383 398
3 383 399 398
3 383 384 399
3 384 400 399
3 384 385 400
3 385 401 400
3 385 370 401
3 370 386 401
3 386 387 402
3 387 403 402
3 387 388 403
3 388 404 403
3 388 389 404
3 389 405 404
3 389 390 405
3 390 406 405
3 390 391 406
3 391 407 406
3 391 392 407
3 392 408 407
3 392 393 408
3 393 409 408
3 393 394 409
3 394 410 409
3 394 395 410
3 395 411 410
3 395 396 411
3 396 412 411
3 396 397 412
3 397 413 412
3 397 398 413
3 398 414 413
3 398 399 414
3 399 415 414
3 399 400 415
3 400 416 415
3 400 401 416
3 401 417 416
3 401 386 417
3 386 402 417
3 402 403 418
3 403 419 418
3 403 404 419
3 404 420 419
3 404 405 420
3 405 421 420
3 405 406 421
3 406 422 421
3 406 407 422
3 407 423 422
3 407 408 423
3 408 424 423
3 408 409 424
3 409 425 424
3 409 410 425
3 410 426 425
3 410 411 426
3 411 427 426
3 411 412 427
3 412 428 427
3 412 413 428
3 413 429 428
3 413 414 429
3 414 430 429
3 414 415 430
3 415 431 430
3 415 416 431
3 416 432 431
3 416 417 432
3 417 433 432
3 417 402 433
3 402 418 433
3 418 419 434
3 419 435 434
3 419 420 435
3 420 436 435
3 420 421 436
3 421 437 436
3 421 422 437
3 422 438 437
3 422 423 438
3 423 439 438
3 423 424 439
3 424 440 439
3 424 425 440
3 425 441 440
3 425 426 441
3 426 442 441
3 426 427 442
3 427 443 442
3 427 428 443
3 428 444 443
3 428 429 444
3 429 445 444
3 429 430 445
3 430 446 445
3 430 431 446
3 431 447 446
3 431 432 447
3 432 448 447
3 432 433 448
3 433 449 448
3 433 418 449
3 418 434 449
3 434 435 450
3 435 451 450
3 435 436 451
3 436 452 451
3 436 437 452
3 437 453 452
3 437 438 453
3 438 454 453
3 438 439 454
3 439 455 454
3 439 440 455
3 440 456 455
3 440 441 456
3 441 457 456
3 441 442 457
3 442 458 457
3 442 443 458
3 443 459 458
3 443 444 459
3 444 460 459
3 444 445 460
3 445 461 460
3 445 446 461
3 446 462 461
3 446 447 462
3 447 463 462
3 447 448 463
3 448 464 463
3 448 449 464
3 449 465 464
3 449 434 465
3 434 450 465
3 450 451 466
3 451 467 466
3 451 452 467
3 452 468 467
3 452 453 468
3 453 469 468
3 453 454 469
3 454 470 469
3 454 455 470
3 455 471 470
3 455 456 471
3 456 472 471
3 456 457 472
3 457 473 472
3 457 458 473
3 458 474 473
3 458 459 474
3 459 475 474
3 459 460 475
3 460 476 475
3 460 461 476
3 461 477 476
3 461 462 477
3 462 478 477
3 462 463 478
3 463 479 478
3 463 464 479
3 464 480 479
3 464 465 480
3 465 481 480
3 465 450 481
3 450 466 481
3 466 467 482
3 467 483 482
3 467 468 483
3 468 484 483
3 468 469 484
3 469 485 484
3 469 470 485
3 470 486 485
3 470 471 486
3 471 487 486
3 471 472 487
3 472 488 487
3 472 473 488
3 473 489 488
3 473 474 489
3 474 490 489
3 474 475 490
3 475 491 490
3 475 476 491
3 476 492 491
3 476 477 492
3 477 493 492
3 477 478 493
3 478 494 493
3 478 479 494
3 479 495 494
3 479 480 495
3 480 496 495
3 480 481 496
3 481 497 496
3 481 466 497
3 466 482 497
3 482 483 498
3 483 499 498
3 483 484 499
3 484 500 499
3 484 485 500
3 485 501 500
3 485 486 501
3 486 502 501
3 486 487 502
3 487 503 502
3 487 488 503
3 488 504 503
3 488 489 504
3 489 505 504
3 489 490 505
3 490 506 505
3 490 491 506
3 491 507 506
3 491 492 507
3 492 508 507
3 492 493 508
3 493 509 508
3 493 494 509
3 494 510 509
3 494 495 510
3 495 511 510
3 495 496 511
3 496 512 511
3 496 497 512
3 497 513 512
3 497 482 513
3 482 498 513
3 498 499 514
3 499 515 514
3 499 500 515
3 500 516 515
3 500 501 516
3 501 517 516
3 501 502 517
3 502 518 517
3 502 503 518
3 503 519 518
3 503 504 519
3 504 520 519
3 504 505 520
3 505 521 520
3 505 506 521
3 506 522 521
3 506 507 522
3 507 523 522
3 507 508 523
3 508 524 523
3 508 509 524
3 509 525 524
3 509 510 525
3 510 526 525
3 510 511 526
3 511 527 526
3 511 512 527
3 512 528 527
3 512 513 528
3 513 529 528
3 513 498 529
3 498 514 529
